<svg xmlns="http://www.w3.org/2000/svg" version="1.2" baseProfile="tiny" x="0" y="0" width="295.3" height="71.3" viewBox="8 0.7 295.3 71.3" xml:space="preserve"><path fill="#FFFFFF" d="M-215.5-235.6l0.5-1.3c1-0.9 2.6 0.1 2.3 1.2l-0.4 0.7c3.5 1 6 2.6 6 5.3 0 3.5-7.2 6.3-10.2 7.5 2 1.2 10 3.7 10 9.1 0 4-5.8 8.2-13.2 8.2 -3.2 0-9.3-1.6-9.3-6.2 0-2.7 2.1-5.5 3.8-7.2 0.2-0.1 0.5 0.9 0.2 1.4 -1.1 2.4-1.6 3.8-1.6 5.8 0 1.6 1.2 4 6.6 4 5.1 0 11.2-2.9 11.2-6.5 0-3.7-6.4-6.1-10.7-7.4 -1.8 4-3 7.4-2.6 8.9 -1.4 2.3-4.2 0-1.9-1.8 0.9-2.5 1.8-4.9 2.8-7.3 -1.1-0.1-1.8-0.3-2.3-0.9 -0.8-0.8-0.1-2.3 0.6-2.3 0.9 0.1 1.9 0.1 30 1.3-3.1 2.8-6.2 4.2-9.5 -3.7-0.7-8.2-1.1-11.3-0.9 -2.2 0.1-2.9-1.4-3.2-1.8 -0.3-0.3 0.7-1.5 1-1.5C-226.4-237-220.4-236.6-215.5-235.6zM-218.5-224.6c4.5-0.9 9.2-3 9.2-5.5 0-1.3-2-2.4-4.7-3.1C-215.5-230.4-217.1-227.5-218.5-224.6zM-179.5-218c-2.5 3-10.3 10.8-17.9 11.4 -4.5 1.5-5.5-3-5.3-5.4 0.4-4.8 4.1-9.8 8.6-12.7 0.8-0.5 1.1-0.1 1.3 0 0.2 0.1 0.4-0.3 0.8-0.3 1 0 2.5 2.7 2.6 4.3 0 0.9-0.3 1.4-0.8 1.8 -0.1 0.1 0 0.6-0.3 1 -1.7 2.1-4.8 4.7-9.4 7.2 0.3 2.5 2.2 2.4 5.9 1.2 4.1-1.3 9.5-4.8 13.8-9.5C-179.8-219-178.8-218.9-179.5-218zM-199.9-212.6c3-1.4 8.4-5.5 8.5-8.4 0-0.5-1.4-1.3-1.8-1.3C-195.3-222.4-199.3-217.5-199.9-212.6zM-178-208.4c2.3 0 3.4-0.6 3.6-0.9 0.3-0.4 0.2-0.8-0.4-1.3 -1.8-1.5-4.6-3.3-7-5.8 -1.5-0.2-1.8-3.6-0.6-4.4 3.4-2.1 8.1-5 11.3-5 0.3 0 0.7 0.1 0.9 0.3 0.7 0.6 1.1 2 1.1 2.6s-0.2 0.9-0.7 0.6c-2.2-0.2-7.9 2.4-10 4 -0.5 2.7 5.4 4.9 7.6 7.3 1.5 1.7 1.2 3.2-0.1 3.8 -4 2-10.9-0.4-13.7-2.7 -0.7-0.5-0.1-0.8 0.2-0.6C-183.8-209.2-180.3-208.4-178-208.4zM-137.3-221.8c1.3-0.6 2.5 0 2.6 0.6 0.1 0.70 1.1-1.5 1.5 -4.5 1.2-10.8 5.7-14.2 8.2 -0.7 2.2-1.4 4.2-2.2 5 -0.5 0.5-1.6 0.5-2.4 0.4 -0.1 0.1-0.2 0.2-0.3 0.3 -1.3 0.5-2-0.9-1.3-1.8 0.8-1 1.9-2.1 3.3-3.4 0.4-1.2 2.1-7.2 2.1-9.9 0-1.5-0.5-1.6-1.9-0.4 -3.4 2.9-12.6 19-15.6 29.3 -0.2 0.60 1.3-0.1 1.9 -0.2 1.2-1.3 2.1-2.3 2.3 -0.6 0.1-2-0.6-1.5-1.8 3.6-9.6 7.3-22.5 9.9-33.2 0.1-0.6 0.9-0.3 1.3-0.2 0.5 0 2.1 0.8 1.6 2.5 -0.3 1.7-5 12.7-5.5 14.1 -0.4 1.3 0.1 0.9 0.6 0 2.5-4.5 9.6-18.9 14-18.5 0.6 0 2.2 1.7 2.3 4 0 1.1-0.5 4-1.2 6.9C-146.1-216.7-141.7-219.6-137.3-221.8zM-129.5-220.8c0 0.8-1.3 1.5-3.9 1.3 -0.5 0-5.2 5.2-5.2 8 0 2.7 1.2 3.8 2.5 3.8 3.7 0 7.4-6.3 7.4-11.3 0-1.7-1.5-3.6-1.5-4.1 0-0.5 0.5-0.8 1.2-0.8 2.8 0 4.1 2 4.1 3.8 0 0.8-0.8 0.4-0.8 0.9 -0.7 5-5.3 13.4-11.2 13.4 -2.2 0-4.3-3-4.3-5.4 0-7.6 6.1-11.8 8-11.8C-131.3-223-129.5-221.6-129.5-220.8zM-106.1-235.5c-1.4 2.6-5.2 7.2-7.1 8.7 -2.3 3.5-4.8 11.4-5.3 13.6 -0.5 2.3-0.2 3.6 0.5 3.7 3.6-3.1 7.6-10.1 15.7-15.3 1.2 0.1 2.4 1.1 2.6 1.7s0 1.2-0.7 1.8c-2.6 3.9-7.5 7.1-7.5 8.9 0 0.8 2.3 5.1 6.1 4.9 4.2-0.7 8.5-5.3 8.8-6 0.4-1.6 1.7-0.3 0.9 0.9 -2 2.9-6.6 6.5-10.2 6.9 -3.6 0.4-8.8-4-9.6-8.3 -1.9 2.4-3.2 4.6-4.8 6.6 -1 1.2-3 1-3.8 0.2 0-0.9-0.3-0.9-0.3-1.3 -0.3-6.2 5.9-19.8 12.4-30.5C-106.4-239.7-105.2-237.3-106.1-235.5zM-110.7-215.7c0.4 0.2 0.7 0.7 1.4 0.2 0.8-0.5 3.9-3.7 4.6-4.9 0.3-0.6 0.1-1-0.6-0.4C-107.5-218.9-109.3-217.2-110.7-215.7zM-91.1-213.4c-0.7 0.4-0.8 0.8-0.8 1.5 0.1 2.4 1.2 3.6 2.9 3.6 2.3 0 5.5-2.4 7.7-6.2 0.40 0.9 0.1 0.7 0.9 -0.7 2.4-4.1 6.5-8.4 7.2 -3.6 0.6-5.6-2.8-5.4-6 0.4-4.8 3.3-10.6 7.9-12.2 0.9-0.3 1.1-0.1 1.3 0 1.1 0.6 3.5 1 3.6 2.9 0 0.9-0.4 1.5-0.8 1.9 -0.1 0.1-0.8 0.1-1.1 0.5C-85.3-217.5-88-215.4-91.1-213.4zM-91.5-215.9c-0.3 0.90 1.1 0.7 0.5 3.4-2.4 6.4-4.7 6.4-6 0-0.5-0.5-1.2-0.9-1.2C-87.5-222.7-90.2-219.5-91.5-215.9zM-52.1-237.7c0.9 0.3 1 2.3-0.2 2.9 -1.2 2.5-2.2 6.4-3.6 6.4 -2 4.9-3.8 11.7-4.3 16.9 -0.1 1.8-0.2 4.1 1.9 3.6 3-0.8 9.2-6.7 12.5-10.8 0.6-0.2 0.8 0.5 0.2 1.4 -2.6 4-9.6 10.8-12.6 11.4 -4.7 1-4.5-3.5-4.1-5.1 -0.1-5.8 5.8-21.6 8.3-26.9C-53.6-238.1-52.5-238.2-52.1-237.7zM-41.5-220.8c-0.3 1.1-1.8 2.6-2.2 3 -1.1 1.4-2.4 6.1-2.6 8.4 0 0.9 0.4 0.9 1.6 0.4 2.4-0.9 7.3-5.4 9-9 -0.1-0.5 0.2-1.2 0.7-1.3 0.30 1.1 0 1.6 0.1 0.3 0.1 0.9 1.5 0.8 2.4 0 0.2-0.5 0.3-0.8 0.5 -0.3 1.5-1.2 7.7 0 8.2 1.9 0.9 11.9-7 14.4-10.1 0.5 0.1 0.5 0.7 0 1.2 -4.5 5.4-12.5 11-14.5 10.9 -0.3-0.2-0.60-0.9-0.2 -2.9-1.7-2.4-5.8-1.8-8.1 0.1-0.3 0-0.4-0.2-0.1 -2.4 3.1-6.2 7.3-8 8.2 -1.1 0.5-1.5 0.6-1.9 0.3s-0.8 0.6-1.6 0.3 -1.7-1.3-1.2-3.4c0-2.7 3.3-10.7 4.5-14.5C-42.5-224.5-41.2-221.5-41.5-220.8zM-2.1-225.1c0 0.2 0 1.5-0.4 1.6 -2.6 0.3-5.4 2.2-6.4 2.7 -0.4 0.2-0.1-0.2-0.70 -0.7 0.1-2.6 2.4-4.7 5.4 1.4 2 3.1 3.8 4.9 4 2.3 0.2 3.2-0.4 4.1-0.9 0.3-0.2 0.8 0.4 0.5 0.7 -0.2 0.2-0.6 0.2-0.6 0.6 0 0.7-1.6 1.4-2.7 1.5 -3.5 0.1-5.6-1.6-7.5-3.9 -1.5 2.3-2.9 4.6-3.8 6.2 -0.1 0.8 0.1 1.30 2.5 -0.1 0.2-0.9 0.7-1.4 0.7 -0.3 0.3-0.6 0.4-1.2 0.4 -0.7 0.1-1.2-1.1-1.2-1.6 2.4-3.4 4.5-6.8 6.4-9.7 -1-1.3-2.1-2.6-3.3-3.9 -1.1-1-0.8-2.40-2.4s1.3 0.1 1.3 0.5c1 0.1 2.2 1.8 3.5 3.7 3.5-5.1 6.5-8.6 9.7-8.6 0.6 0 0.9 0.7 1.2 0.5C-4-225.3-2.2-225.3-2.1-225.1zM7.5-220.8c-0.3 1.1-1.8 2.6-2.2 3 -1.1 1.4-2.4 6.1-2.6 8.4 0 0.9 0.4 0.9 1.6 0.4 2.4-0.9 7.3-5.4 9-9 -0.1-0.5 0.2-1.2 0.7-1.3 0.30 1.1 0 1.6 0.1 0.3 0.1 0.9 1.5 0.8 2.4 0 0.2-0.5 0.3-0.8 0.5 -0.3 1.5-1.2 7.7 0 8.2 1.9 0.9 11.9-7 14.4-10.1 0.5 0.1 0.5 0.7 0 1.2 -4.5 5.4-12.5 11-14.5 10.9 -0.3-0.2-0.60-0.9-0.2 -2.9-1.7-2.4-5.8-1.8-8.1 0.1-0.3 0-0.4-0.2-0.1 -2.4 3.1-6.2 7.3-8 8.2 -1.1 0.5-1.5 0.6-1.9 0.3S2-205.2 1.1-205.5s-1.7-1.3-1.2-3.4c0-2.7 3.3-10.7 4.5-14.5C6.4-224.5 7.7-221.5 7.5-220.8zM29.6-224.2c0-0.3 0.8-0.7 1.2-0.7 0.5 0 2 0.8 2.2 1.3 0.5 1.1-1.5 5.3-2.5 8.5 -0.1 0.5 0.1 0.5 0.4 0.2 1.7-2.1 9.3-8.4 11.6-8.4 0.9 0 2.7 1.9 2.7 3.3 0 1.3-1.2 2.2-2.2 2 -0.8-0.1-1.2-2-1.8-2.1 -2.9 0.4-8.4 5.3-11.4 8.8 -0.5 0.9-1.1 3.5-1.7 4.4 -0.6-0.1-1.1 0.6-1.4 0.5 -0.30-1.4-1-1.2-1.7 1.5-3.6 4.2-10.3 4.5-15.1C29.7-223.2 29.6-223.9 29.6-224.2zM52.1-223.7c0.5 0.1 1.5 0.6 1.1 1.4 -1.4 2.6-4.3 7.2-5.1 11.6 -0.3 1.6 0.3 1.2 0.9 0.7 0.5-0.7 8.6-10 10.4-10 2 0 3.1 5.5 2.7 11.1 1-0.7 1.9-1.1 2.8-1.1 1.2 0 2.2 1 2.4 2.2 0.1 0.9-0.3 1.6-0.9 1.8 -0.6 0.2-1-0.2-1.9-0.8 -0.7 0-1.7 0.6-2.8 1.4 -1.2 5.9-4 14.2-6.7 16.7 -0.8 0.8-1.9-0.4-2.2-1.7 -0.9-4.4 2.9-12.3 7-16.7 0.4-3.4 0.4-6.6-0.2-9.4 -0.2-0.8-0.6-1.2-1.6-0.5 -5.4 3.8-8.2 11.5-10.9 11.8 -1.1 0.1-2.1-1-2.1-2.3 0-0.3 0.2-0.7 0.3-1.1 0.4-4.5 2.7-10 5.2-15C50.7-223.7 51.5-223.8 52.1-223.7zM59-202.8c-2.2 2.6-4.2 6.2-4.3 10.1 0 0.9 0.2 1.1 0.6 0.2C56.9-195.5 58.2-199.1 59-202.8zM87.1-212.1c-0.7 3.8 0.7 5.2 3.8 4.1 4.4-1.5 10.1-5.6 14.1-8.4 0.5-0.2 0.3 0.6-0.1 1 -3.1 2.7-10.3 8.2-14.3 9.2 -0.5 0.1 0.1 0.3-0.2 0.4 -4.3 1.3-6.8-2.2-6-6.4 1-5.7 5-8.6 5.5-8.9s0-0.6 0.4-0.9c2.3-1.5 4.3-1.7 4.9-0.9 0.2 0.2 0.4-0.3 0.7-0.1 0.8 0.5 1.8 1.5 1.8 2.4 0 1-0.8 1.8-1.6 1.8 -0.9 0-1.7-0.3-2-1.3C91.9-220.6 87.8-216.1 87.1-212.1zM113.2-222.4c0 0.8-0.7 1.7-1 1.7 -0.9 0-1.2-1.2-1.7-1.2 -1.5 0-6.5 7.3-6.5 11.5 0 0.8 0.1 2 0.5 2 0.4 0 1.4-1.5 1.9-1.7 0.30 3.1-4.2 4-6.6 0-1.8 0.5-2.6 1.2-2.6 1 0 2.3 0.6 2.3 0.9 0 0.4 0.4 0.8 0.4 1 0 0.2 0 1 0.1 1.3 0.2 2 1.2 8 4.1 8 1.3 0 2.3-0.4 2.6-0.5 0.30 0.8 0.4 0.8 0.9 0 0.2-1.1 1-3.4 1 -1.4 0-2.6-0.3-3.2-1.2 -1.5-0.6-3-4-3.3-6.1 0-0.4-0.4-0.6-0.8-0.1 -1 1.3-2.1 3.7-3.3 4.9 -1.2 1.9-2.7 2.9-4.3 2.9 -1.5 0-2.5-1-2.5-3.6 0-4.4 5-14.3 9.6-14.3C112-224.3 113.2-223.1 113.2-222.4zM130.7-224.4c0.2 0 0.5 1.2 0.4 1.7 -0.1 0.4-0.1 0-0.5 0.4 -1.2 2.8-4.8 11.2-4.2 12.2 2.2-2.3 7.1-9.7 12.4-13.2 0.4-0.3 0.9-0.4 1.6-0.5 1.8-0.4 2.4 2 1.1 4.9 -0.1 0.3-0.7 0.5-0.5 0.9 -0.4 2-2 5.4-1.9 7.9 0 1.1 0.4 1.5 1.4 1.1 3.7-1.6 9.5-6.9 12.6-10.4 0.3 0.1 0.8 0.8 0.4 1.2 -3.6 4.5-9.5 9.6-12.9 11.2 -2.8 1.3-4.5 0.2-4.6-1.8 0-0.7 0.3-0.4 0.3-0.9 -0.5-2 2.2-7.2 2.8-10.9 0.1-0.7-0.4-0.5-1.10 -5 3.2-8.6 9.6-11.4 14.1 -0.3 0.5-2.7 0.8-2.8-0.3 -0.6-0.3-0.7-2.2-0.4-3.5 0.9-4 3.1-10.2 5.1-13.9C129.2-224.5 130.4-224.5 130.7-224.4zM169.2-228.9c1.4-3.8 2.8-7.2 3.5-8.8 1.1-2.3 1.9-4.8 2.8-4.8 1.1 0 1.4 0.6 1.4 1.7 0.2 0 0.6 0.3 0 2 -0.9 2.4-3.2 7.5-6.6 11.6 -1.1 3.1-2.5 7.8-3 12.7 -0.7 6 1.7 7.7 5.2 5.8 3.8-2.1 11.5-13.2 13.5-17.4 0.2-0.1 0.5-0.1 0.70 0.3 0.1 0.8 0.8 0.4 1.3 -3.2 4.9-9 14.5-13.4 17.4 -4.3 2.9-8.7 2.2-8.4-6 0.1-2.9 1.1-6.8 2.3-10.5 -1.2 1.6-2.4 3.1-3.7 4.7 0.4 0.8 0.5 1.5 0.4 2.2 0 0.3 0.3-0.2 0.3 0.6 0.1 1.9-1.8 3-2.7 2.6 -0.5-0.2-0.6-0.6-0.6-1.2 0.2-0.6 0.4-1.2 0.5-1.8 -1.8 2.1-3.6 4-5.3 5.8 -0.9 1.8-2.4 3-4 3.6 -3.9 1.7-4.5-2.6-3.2-5.6 3-6.6 7.5-9 10-9 1.6 0 2.9 0.6 3.7 1.3C165.4-223.7 167.6-226.5 169.2-228.9zM161.4-219c-0.4-0.8-1.1-1.2-2-1.2 -3.3 0-7 5.1-8 7.2 -2.1 4.9 0.4 3.9 3.9 0.5C157.5-214.8 159.6-217 161.4-219zM186.2-219.7c-1 1.5-1.2 2.5-1.2 3.9 0 3.7 0.9 7.6 4.3 7.6 1.6 0 4.1-0.9 6.7-2.4 0-0.50-1 0-1.4 0.4-4.8 4.1-9.8 8.6-12.7 0.8-0.5 1.1-0.1 1.3 0 0.2 0.1 0.4-0.3 0.8-0.3 1 0 2.5 2.7 2.6 4.3 0 0.9-0.3 1.4-0.8 1.8 -0.1 0.1 0 0.6-0.3 1 -1 1.2-4.9 4.7-9.4 7.5 0.4 2.2 2.3 2.1 5.9 0.9 4.1-1.3 9.5-4.8 13.8-9.5 0.40 1.4 0 0.7 0.9 -2.5 3-10.3 10.8-17.9 11.4 -2.8 1-4.3-0.5-4.9-2.2 -2.9 1.6-5.8 2.7-8.1 2.7 -2.4 0-5.7-1.9-5.7-9.3 0-8.9 5.6-22.5 9.9-27.6 0.5-1.8 1.6-2.5 2.5-2.5 0.6 0 1.5 1.4 1.5 2.3s-0.9 2.5-1.9 3.8C192.8-233.2 190.2-225.9 186.2-219.7zM186.4-225.4c-0.4 1.6-0.2 2.3 0.8 0.4 2.3-4.3 3.6-8.4 4.4-10.9 0.2-0.7 0.4-1.5 0.1-1.5 -0.2 0-1 1.3-1.2 1.8 -0.2 0.4-0.2 0.1-0.5 0.7C188.6-232.4 187.3-229 186.4-225.4zM199-214c-0.4 1.50 1.7 1.2 0.8 3.8-2.6 7-5.8 7.1-7.9 0-0.5-1.4-1.3-1.8-1.3C203.6-222.4 200.1-218.3 199-214zM220.7-208.4c2.3 0 3.4-0.6 3.6-0.9 0.3-0.4 0.2-0.8-0.4-1.3 -1.8-1.5-4.6-3.3-7-5.8 -1.5-0.2-1.8-3.6-0.6-4.4 3.4-2.1 8.1-5 11.3-5 0.3 0 0.7 0.1 0.9 0.3 0.7 0.6 1.1 2 1.1 2.6s-0.2 0.9-0.7 0.6c-2.2-0.2-7.9 2.4-10 4 -0.5 2.7 5.4 4.9 7.6 7.3 1.5 1.7 1.2 3.2-0.1 3.8 -4 2-10.9-0.4-13.7-2.7 -0.7-0.5-0.1-0.8 0.2-0.6C214.9-209.2 218.4-208.4 220.7-208.4zM256.2-234.1c-2.3 0-4.4 1.4-4.4 3.7 -0.5 3.3 2.2 5.2 3.7 5.2 1 0 2.8-0.2 3.1-0.4 0.5 0.6 0.7 1.2 0.7 1.7 0 0.5-0.5 0.8-1.7 1 -1.3 0.1-3.6-0.4-4.2-0.3 -3.6 0.6-7.4 2.4-7.9 9 0.6 5.8 5.6 7.1 10.7 7.1 3.2 0 6.8-1.7 8.1-3.7 0.8-3.1-0.4-5.8-2.9-5.7 -3.2 1.3-6.3 2.7-7.6 2.9 -0.7 0.1-2.2-0.6-2.4-1 -0.2-0.5-0.1-1.2 1.8-1.7 4.1 0.2 12.2-4.6 17.2-4.6 2.5 0 2.1 2.4 0.8 2.5 -1.1-0.9-3.7-0.4-6.7 0.6 1.5 1.2 2.3 2.9 2.3 4.1 0 6.2-6.8 8.4-12.3 8.5 -4.1 0-11-2.1-11.5-8.2 -1.1-5.3 2.5-10.4 9.3-11.4 0.30 0.3-0.2 0-0.4 -1.4-0.8-3-2.3-2.7-5.5 1.2-3.6 2.7-5.4 7-5.4 4 0 7.2 1.9 7.7 3.6s-0.6 2.4-1.5 2.2C262.1-231.6 258.8-234.1 256.2-234.1zM300.9-228.9c1.4-3.8 2.8-7.2 3.5-8.8 1.1-2.3 1.9-4.8 2.8-4.8 1.1 0 1.4 0.6 1.4 1.7 0.2 0 0.6 0.3 0 2 -0.9 2.4-3.2 7.5-6.6 11.6 -1.1 3.1-2.5 7.8-3 12.7 -0.7 6 1.5 8 5.1 6.3 3.1-1.4 6.2-5.2 6.2-5.5 0.2-0.1 0.5-0.1 0.70 0.3 0.1 0.8 0.8 0.4 1.3 -1.2 1.4-3.9 4-6.7 5.7 -4.1 2.4-8 0.8-7.7-6.7 0.1-2.9 1.1-6.8 2.3-10.5 -1.2 1.6-2.4 3.1-3.7 4.7 0.4 0.8 0.5 1.5 0.4 2.2 0 0.3 0.3-0.2 0.3 0.6 0.1 1.9-1.8 3-2.7 2.6 -0.5-0.2-0.6-0.6-0.6-1.2 0.2-0.6 0.4-1.2 0.5-1.8 -1.8 2.1-3.6 4-5.3 5.8 -0.9 1.8-2.4 3-4 3.6 -3.9 1.7-4.5-2.6-3.2-5.6 3-6.6 7.5-9 10-9 1.6 0 2.9 0.6 3.7 1.3C297.2-223.7 299.3-226.5 300.9-228.9zM293.1-219c-0.4-0.8-1.1-1.2-2-1.2 -3.3 0-7 5.1-8 7.2 -2.1 4.9 0.4 3.9 3.9 0.5C289.2-214.8 291.3-217 293.1-219zM324.7-218.7c1.3-1.8 2.5-3.6 3.5-5.3 1-4.6 2.4-7.9 3-9.7 0.2-0.7 1.9-4.2 2.2-4.6s0-0.7 0.3-1.2 2.1-1.9 2.4-1.9c1.8-0.3 3 2.2 3 5.4 0 4-0.1 6.2-1.3 6.1 -0.2-0.9-0.4-6.9-2.1-6.9 -1.1 0-2.4 2.7-2.4 3.3 0 0.6-0.3 0.2-0.6 0.7 -1.7 2.9-3.1 8.5-3.8 13.7 3.1-0.2 6.4-0.6 9.6-1 1.2-5 2.8-8.9 3.5-10.6 0.2-0.6 1.9-4 2.1-4.3 0.3-0.30-0.6 0.3-1 0.3-0.4 1.4-1.3 1.7-1.4 1.7-0.3 3.5 1.2 3.5 2.2 0 2.2-0.5 4.4-1.5 4.6 0-1-0.6-2.1-1.6-2.1 -1 0-1.4 1.3-1.8 2 -0.2 0.4-0.7 0.2-0.9 0.6 -1.2 2.2-2.5 5.8-3.5 9.8 4.1-0.5 8-1.1 11.4-1.5 0.8-0.1 0.7-0.6 1.4-0.6s2.8 0.2 2.8 1.1c0 1.1-1 1.2-2.6 1.5 -0.5 0.1-0.5-0.3-1.2-0.2l-12.2 1.5c-0.7 3.3-1.1 6.7-1.1 9.6 0 0.8-0.3 1-0.3 1.2 0 0.2 0.2 0.4 0.2 0.8 0 3.2 0.1 6.7 1.3 10.4 0.4 1.3 1.6 1.9 1.6 2.4 0 0.5-1.2 1.6-1.6 1.6 -0.4 0-0.6-0.3-0.8-0.5 -1.6-1.4-2.4-1.8-4.3-3.3 -0.5-0.4-0.2-0.9 0.3-0.9 0.7 0.6 1.2 1 2.4 1.6 0.60 0.5-0.8 0.5-1.1 -0.8-3.1-1.2-5.8-1.2-11.6 0-3.6 0.4-7.1 1.1-10.2l-9.4 1.1c-0.2 1.8-0.3 3.4-0.3 4.8 0 0.9-0.3 1.2-0.3 1.4s0.2 0.5 0.2 1c0 3.6 0.5 11.2 1.1 16.4 0 0.6 1 1.9 1 2.5s-1.9 1.6-2.4 1.6c-0.5 0-0.6-0.5-0.9-0.6 -3.1-0.5-6.5-7.1-6.5-10.3 0-0.5 0.1-0.8 0.1-1 0-0.1-0.2-0.3-0.2-0.5 -0.1-1.2 0-6.5 0.4-8.4 0.1-0.5 0.2-0.8 0.5-0.8 0.3 0 0.5 0.4 0.5 0.7 -0.2 1.8-0.3 5.5-0.3 6.5 0 2.5 1.8 10.8 6.3 11.8 -0.6-6.2-1.1-11.7-1.1-18.8 0-2.2 0.1-4.2 0.3-6.1l-2.4 0.2c-4.1 5.6-9.6 11.5-11.7 11.5 -1.7 0.8-3.5-0.6-3.1-2.3 -0.8-2.8 4.5-14.1 3.3-16.7 0.7-0.7 1.7-0.6 2-0.3 0.3 0.3-0.1 0.7 0.1 0.9 0.7 0.5 1.1 1.3 1.2 2.2 0.3 0.9-2.9 7.8-3.9 11.6 -0.5 1.8-0.3 2.4 1 2.1 2.6-1.2 6.3-4.8 9.6-9h0c-2 0.2-2.6-0.5-2.6-1 0-1 0.9-1.1 1.2-1.1C322.5-218.6 323.6-218.6 324.7-218.7zM316.4-235.1c0-0.9 2.8-1.2 3.3-1.3 0.3 0.3 0.7 0.7 0.7 1s-0.3 2.4-0.9 2.5C318.1-232.6 316.4-233.8 316.4-235.1zM327.5-221.2c-0.4 0.8-1 1.6-1.5 2.4 0.4 0 0.80 1.2-0.1L327.5-221.2zM357.3-220.8c-0.3 1.1-1.8 2.6-2.2 3 -1.1 1.4-2.4 6.1-2.6 8.4 0 0.9 0.4 0.9 1.6 0.4 2.4-0.9 7.3-5.4 9-9 -0.1-0.5 0.2-1.2 0.7-1.3 0.30 1.1 0 1.6 0.1 0.3 0.1 0.9 1.5 0.8 2.4 0 0.2-0.5 0.3-0.8 0.5 -0.3 1.5-1.2 7.7 0 8.2 1.9 0.9 11.9-7 14.4-10.1 0.5 0.1 0.5 0.7 0 1.2 -4.5 5.4-12.5 11-14.5 10.9 -0.3-0.2-0.60-0.9-0.2 -2.9-1.7-2.4-5.8-1.8-8.1 0.1-0.3 0-0.4-0.2-0.1 -2.4 3.1-6.2 7.3-8 8.2 -1.1 0.5-1.5 0.6-1.9 0.3 -0.3-0.2-0.8 0.6-1.6 0.3 -0.9-0.3-1.7-1.3-1.2-3.4 0-2.7 3.3-10.7 4.5-14.5C356.3-224.5 357.6-221.5 357.3-220.8zM382.3-208.4c2.3 0 3.4-0.6 3.6-0.9 0.3-0.4 0.2-0.8-0.4-1.3 -1.8-1.5-4.6-3.3-7-5.8 -1.5-0.2-1.8-3.6-0.6-4.4 3.4-2.1 8.1-5 11.3-5 0.3 0 0.7 0.1 0.9 0.3 0.7 0.6 1.1 2 1.1 2.6s-0.2 0.9-0.7 0.6c-2.2-0.2-7.9 2.4-10 4 -0.5 2.7 5.4 4.9 7.6 7.3 1.5 1.7 1.2 3.2-0.1 3.8 -4 2-10.9-0.4-13.7-2.7 -0.7-0.5-0.1-0.8 0.2-0.6C376.6-209.2 380-208.4 382.3-208.4zM416.9-218c-2.5 3-10.3 10.8-17.9 11.4 -4.5 1.5-5.5-3-5.3-5.4 0.4-4.8 4.1-9.8 8.6-12.7 0.8-0.5 1.1-0.1 1.3 0 0.2 0.1 0.4-0.3 0.8-0.3 1 0 2.5 2.7 2.6 4.3 0 0.9-0.3 1.4-0.8 1.8 -0.1 0.1 0 0.6-0.3 1 -1.7 2.1-4.8 4.7-9.4 7.2 0.3 2.5 2.2 2.4 5.9 1.2 4.1-1.3 9.5-4.8 13.8-9.5C416.6-219 417.6-218.9 416.9-218zM396.5-212.6c3-1.4 8.4-5.5 8.5-8.4 0-0.5-1.4-1.3-1.8-1.3C401.1-222.4 397.1-217.5 396.5-212.6zM416.4-224.2c0-0.3 0.8-0.7 1.2-0.7s2 0.8 2.2 1.3c0.5 1.1-1.5 5.3-2.5 8.5 -0.1 0.5 0.1 0.5 0.4 0.2 1.7-2.1 9.3-8.4 11.6-8.4 0.9 0 2.7 1.9 2.7 3.3 0 1.3-1.2 2.2-2.2 2 -0.8-0.1-1.2-2-1.8-2.1 -2.9 0.4-8.4 5.3-11.4 8.8 -0.5 0.9-1.1 3.5-1.7 4.4 -0.6-0.1-1.1 0.6-1.4 0.5 -0.30-1.4-1-1.1-1.7 1.5-3.6 4.2-10.3 4.5-15.1C416.6-223.2 416.4-223.9 416.4-224.2zM440-208.4c2.3 0 3.4-0.6 3.6-0.9 0.3-0.4 0.2-0.8-0.4-1.3 -1.8-1.5-4.6-3.3-7-5.8 -1.5-0.2-1.8-3.6-0.6-4.4 3.4-2.1 8.1-5 11.3-5 0.3 0 0.7 0.1 0.9 0.3 0.7 0.6 1.1 2 1.1 2.6s-0.2 0.9-0.7 0.6c-2.2-0.2-7.9 2.4-10 4 -0.5 2.7 5.4 4.9 7.6 7.3 1.5 1.7 1.2 3.2-0.1 3.8 -4 2-10.9-0.4-13.7-2.7 -0.7-0.5-0.1-0.8 0.2-0.6C434.3-209.2 437.7-208.4 440-208.4zM473.6-235.8c0.4 0 2.2 1 2.2 1.7 -0.1 1.7-1.6 4.5-2.3 6.5 -0.2 0.8-0.5 0.5-1.1 0.4 -1.3 3-3.3 10.8-4.2 15.7 -0.1 0.7 0.5 1 0.8 0.6 3.6-4.5 10.3-11.6 10.9-11.6s1.7 0.5 2 0.8c0.5 0.7 0.2 2 0.7 2.7 0.4 1.2-1.9 8.6-1.2 10.4 3.6-2 9-7.3 12.2-10.9 0.6-0.2 1.4 0.8 0.5 1.5 -3.9 3.6-10.6 12.2-14 12.3 -0.5 0-1.4-1.2-1.1-2.9 -1-1.7 1.5-9.1 0.6-10.8 -2.4 0.6-6.4 5.7-8.7 8.8 -0.3 1.9-1 2.7-1.7 3.4 -0.4 0.4-0.8 0.5-1.2 0.5s-1 1-1.3 1 -0.8-0.5-1-1.1c-0.1-0.3 0-0.6 0.1-1.2 1.5-12.7 6.3-21.1 6.5-27.3C472.6-235.5 473.2-235.8 473.6-235.8zM502-222.4c0 0.8-0.7 1.7-1 1.7 -0.9 0-1.2-1.2-1.7-1.2 -1.5 0-6.5 7.3-6.5 11.5 0 0.8 0.1 2 0.5 2 0.4 0 1.4-1.5 1.9-1.7 0.30 3.1-4.2 4-6.6 0-1.8 0.5-2.6 1.2-2.6 1 0 2.3 0.6 2.3 0.9 0 0.4 0.4 0.8 0.4 1 0 0.2 0 1 0.1 1.3 0.2 2 1.2 8 4.1 8 1.3 0 2.3-0.4 2.6-0.5 0.30 0.8 0.4 0.8 0.9 0 0.2-1.1 1-3.4 1 -1.4 0-2.6-0.3-3.2-1.2 -1.5-0.6-3-4-3.3-6.1 0-0.4-0.4-0.6-0.8-0.1 -1 1.3-2.1 3.7-3.3 4.9 -1.2 1.9-2.7 2.9-4.3 2.9 -1.5 0-2.5-1-2.5-3.6 0-4.4 5-14.3 9.6-14.3C500.8-224.3 502-223.1 502-222.4zM519.5-224.4c0.2 0 0.5 1.2 0.4 1.7 -0.1 0.4-0.1 0-0.5 0.4 -1.2 2.8-4.8 11.2-4.2 12.2 2.2-2.3 7.1-9.7 12.4-13.2 0.4-0.3 0.9-0.4 1.6-0.5 1.8-0.4 2.4 2 1.1 4.9 -0.1 0.3-0.7 0.5-0.5 0.9 -0.4 2-2 5.4-1.9 7.9 0 1.1 0.4 1.5 1.4 1.1 3.7-1.6 9.5-6.9 12.6-10.4 0.3 0.1 0.8 0.8 0.4 1.2 -3.6 4.5-9.5 9.6-12.9 11.2 -2.8 1.3-4.5 0.2-4.6-1.8 0-0.7 0.3-0.4 0.3-0.9 -0.5-2 2.2-7.2 2.8-10.9 0.1-0.7-0.4-0.5-1.10 -5 3.2-8.6 9.6-11.4 14.1 -0.3 0.5-2.7 0.8-2.8-0.3 -0.6-0.3-0.7-2.2-0.4-3.5 0.9-4 3.1-10.2 5.1-13.9C518-224.5 519.1-224.5 519.5-224.4zM559.8-208.2c-5.2 5.2-8.3 2.3-8.2-2.3 -0.2-1.80-3.8 0.4-5.9 0.3-1.4-0.3-1.1-0.8-0.5 -2 2.6-4 5.2-6.2 7.6 -0.9 1.8-2.3 3.4-3.9 3.4 -3.6 0-3.3-3.5-2.5-6.2 1.6-6.4 5.2-10 7.7-10 1.8 0 4.6 0.7 5.1 2.4 1.9-2.8 3.4-5.4 4.6-7.7 1.4-3.3 3-6.6 4.4-9.6 1-3 2.1-5.2 3-5.2 1.1 0 1.7 1.8 1.4 3 -2.6 5.1-3.6 6.5-4.7 8 -2.8 5.7-6 12.8-6.7 17.8 -0.8 4.9 1.4 8.1 6 4.3C560-209.5 560.5-208.9 559.8-208.2zM549.4-216.7c0.8-1.2 0.6-1.5 0.1-1.9 -0.8-0.7-2-1.1-3.2-1.1 -1.7 0-4.1 2.9-5.5 8.3 -1 3.6-0.2 4.4 3.3 0.9C546.1-212.6 547.9-214.7 549.4-216.7zM605.1-221.8c1.3-0.6 2.5 0 2.6 0.6 0.1 0.70 1.1-1.5 1.5 -4.5 1.2-10.8 5.7-14.2 8.2 -0.7 2.2-1.4 4.2-2.2 5 -0.5 0.5-1.6 0.5-2.4 0.4 -0.1 0.1-0.2 0.2-0.3 0.3 -1.3 0.5-2-0.9-1.3-1.8 0.8-1 1.9-2.1 3.3-3.4 0.4-1.2 2.1-7.2 2.1-9.9 0-1.5-0.5-1.6-1.9-0.4 -3.4 2.9-12.6 19-15.6 29.3 -0.2 0.60 1.3-0.1 1.9 -0.2 1.2-1.3 2.1-2.3 2.3 -0.6 0.1-2-0.6-1.5-1.8 3.6-9.6 7.3-22.5 9.9-33.2 0.1-0.6 0.9-0.3 1.3-0.2 0.5 0 2.1 0.8 1.6 2.5 -0.3 1.7-5 12.7-5.5 14.1 -0.4 1.3 0.1 0.9 0.6 0 2.5-4.5 9.6-18.9 14-18.5 0.6 0 2.2 1.7 2.3 4 0 1.1-0.5 4-1.2 6.9C596.4-216.7 600.8-219.6 605.1-221.8zM606.9-224.4c0.3-1.5 2.5-1.9 3.1-0.8 0.2 0.4 0.3 0.7 0.5 1 1.1 0.8 2.3 2.2 3.2 3.2 2.9 1.7 6.8 1.5 11.30 0.3-0.9 0.6-1.7 0.8-2.4 2-1.1 3.3 1.9 3.1 2.6 -0.3 1.1-1.1 0.8-1.5 1.2 -1.1 1.4-3.1 7.9-3.2 10.2 0 0.9 0.4 0.9 1.6 0.4 2.4-0.9 7.3-5.4 9-9 -0.1-0.5 0.2-1.2 0.7-1.3 0.30 1.1 0 1.6 0.1 0.3 0.1 0.9 1.5 0.8 2.4 0 0.2-0.5 0.3-0.8 0.5 -0.3 1.5-1.2 7.7 0 8.2 1.9 0.9 11.9-7 14.4-10.1 0.5 0.1 0.5 0.7 0 1.2 -4.5 5.4-12.5 11-14.5 10.9 -0.3-0.2-0.60-0.9-0.2 -2.9-1.7-2.4-5.8-1.8-8.1 0.1-0.3 0-0.4-0.2-0.1 -2.4 3.1-6.2 7.3-8 8.2 -1.1 0.5-1.5 0.6-1.9 0.3s-0.8 0.6-1.6 0.3c-0.9-0.3-1.7-1.3-1.2-3.4 0-1.9 1.6-6.3 3-10.1 -2.6 0.8-5 1.1-7.2 1 0.2 0.5 0.3 1 0.2 1.5 -0.3 1.5-5.9 7.2-8.4 9.1 -1.6 1.2-3.3 1.6-4.8 1.2 -3.3-1-3.1-4.5-2.6-6.6 0.5-2.5 2.8-5.7 2.8-10.4C604.2-224 605.9-224.3 606.9-224.4zM608.2-221.4c0 0.4-0.1 0.7-0.2 1 -0.5 1.3-5.7 7.4-3.9 11.9 0.6 1.6 2.7 0.2 4.3-1.1 0.9-0.8 4.4-3.8 5.7-6.6 0.3-0.7 0.3-1.5 0.1-2.3C611.8-219 609.8-220 608.2-221.4zM650.9-224.2c0-0.3 0.8-0.7 1.2-0.7 0.5 0 2 0.8 2.2 1.3 0.5 1.1-1.5 5.3-2.5 8.5 -0.1 0.5 0.1 0.5 0.4 0.2 1.7-2.1 9.3-8.4 11.6-8.4 0.9 0 2.7 1.9 2.7 3.3 0 1.3-1.1 2.2-2.2 2 -0.8-0.1-1.1-2-1.8-2.1 -2.9 0.4-8.4 5.3-11.4 8.8 -0.5 0.9-1.1 3.5-1.7 4.4 -0.6-0.1-1.1 0.6-1.4 0.5 -0.30-1.4-1-1.1-1.7 1.5-3.6 4.2-10.3 4.5-15.1C651-223.2 650.9-223.9 650.9-224.2zM689.2-218c-2.5 3-10.3 10.8-17.9 11.4 -4.5 1.5-5.5-3-5.3-5.4 0.4-4.8 4.1-9.8 8.6-12.7 0.8-0.5 1.1-0.1 1.3 0 0.2 0.1 0.4-0.3 0.8-0.3 1 0 2.5 2.7 2.6 4.3 0 0.9-0.3 1.4-0.8 1.8 -0.1 0.1 0 0.6-0.3 1 -1.7 2.1-4.8 4.7-9.4 7.2 0.3 2.5 2.2 2.4 5.9 1.2 4.1-1.3 9.5-4.8 13.8-9.5C688.9-219 689.9-218.9 689.2-218zM668.8-212.6c3-1.4 8.4-5.5 8.5-8.4 0-0.5-1.4-1.3-1.8-1.3C673.4-222.4 669.4-217.5 668.8-212.6zM706.1-208.2c-5.2 5.2-8.3 2.3-8.2-2.3 -0.2-1.80-3.8 0.4-5.9 0.3-1.4-0.3-1.1-0.8-0.5 -2 2.6-4 5.2-6.2 7.6 -0.9 1.8-2.3 3.4-3.9 3.4 -3.6 0-3.3-3.5-2.5-6.2 1.6-6.4 5.2-10 7.7-10 1.8 0 4.6 0.7 5.1 2.4 1.9-2.8 3.4-5.4 4.6-7.7 1.4-3.3 3-6.6 4.4-9.6 1-3 2.1-5.2 3-5.2 1.1 0 1.7 1.8 1.4 3 -2.6 5.1-3.6 6.5-4.7 8 -2.8 5.7-6 12.8-6.7 17.8 -0.8 4.9 1.4 8.1 6 4.3C706.3-209.5 706.8-208.9 706.1-208.2zM695.7-216.7c0.8-1.2 0.6-1.5 0.1-1.9 -0.8-0.7-2-1.1-3.2-1.1 -1.7 0-4.1 2.9-5.5 8.3 -1 3.6-0.2 4.4 3.3 0.9C692.4-212.6 694.2-214.7 695.7-216.7zM726.3-224.3c0.3 0.3-0.1 0.7 0.1 0.9 0.7 0.5 0.9 1.3 0.8 2.4 0.1 2.1-2.8 7.1-3.8 10.9 -0.5 1.8-0.2 2.9 1.1 2.5 4.3-2 10.7-7.2 13.9-10.8 0.6-0.2 0.9 0.5 0.2 1.4 -2.9 3.6-12.4 11.3-14.5 11.3 -1.7 0.8-3.5-0.6-3.1-2.3 -0.8-2.8 4.5-13.7 3.3-16.3C725.1-224.7 726-224.7 726.3-224.3zM727.8-235.1c0-0.9 2.8-1.2 3.3-1.3 0.3 0.3 0.7 0.7 0.7 1s-0.3 2.4-0.9 2.5C729.4-232.6 727.7-233.8 727.8-235.1zM743-224.4c0.2 0 0.5 1.2 0.4 1.7 -0.1 0.4-0.1 0-0.5 0.4 -1.3 3.2-4 10.1-4.2 12.2 2.2-2.3 7.3-9.6 12.4-13.2 0.4-0.3 1.1-0.7 1.8-0.7 1.6 0 2.1 2.3 1.8 4.7 0 0.4-0.5 0.9-0.3 1.3 -0.4 2-1.5 5-1.4 7.6 0 1.1 0.6 2.2 1.7 2.2 1.7 0 3.2-0.5 5.5-2.1 0.3 0.1 0.4 0.80 1.1 -1.6 1.2-3.2 2.4-4.6 2.5 -1.2 0.4-2.8 0.6-3.2-0.1 -0.9-0.2-1.7-2.3-1.8-2.8 -0.5-2 0.5-5.3 1.1-8.9 0.2-1.6-0.7-2.4-1.5-1.7 -4.7 3.6-8.1 9.6-11 13.7 -0.3 0.5-2.7 0.8-2.8-0.3 -0.6-0.3-0.7-2.2-0.4-3.5 0.9-4 3.1-10.2 5.1-13.9C741.5-224.5 742.6-224.5 743-224.4zM777.8-233.9c0.50 3.6-0.1 6-0.1 0.2-0.6 0.4-1.2 0.5-1.7 1.8-1.2 2.5 0.4 2.5 1.8 4.1 0.2 11.3 1 14.7 1.4 0.4 0 0.5 0.3 0.3 0.6 -0.1 0.2-0.4 0.8-1 0.8 -4-0.3-9.6-0.5-14.6-0.6 -0.7 1.3-2 2.9-2.6 4.1 -0.9 1.7-1.9 3.9-2.6 6.4 3.6 0.4 12-0.2 14.2-2.3 2-0.1 1.8 1.3 1.2 2 -1.5 1.6-11 3.2-15.8 2 -0.3 1.4-0.4 3-0.3 4.5 0.1 3.3 1.7 6.2 5.8 6.2 5.1 0 12.3-4.5 15.3-7.7 0.6 0 1 0.8 1 1.2 0 0.5-0.4 1.1-1 1.7 -3.8 3.8-10.4 7-15.9 7 -4.2 0-7.4-3-7.4-8.9 0-4.8 3-11.5 4.9-16.2 -2.5 0-4.8 0-6.5 0.1C776-232 775.7-233.8 777.8-233.9zM810.3-224.4c0.2 0 0.5 1.2 0.4 1.7 -0.1 0.4-0.1 0-0.5 0.4 -1.2 2.8-4.8 11.2-4.2 12.2 2.2-2.3 7.1-9.7 12.4-13.2 0.4-0.3 0.9-0.4 1.6-0.5 1.8-0.4 2.4 2 1.1 4.9 -0.1 0.3-0.7 0.5-0.5 0.9 -0.4 2-2 5.4-1.9 7.9 0 1.1 0.4 1.5 1.4 1.1 3.7-1.6 9.5-6.9 12.6-10.4 0.3 0.1 0.8 0.8 0.4 1.2 -3.6 4.5-9.5 9.6-12.9 11.2 -2.8 1.3-4.5 0.2-4.6-1.8 0-0.7 0.3-0.4 0.3-0.9 -0.5-2 2.2-7.2 2.8-10.9 0.1-0.7-0.4-0.5-1.10 -5 3.2-8.6 9.6-11.4 14.1 -0.3 0.5-2.7 0.8-2.8-0.3 -0.6-0.3-0.7-2.2-0.4-3.5 0.9-4 3.1-10.2 5.1-13.9C808.8-224.5 809.9-224.5 810.3-224.4zM828.3-189c2.1 0.5 4.5 0.5 7-2.2 5.1-5.5 7.2-18.3 7.8-27.2 0.1-1.5-0.3-1.5-1-0.2 -1.9 3.5-3 6.2-6.4 9.8 -0.6 0.5-0.7 0-1.2 0.5 -2.2 2-5.4-0.2-5.4-3.2 0-6.4 6.5-11 10.9-12.1 1-0.7 2.4-1.7 3.2-1.6 0.2 0 0.3 0.1 0.5 0.2 0.4-0.3 0.9-0.4 1.2-0.4 1 0 1.2 1.3 1.1 2.6 -0.9 13-2.9 25.3-9 32.3 -2.8 3.2-6.9 4-9.1 2.5 -0.9-0.6-0.2 0.2-1.3-0.2 -2.1-0.9-7.2-3.3-8-7.1C819.2-195.5 820.6-190.7 828.3-189zM831.7-210.8c0 1.2 1.3 1.4 2.6-0.2 2.1-1.5 4.2-5 6.1-8.8 0.5-0.9 0.2-1.2-0.5-1.2 -0.8 0.1-1.6 0-2.3 0C834.5-218.7 831.9-214.5 831.7-210.8zM862.2-237.7c0.9 0.3 1 2.3-0.2 2.9 -1.1 2.5-2.2 6.4-3.6 6.4 -2 4.9-3.8 11.7-4.3 16.9 -0.1 1.8-0.2 4.1 1.9 3.6 3-0.8 9.2-6.7 12.5-10.8 0.6-0.2 0.8 0.5 0.2 1.4 -2.6 4-9.6 10.8-12.6 11.4 -4.7 1-4.5-3.5-4.1-5.1 -0.1-5.8 5.8-21.6 8.3-26.9C860.8-238.1 861.8-238.2 862.2-237.7zM876.8-222.4c0 0.8-0.7 1.7-1 1.7 -0.9 0-1.2-1.2-1.7-1.2 -1.5 0-6.5 7.3-6.5 11.5 0 0.8 0.1 2 0.5 2s1.4-1.5 1.9-1.7c0.30 3.1-4.2 4-6.6 0-1.8 0.5-2.6 1.2-2.6 1 0 2.3 0.6 2.3 0.9 0 0.4 0.4 0.8 0.4 1 0 0.2 0 1 0.1 1.3 0.2 2 1.2 8 4.1 8 1.3 0 2.3-0.4 2.6-0.5 0.30 0.8 0.4 0.8 0.9 0 0.2-1.1 1-3.4 1 -1.4 0-2.6-0.3-3.2-1.2 -1.5-0.6-3-4-3.3-6.1 0-0.4-0.4-0.6-0.8-0.1 -1 1.3-2.1 3.7-3.3 4.9 -1.2 1.9-2.7 2.9-4.3 2.9 -1.5 0-2.5-1-2.5-3.6 0-4.4 5-14.3 9.6-14.3C875.7-224.3 876.8-223.1 876.8-222.4zM894.4-224.4c0.2 0 0.5 1.2 0.4 1.7 -0.1 0.4-0.1 0-0.5 0.4 -1.2 2.8-4.8 11.2-4.2 12.2 2.2-2.3 7.1-9.7 12.4-13.2 0.4-0.3 0.9-0.4 1.6-0.5 1.8-0.4 2.4 2 1.1 4.9 -0.1 0.3-0.7 0.5-0.5 0.9 -0.4 2-2 5.4-1.9 7.9 0 1.1 0.4 1.5 1.4 1.1 3.7-1.6 9.5-6.9 12.6-10.4 0.3 0.1 0.8 0.8 0.4 1.2 -3.6 4.5-9.5 9.6-12.9 11.2 -2.8 1.3-4.5 0.2-4.6-1.8 0-0.7 0.3-0.4 0.3-0.9 -0.5-2 2.2-7.2 2.8-10.9 0.1-0.7-0.4-0.5-1.10 -5 3.2-8.6 9.6-11.4 14.1 -0.3 0.5-2.7 0.8-2.8-0.3 -0.6-0.3-0.7-2.2-0.4-3.5 0.9-4 3.1-10.2 5.1-13.9C892.9-224.5 894-224.5 894.4-224.4zM934.7-208.2c-5.2 5.2-8.3 2.3-8.2-2.3 -0.2-1.80-3.8 0.4-5.9 0.3-1.4-0.3-1.1-0.8-0.5 -2 2.6-4 5.2-6.2 7.6 -0.9 1.8-2.3 3.4-3.9 3.4 -3.6 0-3.3-3.5-2.5-6.2 1.6-6.4 5.2-10 7.7-10 1.8 0 4.6 0.7 5.1 2.4 1.9-2.8 3.4-5.4 4.6-7.7 1.4-3.3 3-6.6 4.4-9.6 1-3 2.1-5.2 3-5.2 1.1 0 1.7 1.8 1.4 3 -2.6 5.1-3.6 6.5-4.7 8 -2.8 5.7-6 12.8-6.7 17.8 -0.8 4.9 1.4 8.1 6 4.3C934.9-209.5 935.4-208.9 934.7-208.2zM924.3-216.7c0.8-1.2 0.6-1.5 0.1-1.9 -0.8-0.7-2-1.1-3.2-1.1 -1.7 0-4.1 2.9-5.5 8.3 -1 3.6-0.2 4.4 3.3 0.9C921-212.6 922.7-214.7 924.3-216.7z"/><path d="M24.3 13.9l0.6-1.4c1-1 2.8 0.2 2.4 1.3l-0.4 0.8c3.7 1.1 6.3 2.8 6.3 5.7 0 3.7-7.7 6.7-10.9 8 2.1 1.3 10.6 4 10.6 9.7 0 4.3-6.2 8.7-14 8.7 -3.4 0-9.8-1.7-9.8-6.6 0-2.9 2.2-5.9 4-7.6 0.2-0.2 0.5 0.9 0.3 1.5 -1.1 2.5-1.7 4.1-1.7 6.2 0 1.7 1.3 4.2 7 4.2 5.4 0 11.9-3.1 11.9-6.9 0-3.9-6.8-6.5-11.3-7.9 -1.9 4.3-3.2 7.9-2.8 9.5 -1.5 2.4-4.4 0-2-1.9 0.9-2.7 1.9-5.3 3-7.8 -1.1-0.2-1.9-0.4-2.4-0.9 -0.9-0.9-0.2-2.4 0.7-2.4 1 0.1 2 0.1 3.2-0.1 1.4-3.3 3-6.6 4.5-10.1 -4-0.8-8.7-1.1-12-0.9 -2.3 0.2-3.1-1.5-3.4-1.9 -0.3-0.4 0.7-1.6 1-1.6C12.8 12.4 19.1 12.8 24.3 13.9zM21.2 25.6c4.8-0.9 9.7-3.2 9.7-5.8 0-1.4-2.1-2.5-5-3.3C24.4 19.4 22.7 22.5 21.2 25.6zM62.6 32.6c-2.7 3.2-11 11.5-19 12.1 -4.8 1.6-5.9-3.2-5.7-5.7 0.4-5.1 4.4-10.4 9.1-13.5 0.8-0.5 1.1-0.1 1.4 0.1 0.3 0.2 0.4-0.3 0.8-0.3 1 0 2.7 2.9 2.8 4.6 0.1 0.9-0.4 1.5-0.8 1.9 -0.1 0.1 0.1 0.6-0.3 1 -1.8 2.2-5 4.9-10 7.6 0.3 2.7 2.3 2.6 6.3 1.3 4.4-1.4 10.1-5 14.6-10.1C62.3 31.5 63.4 31.6 62.6 32.6zM41 38.3c3.2-1.5 9-5.8 9.1-9 0-0.5-1.5-1.4-1.9-1.4C45.8 27.9 41.6 33.1 41 38.3zM69.4 26.7c0 0.5-1.2 0.9-1.5 0.9s-0.9-0.5-1.2-0.5c-1.6 0-2.4 1.8-2.4 3.1 0 2.6 3.4 8.7 3.4 12.6 0 1.9-2.4 2.9-4.2 3.3 -0.3 0.1-0.5-0.3-0.7-0.2s-0.4 0.3-0.7 0.3c-1.4 0-5.2-1.2-7.1-3.2 -0.9-1-2.1-2.7-0.7-3.6 1.5 2.1 4.6 4.4 7.6 4.4 1.2 0 2.7-0.7 2.7-1.3 0-3.4-3.7-11.9-3.3-13.9 0.1-0.3 0.3-0.6 0.3-0.7 0-0.1-0.2-0.5-0.2-0.8 0.3-1.4 1.4-4.8 3.1-4.8C66.1 22.3 69.4 26.2 69.4 26.7zM84 24c-0.4 0.9-0.8 1.8-1.1 2.7 -0.2 0.5-0.6 0.1-0.9 0.6 -1.8 3.6-4.1 9.7-4.7 14.8 -0.1 0.8-0.1 1.3 0.7 0.8 7.1-4.2 11.1-8 17.4-14.5 0.6 0.1 1.6 1 0.7 1.9 -5.5 5.2-12.1 11.4-17.2 14.6 -1.1 0.7-4.3 1.6-4-0.7 0.2-4.1 2.9-12.3 5.8-19.7 -3 0.6-5.9 1.2-8 1.9 -0.5 0.4-1.1 0.7-1.8 0.8 -1.1 0.2-1.7-2.4 0.1-2.8 0.4-0.1 0 0.5 2-0.3 2.5-0.8 5.5-1.4 8.5-1.7 1.9-4.9 3.8-9.2 4.8-11.2 1.5-0.1 2.8 1.3 2.6 2.6 -0.1 0.7-0.6 1.4-1.1 1.9 -0.7 2-1.8 4.2-2.9 6.4 2.7-0.2 5.2-0.3 7-0.3 1.1 0 1.3 0.6 0.9 1.2C90.6 23.2 87.4 23.5 84 24zM110.7 25.6c0.2 0 0.4 0.1 0.5 0.3 -0.5-2.4 2.9-3.3 3.4-2.3 2.9 5.2 6.8 8.1 13.4 8.5 1.3-7.3 2.9-14.2 4.7-17.8 0.5-1 0.1-1.2 0.5-2.1 1.9-4.5 3.2-6.8 4.8-6.8s2.9 2.7 2.8 6.4c-0.1 4.1-1.2 9.7-2.8 12.9 -1.3 2.7-2.8 2.4-3.7 2.2 3.9-6.3 5.2-13.7 4.5-17.7 -3.5 1.5-5.4 7.8-7.1 14 -0.7 2.5-1.4 5.6-2 8.9 4.3-0.1 9.9-0.9 16.4-3.1 0.6 0.1 1.1 0.9-0.1 1.4 -4.7 2.1-11.3 3.3-16.6 3.4 -2.2 12.6-3.9 27.7-4.7 28 -1.2 0.2-1.5 0.9-2.3 0.9 -3.6 0-6.9-7.3-8-10.4 0.5-0.2 0.8 0.1 0.9 0.3 0.8 2 3.2 5.5 4.8 6.7s2.8 1.3 3.6-1.1c0.1-0.3-0.2-0.1-0.1-0.3 1-5 2.3-14.8 4-24.1 -2.4-0.1-4.6-0.4-6.7-0.9 0.1 0.4 0.1 0.8 0.1 1.1 -0.4 1.6-6.3 7.6-8.9 9.6 -1.7 1.3-3.5 1.7-5.1 1.2 -3.5-1-3.3-4.8-2.8-7 0.5-2.7 3.2-6.2 3.2-11.2C107.4 25.9 109.8 25.6 110.7 25.6zM111.8 27.2c0.2 0.7 0.2 1.5-0.1 2.1 -0.6 1.4-6.5 8.6-4.6 13.4 0.7 1.7 2.9 0.2 4.5-1.1 1-0.8 4.7-4.1 6.1-7 0.4-0.9 0.4-1.8 0-2.7 -2.1-0.9-3.9-2.2-5.3-3.9C112.2 27.7 112 27.4 111.8 27.2zM170.4 13.9l0.6-1.4c1-1 2.8 0.2 2.4 1.3l-0.4 0.8c3.7 1.1 6.3 2.8 6.3 5.7 0 3.7-7.7 6.7-10.9 8 2.1 1.3 10.6 4 10.6 9.7 0 4.3-6.2 8.7-14 8.7 -3.4 0-9.8-1.7-9.8-6.6 0-2.9 2.2-5.9 4-7.6 0.2-0.2 0.5 0.9 0.3 1.5 -1.1 2.5-1.7 4.1-1.7 6.2 0 1.7 1.3 4.2 7 4.2 5.4 0 11.9-3.1 11.9-6.9 0-3.9-6.8-6.5-11.3-7.9 -1.9 4.3-3.2 7.9-2.8 9.5 -1.5 2.4-4.4 0-2-1.9 0.9-2.7 1.9-5.3 3-7.8 -1.1-0.2-1.9-0.4-2.4-0.9 -0.9-0.9-0.2-2.4 0.7-2.4 1 0.1 2 0.1 3.2-0.1 1.4-3.3 3-6.6 4.5-10.1 -4-0.8-8.7-1.1-12-0.9 -2.3 0.2-3.1-1.5-3.4-1.9 -0.3-0.4 0.7-1.6 1-1.6C158.9 12.4 165.2 12.8 170.4 13.9zM167.3 25.6c4.8-0.9 9.7-3.2 9.7-5.8 0-1.4-2.1-2.5-5-3.3C170.5 19.4 168.8 22.5 167.3 25.6zM189.3 26c0-0.4 0.8-0.8 1.3-0.8 0.5 0 2.1 0.8 2.3 1.4 0.5 1.1-1.6 5.7-2.7 9 -0.2 0.5 0.2 0.6 0.4 0.2 1.8-2.2 9.9-8.9 12.3-8.9 1 0 2.9 2 2.9 3.5 0 1.4-1.2 2.3-2.3 2.1 -0.8-0.2-1.2-2.1-1.9-2.2 -3.1 0.4-8.9 5.6-12.1 9.3 -0.5 1-1.2 3.7-1.8 4.6 -0.7-0.1-1.2 0.6-1.5 0.6 -0.3-0.1-1.5-1-1.2-1.8 1.6-3.8 4.4-10.9 4.7-16C189.5 27 189.3 26.3 189.3 26zM232.6 13.3c0.4-1.2 1.1-2.5 1.7-2.5s2.8 1.3 2.8 2.1c0 0.8-2.5 4.4-3.7 6 -0.5 0.7-2 2.2-2.7 3.5l-0.6 1.1c3.7 0.1 7.6-0.1 11.3-0.6 0.6 0.1 1.1 0.9-0.1 1.2 -3 0.7-7.5 1-12 1.1 -2.5 4.9-5.6 12.1-5.8 15.1 -0.1 0.5-0.7 0.8-0.7 1.1 0.1 0.3 0.6 0.8 0.6 1.3 -0.4 2.2 0.7 3.4 1.9 2.8 4.1-1.9 16.8-13.3 19.8-16.9 0.5-0.6 1.7 0.4 0.8 1.3 -4.5 4.8-14.1 13.8-18.4 16.6 -0.7 0.6-2 1.8-3.5 1.4 -1.3 0.7-3.8-0.4-3.4-3.2 -0.4-3.1 1.7-9.1 4.2-14.7 -4.9 4.4-12.7 12.7-15.7 16.2 -1 0.8-4.9-1.4-3.8-3.1 -0.4-3.3 4.4-12.7 3.7-16.3 0.8-0.7 1.8-0.7 2.1-0.3 0.3 0.4-0.2 0.8 0.2 1 0.7 0.5 0.9 1.3 1 2.2 0.4 1-2.7 6.5-3.8 10.5 -0.5 1.9-0.3 3.6 1.1 2.3 4.5-4 10-9.6 17-16.3l0.5-1c-4 0.1-7.9-0.1-10.4-0.3 -1.9-0.3-1.7-2.9-0.4-2.7 2.9 0.5 7 0.9 11.6 1.1 0.9-1.8 1.6-3.3 2.3-4.5C231.2 17.2 232.2 14.5 232.6 13.3zM212.6 14.5c0.1-1 3-1.3 3.5-1.4 0.4 0.4 0.7 0.7 0.7 1.1 0 0.4-0.3 2.6-1 2.7C214.4 17.1 212.5 15.8 212.6 14.5zM237.2 36.1v-0.1C237.2 36.1 237.2 36.1 237.2 36.1zM264.9 24c1.7-0.2 4.3 1.4 4.3 2.5 0 0.5-0.4 1.2-0.9 1.8 -1.1-0.9-2.4-1.9-4.2-1.9 -1.9 0-3.9 2.1-3.9 4.7 0 3.5 1.6 7 3.2 10.1 0.3 0.6 0.8 1.7 0.8 2.4s-0.9 1.8-1.6 1.8 -6.1-1.8-8.2-2.3c-0.5-0.1-0.4-0.6 0.1-0.9 0.5 0.2 3.6 0.8 5.8 0.9 0.7 0 0.8 0 0.6-0.7 -0.5-2.3-2.6-6.7-3.2-10.9 -5.4 3.8-10.4 10.9-13.5 14.7 -1 0.8-5.3-1.1-4.2-2.8 -0.4-3.3 4.4-13.2 3.7-16.7 0.8-0.7 1.8-0.7 2.1-0.3 0.3 0.4-0.2 0.8 0.2 1 0.7 0.5 0.9 1.3 1 2.2 0.4 1-2.4 5.9-3.5 9.9 -0.5 1.9-0.2 3.7 1.1 2.3 3.5-3.8 6.8-7.9 13.1-11.9v-0.3c0-3.6 1.7-6.3 5.3-6.3C263.1 23.4 264.4 23.4 264.9 24zM247.2 14.4c0.1-0.9 2.8-1 3.2-1.1 0.3 0.4 1.2 1 1.2 1.3 0 0.4-0.9 2.1-1.4 2.2C249 17.1 247.1 15.7 247.2 14.4zM281 13.7c0.5 0 2.3 1 2.3 1.8 -0.2 1.8-1.7 4.7-2.4 6.9 -0.3 0.8-0.6 0.5-1.1 0.5 -1.4 3.2-3.5 11.5-4.5 16.7 -0.2 0.8 0.5 1.1 0.8 0.7 3.8-4.8 11-12.3 11.6-12.3s1.8 0.5 2.1 0.9c0.6 0.7 0.2 2.1 0.8 2.9 0.5 1.2-2 9.1-1.3 11.1 3.8-2.1 9.5-7.8 13-11.6 0.7-0.2 1.5 0.8 0.6 1.6 -4.2 3.8-11.2 13-14.9 13.1 -0.6 0-1.5-1.3-1.1-3.1 -1.1-1.8 1.6-9.7 0.7-11.5 -2.5 0.7-6.8 6-9.3 9.4 -0.3 2-1.1 2.9-1.8 3.6 -0.5 0.4-0.9 0.5-1.2 0.5s-1 1-1.4 1c-0.4 0-0.9-0.5-1.1-1.1 -0.1-0.4 0-0.7 0.1-1.3 1.6-13.5 6.7-22.4 6.9-29C280 13.9 280.6 13.7 281 13.7z"/><image width="295" height="71" transform="matrix(1 0 0 1 676.9744 25.6838)"/></svg>