<svg xmlns="http://www.w3.org/2000/svg" version="1.2" baseProfile="tiny" width="295.3" height="71.3" viewBox="8 0.7 295.3 71.3"><path d="M24.3 13.9l.6-1.4c1-1 2.8.2 2.4 1.3l-.4.8c3.7 1.1 6.3 2.8 6.3 5.7 0 3.7-7.7 6.7-10.9 8 2.1 1.3 10.6 4 10.6 9.7 0 4.3-6.2 8.7-14 8.7-3.4 0-9.8-1.7-9.8-6.6 0-2.9 2.2-5.9 4-7.6.2-.2.5.9.3 1.5-1.1 2.5-1.7 4.1-1.7 6.2 0 1.7 1.3 4.2 7 4.2 5.4 0 11.9-3.1 11.9-6.9 0-3.9-6.8-6.5-11.3-7.9-1.9 4.3-3.2 7.9-2.8 9.5-1.5 2.4-4.4 0-2-1.9.9-2.7 1.9-5.3 3-7.8-1.1-.2-1.9-.4-2.4-.9-.9-.9-.2-2.4.7-2.4 1 .1 2 .1 3.2-.1 1.4-3.3 3-6.6 4.5-10.1-4-.8-8.7-1.1-12-.9-2.3.2-3.1-1.5-3.4-1.9-.3-.4.7-1.6 1-1.6 3.7.9 10 1.3 15.2 2.4zm-3.1 11.7c4.8-.9 9.7-3.2 9.7-5.8 0-1.4-2.1-2.5-5-3.3-1.5 2.9-3.2 6-4.7 9.1zm41.4 7c-2.7 3.2-11 11.5-19 12.1-4.8 1.6-5.9-3.2-5.7-5.7.4-5.1 4.4-10.4 9.1-13.5.8-.5 1.1-.1 1.4.1.3.2.4-.3.8-.3 1 0 2.7 2.9 2.8 4.6.1.9-.4 1.5-.8 1.9-.1.1.1.6-.3 1-1.8 2.2-5 4.9-10 7.6.3 2.7 2.3 2.6 6.3 1.3 4.4-1.4 10.1-5 14.6-10.1.5-.1 1.6 0 .8 1zm-21.6 5.7c3.2-1.5 9-5.8 9.1-9 0-.5-1.5-1.4-1.9-1.4-2.4 0-6.6 5.2-7.2 10.4zm28.4-11.6c0 .5-1.2.9-1.5.9s-.9-.5-1.2-.5c-1.6 0-2.4 1.8-2.4 3.1 0 2.6 3.4 8.7 3.4 12.6 0 1.9-2.4 2.9-4.2 3.3-.3.1-.5-.3-.7-.2s-.4.3-.7.3c-1.4 0-5.2-1.2-7.1-3.2-.9-1-2.1-2.7-.7-3.6 1.5 2.1 4.6 4.4 7.6 4.4 1.2 0 2.7-.7 2.7-1.3 0-3.4-3.7-11.9-3.3-13.9l.3-.7c0-.1-.2-.5-.2-.8.3-1.4 1.4-4.8 3.1-4.8 1.6 0 4.9 3.9 4.9 4.4zm14.6-2.7c-.4.9-.8 1.8-1.1 2.7-.2.5-.6.1-.9.6-1.8 3.6-4.1 9.7-4.7 14.8-.1.8-.1 1.3.7.8 7.1-4.2 11.1-8 17.4-14.5.6.1 1.6 1 .7 1.9-5.5 5.2-12.1 11.4-17.2 14.6-1.1.7-4.3 1.6-4-.7.2-4.1 2.9-12.3 5.8-19.7-3 .6-5.9 1.2-8 1.9-.5.4-1.1.7-1.8.8-1.1.2-1.7-2.4.1-2.8.4-.1 0 .5 2-.3 2.5-.8 5.5-1.4 8.5-1.7 1.9-4.9 3.8-9.2 4.8-11.2 1.5-.1 2.8 1.3 2.6 2.6-.1.7-.6 1.4-1.1 1.9-.7 2-1.8 4.2-2.9 6.4 2.7-.2 5.2-.3 7-.3 1.1 0 1.3.6.9 1.2-2.2.2-5.4.5-8.8 1zm26.7 1.6c.2 0 .4.1.5.3-.5-2.4 2.9-3.3 3.4-2.3 2.9 5.2 6.8 8.1 13.4 8.5 1.3-7.3 2.9-14.2 4.7-17.8.5-1 .1-1.2.5-2.1 1.9-4.5 3.2-6.8 4.8-6.8s2.9 2.7 2.8 6.4c-.1 4.1-1.2 9.7-2.8 12.9-1.3 2.7-2.8 2.4-3.7 2.2 3.9-6.3 5.2-13.7 4.5-17.7-3.5 1.5-5.4 7.8-7.1 14-.7 2.5-1.4 5.6-2 8.9 4.3-.1 9.9-.9 16.4-3.1.6.1 1.1.9-.1 1.4-4.7 2.1-11.3 3.3-16.6 3.4-2.2 12.6-3.9 27.7-4.7 28-1.2.2-1.5.9-2.3.9-3.6 0-6.9-7.3-8-10.4.5-.2.8.1.9.3.8 2 3.2 5.5 4.8 6.7s2.8 1.3 3.6-1.1c.1-.3-.2-.1-.1-.3 1-5 2.3-14.8 4-24.1-2.4-.1-4.6-.4-6.7-.9.1.4.1.8.1 1.1-.4 1.6-6.3 7.6-8.9 9.6-1.7 1.3-3.5 1.7-5.1 1.2-3.5-1-3.3-4.8-2.8-7 .5-2.7 3.2-6.2 3.2-11.2 0-.7 2.4-1 3.3-1zm1.1 1.6c.2.7.2 1.5-.1 2.1-.6 1.4-6.5 8.6-4.6 13.4.7 1.7 2.9.2 4.5-1.1 1-.8 4.7-4.1 6.1-7 .4-.9.4-1.8 0-2.7-2.1-.9-3.9-2.2-5.3-3.9-.2-.3-.4-.6-.6-.8zm58.6-13.3l.6-1.4c1-1 2.8.2 2.4 1.3l-.4.8c3.7 1.1 6.3 2.8 6.3 5.7 0 3.7-7.7 6.7-10.9 8 2.1 1.3 10.6 4 10.6 9.7 0 4.3-6.2 8.7-14 8.7-3.4 0-9.8-1.7-9.8-6.6 0-2.9 2.2-5.9 4-7.6.2-.2.5.9.3 1.5-1.1 2.5-1.7 4.1-1.7 6.2 0 1.7 1.3 4.2 7 4.2 5.4 0 11.9-3.1 11.9-6.9 0-3.9-6.8-6.5-11.3-7.9-1.9 4.3-3.2 7.9-2.8 9.5-1.5 2.4-4.4 0-2-1.9.9-2.7 1.9-5.3 3-7.8-1.1-.2-1.9-.4-2.4-.9-.9-.9-.2-2.4.7-2.4 1 .1 2 .1 3.2-.1 1.4-3.3 3-6.6 4.5-10.1-4-.8-8.7-1.1-12-.9-2.3.2-3.1-1.5-3.4-1.9-.3-.4.7-1.6 1-1.6 3.7.9 10 1.3 15.2 2.4zm-3.1 11.7c4.8-.9 9.7-3.2 9.7-5.8 0-1.4-2.1-2.5-5-3.3-1.5 2.9-3.2 6-4.7 9.1zm22 .4c0-.4.8-.8 1.3-.8s2.1.8 2.3 1.4c.5 1.1-1.6 5.7-2.7 9-.2.5.2.6.4.2 1.8-2.2 9.9-8.9 12.3-8.9 1 0 2.9 2 2.9 3.5 0 1.4-1.2 2.3-2.3 2.1-.8-.2-1.2-2.1-1.9-2.2-3.1.4-8.9 5.6-12.1 9.3-.5 1-1.2 3.7-1.8 4.6-.7-.1-1.2.6-1.5.6-.3-.1-1.5-1-1.2-1.8 1.6-3.8 4.4-10.9 4.7-16-.2 0-.4-.7-.4-1zm43.3-12.7c.4-1.2 1.1-2.5 1.7-2.5s2.8 1.3 2.8 2.1-2.5 4.4-3.7 6c-.5.7-2 2.2-2.7 3.5l-.6 1.1c3.7.1 7.6-.1 11.3-.6.6.1 1.1.9-.1 1.2-3 .7-7.5 1-12 1.1-2.5 4.9-5.6 12.1-5.8 15.1-.1.5-.7.8-.7 1.1.1.3.6.8.6 1.3-.4 2.2.7 3.4 1.9 2.8 4.1-1.9 16.8-13.3 19.8-16.9.5-.6 1.7.4.8 1.3-4.5 4.8-14.1 13.8-18.4 16.6-.7.6-2 1.8-3.5 1.4-1.3.7-3.8-.4-3.4-3.2-.4-3.1 1.7-9.1 4.2-14.7-4.9 4.4-12.7 12.7-15.7 16.2-1 .8-4.9-1.4-3.8-3.1-.4-3.3 4.4-12.7 3.7-16.3.8-.7 1.8-.7 2.1-.3.3.4-.2.8.2 1 .7.5.9 1.3 1 2.2.4 1-2.7 6.5-3.8 10.5-.5 1.9-.3 3.6 1.1 2.3 4.5-4 10-9.6 17-16.3l.5-1c-4 .1-7.9-.1-10.4-.3-1.9-.3-1.7-2.9-.4-2.7 2.9.5 7 .9 11.6 1.1.9-1.8 1.6-3.3 2.3-4.5 1-1.6 2-4.3 2.4-5.5zm-20 1.2c.1-1 3-1.3 3.5-1.4.4.4.7.7.7 1.1 0 .4-.3 2.6-1 2.7-1.4.2-3.3-1.1-3.2-2.4zm24.6 21.6v-.1.1zm27.7-12.1c1.7-.2 4.3 1.4 4.3 2.5 0 .5-.4 1.2-.9 1.8-1.1-.9-2.4-1.9-4.2-1.9-1.9 0-3.9 2.1-3.9 4.7 0 3.5 1.6 7 3.2 10.1.3.6.8 1.7.8 2.4s-.9 1.8-1.6 1.8-6.1-1.8-8.2-2.3c-.5-.1-.4-.6.1-.9.5.2 3.6.8 5.8.9.7 0 .8 0 .6-.7-.5-2.3-2.6-6.7-3.2-10.9-5.4 3.8-10.4 10.9-13.5 14.7-1 .8-5.3-1.1-4.2-2.8-.4-3.3 4.4-13.2 3.7-16.7.8-.7 1.8-.7 2.1-.3.3.4-.2.8.2 1 .7.5.9 1.3 1 2.2.4 1-2.4 5.9-3.5 9.9-.5 1.9-.2 3.7 1.1 2.3 3.5-3.8 6.8-7.9 13.1-11.9v-.3c0-3.6 1.7-6.3 5.3-6.3.1.1 1.4.1 1.9.7zm-17.7-9.6c.1-.9 2.8-1 3.2-1.1.3.4 1.2 1 1.2 1.3 0 .4-.9 2.1-1.4 2.2-1.2.3-3.1-1.1-3-2.4zm33.8-.7c.5 0 2.3 1 2.3 1.8-.2 1.8-1.7 4.7-2.4 6.9-.3.8-.6.5-1.1.5-1.4 3.2-3.5 11.5-4.5 16.7-.2.8.5 1.1.8.7 3.8-4.8 11-12.3 11.6-12.3s1.8.5 2.1.9c.6.7.2 2.1.8 2.9.5 1.2-2 9.1-1.3 11.1 3.8-2.1 9.5-7.8 13-11.6.7-.2 1.5.8.6 1.6-4.2 3.8-11.2 13-14.9 13.1-.6 0-1.5-1.3-1.1-3.1-1.1-1.8 1.6-9.7.7-11.5-2.5.7-6.8 6-9.3 9.4-.3 2-1.1 2.9-1.8 3.6-.5.4-.9.5-1.2.5s-1 1-1.4 1c-.4 0-.9-.5-1.1-1.1-.1-.4 0-.7.1-1.3 1.6-13.5 6.7-22.4 6.9-29 .2-.6.8-.8 1.2-.8z"/></svg>