<?xml version="1.0" encoding="UTF-8" standalone="no"?>
<!-- Created with Inkscape (http://www.inkscape.org/) -->

<svg
   xmlns:dc="http://purl.org/dc/elements/1.1/"
   xmlns:cc="http://creativecommons.org/ns#"
   xmlns:rdf="http://www.w3.org/1999/02/22-rdf-syntax-ns#"
   xmlns:svg="http://www.w3.org/2000/svg"
   xmlns="http://www.w3.org/2000/svg"
   xmlns:sodipodi="http://sodipodi.sourceforge.net/DTD/sodipodi-0.dtd"
   xmlns:inkscape="http://www.inkscape.org/namespaces/inkscape"
   width="354.33072"
   height="354.33072"
   viewBox="0 0 354.33071 354.33071"
   id="svg4499"
   version="1.1"
   inkscape:version="0.91 r"
   sodipodi:docname="cc-logo-emblem.svg"
   inkscape:export-filename="/home/tony/Pictures/cc-logo-emblem.png"
   inkscape:export-xdpi="90"
   inkscape:export-ydpi="90">
  <defs
     id="defs4501" />
  <sodipodi:namedview
     id="base"
     pagecolor="#ffffff"
     bordercolor="#666666"
     borderopacity="1.0"
     inkscape:pageopacity="0.0"
     inkscape:pageshadow="2"
     inkscape:zoom="0.83289401"
     inkscape:cx="458.98598"
     inkscape:cy="106.99332"
     inkscape:document-units="px"
     inkscape:current-layer="layer1"
     showgrid="false"
     inkscape:window-width="1920"
     inkscape:window-height="1024"
     inkscape:window-x="0"
     inkscape:window-y="0"
     inkscape:window-maximized="1"
     fit-margin-top="0"
     fit-margin-left="0"
     fit-margin-right="0"
     fit-margin-bottom="0"
     units="px">
    <sodipodi:guide
       position="-351.92322,-536.94232"
       orientation="0,744.09449"
       id="guide4527" />
    <sodipodi:guide
       position="674.75576,515.41989"
       orientation="-1052.3622,0"
       id="guide4529" />
    <sodipodi:guide
       position="21.611393,471.84874"
       orientation="0,-744.09449"
       id="guide4531" />
    <sodipodi:guide
       position="-351.92322,515.41989"
       orientation="1052.3622,0"
       id="guide4533" />
  </sodipodi:namedview>
  <metadata
     id="metadata4504">
    <rdf:RDF>
      <cc:Work
         rdf:about="">
        <dc:format>image/svg+xml</dc:format>
        <dc:type
           rdf:resource="http://purl.org/dc/dcmitype/StillImage" />
        <dc:title></dc:title>
      </cc:Work>
    </rdf:RDF>
  </metadata>
  <g
     inkscape:label="Layer 1"
     inkscape:groupmode="layer"
     id="layer1"
     transform="translate(-351.92323,-161.08919)">
    <g
       id="g5343"
       transform="matrix(4.7456434,0,0,4.7456434,-1315.778,-1956.9932)">
      <g
         id="g140"
         transform="matrix(1.25,0,0,-1.25,406.68831,493.51743)">
        <path
           d="m 0,0 c 7.013,-1.498 11.635,-4.053 11.635,-6.951 0,-4.614 -11.698,-8.355 -26.13,-8.355 -14.428,0 -26.128,3.741 -26.128,8.355 0,2.898 4.621,5.453 11.635,6.951 -8.85,-1.615 -14.824,-4.657 -14.824,-8.149 0,-5.177 13.124,-9.373 29.317,-9.373 16.194,0 29.32,4.196 29.32,9.373 C 14.825,-4.657 8.852,-1.615 0,0"
           style="fill:#c7ad68;fill-opacity:1;fill-rule:nonzero;stroke:none"
           id="path142"
           inkscape:connector-curvature="0" />
      </g>
      <g
         id="g144"
         transform="matrix(1.25,0,0,-1.25,414.52531,501.71273)">
        <path
           d="M 0,0 C 0,1.517 -1.788,2.916 -4.811,4.038 -0.207,2.717 2.648,0.968 2.585,-0.867 2.481,-3.957 -5.852,-6.238 -16.786,-6.416 -7.061,-5.563 0,-3.016 0,0"
           style="fill:#858789;fill-opacity:1;fill-rule:nonzero;stroke:none"
           id="path146"
           inkscape:connector-curvature="0" />
      </g>
      <g
         id="g148"
         transform="matrix(1.25,0,0,-1.25,362.61431,503.52173)">
        <path
           d="m 0,0 c 0,-1.517 1.793,-2.916 4.81,-4.04 -4.603,1.322 -7.455,3.076 -7.396,4.905 0.102,3.09 8.438,5.374 19.377,5.551 C 7.063,5.563 0,3.014 0,0"
           style="fill:#858789;fill-opacity:1;fill-rule:nonzero;stroke:none"
           id="path150"
           inkscape:connector-curvature="0" />
      </g>
      <g
         id="g152"
         transform="matrix(1.25,0,0,-1.25,397.19006,483.58033)">
        <path
           d="m 0,0 c -4.199,8.146 -20.212,10.928 -10.37,25.135 0,0 -0.749,-0.553 -1.81,-1.506 0.012,-0.012 0.016,-0.02 0.016,-0.02 0,0 -0.144,-0.112 -0.377,-0.307 -0.513,-0.476 -1.081,-1.031 -1.664,-1.655 -1.996,-2.282 -4.329,-6.274 -1.378,-10.481 3.565,-5.096 16.615,-11.44 13.689,-18.981 0.539,6.066 -4.318,9.416 -8.584,12.828 -2.014,1.611 -4.187,3.36 -5.931,5.182 -1.305,1.36 -2.109,3.173 -2.084,5.138 -0.95,-2.359 -1.191,-4.909 0.079,-7.38 4.2,-8.144 20.217,-10.928 10.372,-25.132 0,0 12.242,9.033 8.042,17.179"
           style="fill:#c7ad68;fill-opacity:1;fill-rule:nonzero;stroke:none"
           id="path154"
           inkscape:connector-curvature="0" />
      </g>
    </g>
  </g>
</svg>
