<svg xmlns="http://www.w3.org/2000/svg" version="1.2" baseProfile="tiny" width="157" height="71.3" viewBox="9 0.7 157 71.3"><path d="M35.6 17.9c0-1.3-.9-2.5-2.9-2.5-12.1 0-20.6 10.5-20.6 15.8 0 1.8.9 4 2.3 4.4.5.1 1 .1 1.5.1 5.5 0 13.6-3.5 16.6-6.5.5-.8.8-1.3 1.5-1.3.9 0 2.3.8 2.3 1.4 0 .6-1 1.2-1.2 1.6-1 1.7-4.3 9-4.3 13.3 0 1.3.3 2.2 1 2.8-.2 1.1-1.7 1.7-2.3 1.7-1.1 0-1.6-1.7-1.6-3.6 0-2.2 2.6-8.4 3.7-12.4-3.8 1.6-10.4 5.1-16.1 5.1-4.1 0-6.4-2.5-6.4-6.7 0-6.6 11.8-18.4 23.1-18.4 5.5 0 6.9 4.1 6.3 6-.3 1-1.2 2-2.3 2-.5 0-.9-.2-1.4-.5.5-.7.8-1.6.8-2.3zm35.9 16.3c-.3 1.4-.4 2.9-.4 4.2 0 3.2.9 3.7 2.9 3.2 3.2-.7 9.9-6.7 14.1-11.7.4-.5 1.3.3 1 .7-2.8 4.4-13 13.6-15 13.6-3.4 1.2-5.3-1.9-5.3-5.1l.1-2.2c-2.8 2.8-5.5 4.8-7.5 5.8-1.8.9-3.5 1.4-4.7 1.4-2.2 0-3.5-1.4-3.5-4.3 0-1.1.2-2.4.6-3.9.4-1.7.1-2.3-1.3-.7-2.4 2.9-3.7 4.9-7 7.7-.9.7-2 1.2-3.1 1.2-1.6 0-3.1-1.1-2.8-4 .8-7.9 8.1-14.2 11-14.2 1.4 0 2.5.5 3.8 1.9l.3.3.3-.5c.9-.7 3.7-1.1 4-.7.4.4 1.2 2.2.9 2.7-.5.9-1.6 3.9-2.1 4.1-.7 1.4-1.3 3.6-1.3 5.3 0 1.5.5 2.6 1.9 2.6.7 0 1.5-.3 2.7-.9 2.5-1.3 5.4-3.6 8.3-6.5 1.9-11.3 9.4-22.3 10.7-24 2.8-3.7 5.2-1.7 5.2.3-.8 7.2-7.3 16.8-13.8 23.7zm-17.7-4.8c-.7-.2-1.6-.4-3.1-.4-3.6 0-7.9 5.3-8.4 10.1-.3 2.7.4 2.6 1.4 1.8 2.5-1.8 6.8-6.1 10.1-11.5zm18.4 1.6c4.2-4.8 8-10.6 9.7-15.8.5-1.5.2-2-.2-2s-1.6 1.3-2.8 3.1c-2.2 3.4-5.1 8.9-6.7 14.7zm17-.2c-1 1.6-1.3 2.7-1.3 4.1 0 4 .9 8.1 4.6 8.1 1.7 0 4.3-1 7.1-2.5-.1-.6-.1-1.1 0-1.5.4-5.1 4.4-10.4 9.1-13.5.8-.5 1.1-.1 1.4.1.3.2.4-.3.8-.3 1 0 2.7 2.9 2.8 4.6.1.9-.4 1.5-.8 1.9-.1.1.1.6-.3 1-1 1.2-5.2 4.9-9.9 8 .5 2.3 2.4 2.2 6.2.9 4.4-1.4 10.1-5 14.6-10.1.4-.1 1.5.1.7 1-2.7 3.2-11 11.5-19 12.1-3 1-4.5-.5-5.2-2.3-3.1 1.7-6.1 2.9-8.6 2.9-2.6 0-6.1-2-6.1-9.8 0-9.4 5.9-23.9 10.5-29.3.6-1.9 1.7-2.7 2.7-2.7.6 0 1.6 1.5 1.6 2.4 0 1-.9 2.7-2 4-1.8 6.5-4.7 14.2-8.9 20.9zm.2-6.1c-.5 1.7-.3 2.4.8.4 2.4-4.5 3.9-8.9 4.7-11.6.3-.8.4-1.6.2-1.6s-1.1 1.4-1.3 1.9c-.2.5-.2.2-.5.7-1.6 2.8-2.9 6.4-3.9 10.2zm13.4 12.1c-.4 1.6-.1 1.8 1.3.9 4.1-2.8 7.4-6.2 7.5-8.4 0-.5-1.5-1.4-1.9-1.4-2.1 0-5.7 4.3-6.9 8.9zm20.9-10.8c0-.4.8-.8 1.3-.8s2.1.8 2.3 1.4c.5 1.1-1.6 5.7-2.7 9-.2.5.2.6.4.2 1.8-2.2 9.9-8.9 12.3-8.9 1 0 2.9 2 2.9 3.5 0 1.4-1.2 2.3-2.3 2.1-.8-.2-1.2-2.1-1.9-2.2-3.1.4-8.9 5.6-12.1 9.3-.5 1-1.2 3.7-1.8 4.6-.7-.1-1.2.6-1.5.6-.3-.1-1.5-1-1.2-1.8 1.6-3.8 4.4-10.9 4.7-16-.1 0-.4-.7-.4-1zm24 .5c.6.1 1.6.6 1.1 1.5-1.5 2.8-4.6 7.6-5.4 12.3-.3 1.7.4 1.3.9.7.6-.7 9.1-10.6 11.1-10.6 2.1 0 3.3 5.8 2.9 11.8 1-.7 2-1.1 3-1.2 1.3 0 2.3 1 2.5 2.3.2.9-.4 1.7-1 1.9s-1-.3-2-.8c-.8.1-1.8.6-3 1.5-1.2 6.2-4.3 15.1-7.1 17.7-.9.9-2-.5-2.3-1.8-1-4.6 3.1-13.1 7.4-17.7.5-3.6.4-7-.2-9.9-.2-.9-.7-1.2-1.7-.5-5.8 4-8.7 12.2-11.6 12.5-1.1.2-2.2-1.1-2.2-2.4l.3-1.2c.4-4.7 2.9-10.6 5.5-15.9.3-.2 1.2-.3 1.8-.2zm7.3 22.2c-2.3 2.8-4.5 6.6-4.6 10.7-.1 1 .2 1.1.7.3 1.7-3.3 3-7.1 3.9-11z"/></svg>
