<svg xmlns="http://www.w3.org/2000/svg" width="1170.75" height="67.104" version="1.2" baseProfile="tiny"><g fill="#FFF"><path d="M-215.53-235.582l.527-1.296c.96-.912 2.592.144 2.256 1.2l-.384.72c3.45 1.008 5.95 2.592 5.95 5.33 0 3.456-7.25 6.335-10.23 7.488 2.01 1.2 9.98 3.743 9.98 9.12 0 4.032-5.81 8.16-13.2 8.16-3.22 0-9.27-1.583-9.27-6.19 0-2.688 2.06-5.52 3.79-7.153.19-.144.48.864.24 1.394-1.06 2.36-1.59 3.84-1.59 5.81 0 1.63 1.2 3.99 6.62 3.99 5.09 0 11.18-2.93 11.18-6.48 0-3.69-6.44-6.14-10.66-7.39-1.83 4.03-3.03 7.44-2.6 8.93-1.39 2.31-4.18 0-1.92-1.77.86-2.49 1.82-4.94 2.83-7.34-1.06-.14-1.78-.33-2.26-.86-.82-.81-.15-2.3.62-2.25.91.1 1.92.1 3.02-.05 1.34-3.12 2.78-6.24 4.22-9.5-3.75-.72-8.16-1.06-11.33-.86-2.16.15-2.93-1.44-3.22-1.77-.29-.34.67-1.54.96-1.49 3.55.91 9.51 1.25 14.4 2.3zm-2.977 10.993c4.512-.86 9.168-3.02 9.168-5.47 0-1.29-1.96-2.35-4.7-3.12-1.44 2.74-3.02 5.72-4.46 8.6zm38.977 6.58c-2.496 2.98-10.32 10.8-17.856 11.38-4.514 1.54-5.52-3.02-5.33-5.37.385-4.8 4.13-9.79 8.594-12.67.768-.48 1.056-.09 1.296.05.24.15.384-.29.77-.29.96 0 2.543 2.69 2.64 4.32.048.87-.336 1.44-.77 1.83-.095.1.05.58-.286.96-1.68 2.07-4.752 4.66-9.41 7.2.29 2.5 2.16 2.45 5.904 1.2 4.13-1.34 9.506-4.75 13.777-9.5.38-.04 1.39.05.67.92zm-20.353 5.38c3.023-1.44 8.45-5.47 8.544-8.45 0-.48-1.39-1.29-1.77-1.29-2.21 0-6.14 4.85-6.77 9.75z"/><path d="M-177.996-208.364c2.256 0 3.41-.576 3.648-.912.288-.384.24-.815-.385-1.344-1.775-1.536-4.607-3.264-6.96-5.81-1.537-.19-1.824-3.647-.577-4.367 3.36-2.064 8.112-5.04 11.28-5.04.337 0 .673.095.913.335.72.624 1.056 2.016 1.056 2.592s-.24.912-.68.576c-2.16-.24-7.92 2.4-9.99 3.984-.48 2.688 5.42 4.896 7.58 7.344 1.53 1.73 1.2 3.216-.1 3.84-3.99 2.016-10.95-.432-13.73-2.688-.67-.527-.1-.815.24-.575 1.92 1.21 5.38 2.07 7.68 2.07zm40.658-13.44c1.344-.623 2.496 0 2.592.625.096.68-.048 1.11-1.488 1.54-4.513 1.2-10.753 5.67-14.16 8.21-.673 2.21-1.44 4.18-2.21 5.04-.478.48-1.583.53-2.398.44-.096.15-.192.24-.336.34-1.296.53-1.968-.86-1.296-1.77.768-.96 1.872-2.11 3.264-3.41.384-1.24 2.064-7.15 2.112-9.89.048-1.48-.528-1.63-1.92-.43-3.408 2.88-12.625 18.96-15.554 29.33-.19.63-.048 1.3-.144 1.92-.24 1.25-1.344 2.07-2.256 2.26-.576.1-1.968-.57-1.536-1.77 3.6-9.6 7.296-22.46 9.937-33.22.14-.57.86-.28 1.29-.24.52 0 2.06.77 1.63 2.5-.34 1.73-4.99 12.72-5.48 14.07-.39 1.35.09.87.62 0 2.49-4.46 9.65-18.86 13.97-18.48.62 0 2.2 1.68 2.25 3.99 0 1.1-.48 4.03-1.25 6.91 3.6-2.83 8.01-5.76 12.33-7.92z"/><path d="M-129.515-220.796c0 .815-1.345 1.536-3.89 1.296-.478 0-5.23 5.232-5.23 7.97 0 2.736 1.248 3.84 2.496 3.84 3.75 0 7.4-6.337 7.4-11.33 0-1.728-1.49-3.6-1.49-4.128 0-.527.53-.815 1.25-.815 2.83 0 4.08 2.016 4.08 3.84 0 .768-.77.432-.81.864-.67 5.04-5.33 13.44-11.18 13.44-2.21 0-4.32-3.02-4.32-5.37 0-7.58 6.1-11.81 8.02-11.81s3.7 1.39 3.7 2.21zm23.375-14.737c-1.392 2.64-5.23 7.25-7.057 8.688-2.256 3.457-4.85 11.377-5.33 13.633-.478 2.256-.19 3.6.48 3.696 3.602-3.12 7.634-10.13 15.747-15.313 1.248.1 2.448 1.06 2.592 1.68s.048 1.25-.72 1.83c-2.593 3.89-7.49 7.06-7.49 8.88 0 .82 2.257 5.09 6.098 4.85 4.176-.67 8.545-5.33 8.785-5.95.384-1.63 1.68-.33.864.87-1.97 2.93-6.58 6.53-10.18 6.91-3.56.39-8.79-3.98-9.6-8.3-1.92 2.45-3.17 4.61-4.85 6.63-1.01 1.2-2.98.96-3.84.19 0-.86-.29-.86-.34-1.29-.34-6.19 5.85-19.83 12.38-30.53 2.21-.58 3.36 1.82 2.45 3.55zm-4.513 19.825c.433.192.72.72 1.44.24.815-.528 3.888-3.696 4.607-4.944.336-.576.097-.96-.624-.384-2.302 1.872-4.03 3.552-5.423 5.088z"/><path d="M-91.117-213.404c-.672.433-.815.77-.768 1.536.144 2.448 1.15 3.552 2.928 3.552 2.256 0 5.52-2.4 7.68-6.24.386-.05.913.096.673.91-.72 2.45-4.128 6.53-8.353 7.154-3.6.576-5.617-2.833-5.376-6 .384-4.8 3.264-10.608 7.92-12.192.864-.288 1.056-.097 1.296.048 1.056.624 3.456 1.008 3.552 2.928.05.864-.384 1.488-.815 1.872-.096.096-.77.096-1.104.48-1.823 1.872-4.56 3.984-7.633 5.952zm-.336-2.544c-.336.912-.048 1.057.72.48 3.41-2.4 6.386-4.704 6.434-6 0-.48-.52-1.248-.91-1.248-2.25 0-4.94 3.216-6.24 6.768zm39.313-21.746c.91.288 1.008 2.256-.24 2.93-1.152 2.495-2.16 6.383-3.602 6.43-2.016 4.946-3.84 11.666-4.27 16.85-.146 1.825-.193 4.082 1.92 3.554 2.975-.77 9.168-6.72 12.48-10.753.623-.192.815.48.19 1.44-2.64 3.983-9.552 10.8-12.576 11.424-4.656.96-4.512-3.45-4.128-5.13-.096-5.76 5.81-21.6 8.256-26.88.53-.24 1.585-.38 1.97.15z"/><path d="M-41.486-220.796c-.336 1.056-1.775 2.64-2.16 3.023-1.104 1.44-2.447 6.05-2.592 8.4-.048.865.384.913 1.584.433 2.353-.91 7.346-5.376 8.978-8.977-.097-.48.19-1.248.72-1.344.336-.05 1.056 0 1.632.14.336.09.912 1.49.77 2.4-.05.19-.53.29-.77.48-.288 1.48-1.15 7.68 0 8.21 1.872.86 11.905-6.96 14.4-10.08.48.09.48.67 0 1.24-4.463 5.42-12.528 11.04-14.497 10.89-.34-.24-.58-.05-.87-.24-2.93-1.68-2.45-5.81-1.78-8.12.09-.34 0-.43-.24-.1-2.36 3.07-6.24 7.34-8.02 8.21-1.11.52-1.54.57-1.88.33s-.77.62-1.63.33-1.73-1.35-1.2-3.36c0-2.69 3.31-10.71 4.46-14.55 2.01-1.11 3.31 1.92 3.07 2.64z"/><path d="M-2.125-225.07c.048.193.048 1.537-.384 1.585-2.59.288-5.42 2.16-6.38 2.736-.38.24-.09-.19-.67-.04-.67.1-2.64 2.45-4.7 5.38 1.44 1.97 3.07 3.79 4.95 3.99 2.26.24 3.17-.38 4.08-.86.34-.19.77.43.53.67-.24.24-.57.19-.62.58-.04.67-1.63 1.44-2.73 1.49-3.5.15-5.61-1.58-7.53-3.89-1.53 2.26-2.92 4.56-3.79 6.19-.14.82.15 1.3-.05 2.5-.09.24-.91.72-1.44.72-.33.34-.57.43-1.15.43-.67.1-1.2-1.05-1.2-1.58 2.36-3.4 4.47-6.77 6.44-9.74-1.01-1.29-2.06-2.64-3.31-3.89-1.05-1-.77-2.44-.05-2.44s1.3.1 1.35.48c1.01.1 2.16 1.78 3.46 3.75 3.46-5.09 6.53-8.59 9.75-8.59.58 0 .91.67 1.25.53.34-.14 2.21-.14 2.26.05zm9.598 4.274c-.336 1.056-1.775 2.64-2.16 3.023-1.104 1.44-2.447 6.05-2.592 8.4-.04.865.39.913 1.59.433 2.36-.91 7.35-5.376 8.98-8.977-.09-.48.19-1.248.72-1.344.34-.05 1.06 0 1.63.14.34.09.91 1.49.77 2.4-.05.19-.53.29-.77.48-.29 1.48-1.15 7.68 0 8.21 1.87.86 11.91-6.96 14.4-10.08.48.09.48.67 0 1.24-4.46 5.42-12.53 11.04-14.49 10.89-.33-.24-.57-.05-.86-.24-2.93-1.68-2.45-5.81-1.77-8.12.1-.34 0-.43-.24-.1-2.35 3.07-6.24 7.34-8.02 8.21-1.1.52-1.53.57-1.87.33s-.77.62-1.63.34-1.73-1.35-1.2-3.36c0-2.69 3.31-10.71 4.47-14.55 2.02-1.11 3.32 1.92 3.08 2.64z"/><path d="M29.552-224.205c0-.336.77-.72 1.248-.72.48 0 1.968.768 2.208 1.296.48 1.06-1.536 5.33-2.496 8.5-.144.48.145.53.384.19 1.73-2.06 9.313-8.4 11.617-8.4.912 0 2.688 1.92 2.688 3.32 0 1.35-1.15 2.16-2.2 1.97-.77-.14-1.15-1.97-1.77-2.06-2.93.39-8.35 5.28-11.42 8.79-.48.91-1.1 3.46-1.73 4.37-.62-.1-1.1.58-1.39.53-.29-.05-1.44-.96-1.15-1.68 1.54-3.6 4.18-10.27 4.47-15.07-.24-.05-.43-.67-.43-1.01zm22.512.528c.528.096 1.536.576 1.057 1.44-1.39 2.64-4.32 7.2-5.08 11.616-.29 1.58.34 1.24.87.67.53-.67 8.6-9.99 10.42-9.99 1.97 0 3.12 5.47 2.69 11.09.96-.68 1.92-1.06 2.79-1.11 1.2 0 2.21.96 2.35 2.21.15.86-.33 1.63-.91 1.82-.57.19-.96-.24-1.87-.77-.72.05-1.73.57-2.83 1.44-1.15 5.85-4.03 14.21-6.67 16.7-.81.81-1.92-.43-2.16-1.68-.91-4.37 2.88-12.29 7.01-16.66.44-3.36.39-6.63-.19-9.36-.19-.82-.62-1.16-1.58-.48-5.42 3.79-8.2 11.47-10.89 11.81-1.05.14-2.11-1.01-2.06-2.26 0-.34.24-.72.29-1.11.39-4.46 2.74-9.98 5.19-14.98.24-.48 1.1-.53 1.63-.43zm6.913 20.882c-2.208 2.592-4.224 6.24-4.32 10.08-.047.913.192 1.057.625.24 1.63-3.07 2.88-6.672 3.695-10.32zm28.078-9.313c-.72 3.84.72 5.186 3.84 4.128 4.416-1.487 10.13-5.616 14.113-8.4.528-.24.288.624-.144 1.008-3.072 2.736-10.273 8.16-14.257 9.17-.48.144.144.287-.192.383-4.272 1.35-6.77-2.16-6.05-6.43.96-5.66 5.042-8.59 5.474-8.93s0-.62.43-.91c2.3-1.53 4.27-1.73 4.89-.91.19.24.43-.29.72-.09.77.48 1.82 1.49 1.82 2.4 0 .96-.77 1.78-1.63 1.78-.92 0-1.73-.29-1.97-1.29-2.26-.38-6.29 4.09-7.06 8.12z"/><path d="M113.168-222.427c0 .768-.72 1.68-1.008 1.68-.912 0-1.2-1.2-1.73-1.2-1.535 0-6.478 7.297-6.478 11.52 0 .816.096 1.97.48 1.97s1.392-1.49 1.87-1.68c.29-.05 3.122-4.227 4.033-6.578.048-1.776.528-2.592 1.152-2.592 1.008 0 2.304.575 2.304.863 0 .385.39.77.44.96.05.192.05 1.01.1 1.345.19 2.02 1.15 8.02 4.13 8.02 1.35 0 2.31-.43 2.64-.48.34-.05.77.44.77.91 0 .24-1.1 1.01-3.36 1.01-1.39 0-2.59-.29-3.17-1.15-1.53-.57-3.02-3.98-3.26-6.14-.05-.43-.43-.57-.77-.09-.96 1.35-2.11 3.7-3.26 4.85-1.15 1.92-2.73 2.93-4.32 2.93-1.53 0-2.54-1-2.54-3.64 0-4.37 5.04-14.3 9.6-14.3 1.25 0 2.4 1.2 2.4 1.83zm17.568-2.018c.24.048.527 1.248.432 1.68-.096.433-.144 0-.528.433-1.2 2.784-4.8 11.185-4.176 12.193 2.16-2.25 7.057-9.69 12.385-13.2.43-.28.91-.38 1.63-.52 1.82-.38 2.35 2.02 1.1 4.9-.15.34-.72.48-.53.91-.43 1.97-1.97 5.38-1.87 7.92.05 1.11.43 1.54 1.44 1.11 3.69-1.63 9.5-6.91 12.62-10.41.28.1.76.82.43 1.2-3.65 4.46-9.46 9.6-12.87 11.23-2.83 1.35-4.52.19-4.61-1.77-.05-.67.33-.43.28-.91-.53-2.01 2.21-7.25 2.83-10.9.09-.67-.39-.48-1.06-.05-5.04 3.17-8.6 9.56-11.38 14.07-.29.48-2.69.77-2.84-.33-.58-.29-.72-2.21-.43-3.5.91-4.03 3.07-10.18 5.09-13.92.52-.14 1.63-.14 2.01-.1z"/><path d="M169.233-228.91c1.44-3.84 2.833-7.152 3.457-8.784 1.056-2.256 1.87-4.85 2.783-4.85 1.057 0 1.44.625 1.393 1.68.24 0 .624.337 0 1.97-.912 2.352-3.216 7.487-6.577 11.568-1.06 3.12-2.5 7.777-3.03 12.673-.67 6.048 1.73 7.682 5.23 5.81 3.84-2.065 11.47-13.154 13.49-17.426.19-.09.48-.14.67-.04.33.15.77.77.38 1.35-3.22 4.95-8.98 14.5-13.44 17.43-4.32 2.93-8.74 2.21-8.36-6 .14-2.93 1.1-6.77 2.3-10.51-1.2 1.59-2.45 3.12-3.74 4.66.38.77.48 1.54.38 2.21-.05.34.28-.24.33.58.09 1.92-1.78 2.98-2.74 2.59-.48-.19-.58-.62-.62-1.15.24-.58.43-1.2.48-1.78-1.78 2.07-3.61 4.03-5.33 5.81-.92 1.78-2.45 2.98-3.99 3.65-3.94 1.68-4.51-2.64-3.22-5.56 2.97-6.62 7.53-8.98 9.98-8.98 1.63 0 2.88.58 3.74 1.35 2.59-3.02 4.75-5.81 6.38-8.21zm-7.825 9.89c-.384-.768-1.057-1.247-1.968-1.247-3.313 0-7.01 5.136-7.97 7.152-2.11 4.944.434 3.937 3.89.48 2.16-2.16 4.223-4.32 6.048-6.384z"/><path d="M186.222-219.692c-.96 1.536-1.248 2.496-1.248 3.89 0 3.743.864 7.583 4.32 7.583 1.584 0 4.08-.91 6.672-2.35-.048-.52-.048-1.01 0-1.44.385-4.8 4.128-9.79 8.594-12.67.768-.48 1.056-.09 1.296.05.24.15.384-.29.768-.29.96 0 2.544 2.69 2.64 4.32.05.87-.336 1.44-.768 1.83-.096.1.048.58-.288.96-.96 1.15-4.896 4.66-9.36 7.54.432 2.16 2.304 2.07 5.855.87 4.128-1.34 9.505-4.75 13.777-9.5.384-.05 1.392.05.672.91-2.496 2.98-10.32 10.8-17.857 11.38-2.832.96-4.27-.48-4.896-2.2-2.88 1.59-5.76 2.74-8.07 2.74-2.45 0-5.71-1.92-5.71-9.26 0-8.88 5.57-22.51 9.89-27.55.52-1.82 1.58-2.49 2.49-2.49.57 0 1.53 1.39 1.53 2.31s-.87 2.5-1.92 3.79c-1.78 6.15-4.47 13.4-8.4 19.64zm.145-5.713c-.433 1.584-.24 2.256.768.384 2.305-4.28 3.648-8.36 4.417-10.9.24-.72.385-1.54.145-1.54-.192 0-1.008 1.34-1.25 1.77-.19.43-.19.14-.48.67-1.392 2.64-2.64 6.04-3.6 9.6zm12.672 11.425c-.39 1.536-.05 1.68 1.2.816 3.84-2.64 7-5.81 7.1-7.92 0-.48-1.39-1.296-1.78-1.296-2.02 0-5.43 4.033-6.53 8.4z"/><path d="M220.686-208.364c2.256 0 3.408-.576 3.647-.912.288-.384.24-.815-.384-1.344-1.78-1.536-4.61-3.264-6.97-5.81-1.54-.19-1.83-3.647-.58-4.367 3.36-2.064 8.11-5.04 11.28-5.04.33 0 .67.095.91.335.72.624 1.05 2.016 1.05 2.592s-.24.912-.67.576c-2.16-.24-7.92 2.4-9.99 3.984-.48 2.688 5.42 4.896 7.58 7.344 1.53 1.73 1.2 3.216-.1 3.84-3.99 2.016-10.95-.432-13.73-2.688-.67-.527-.1-.815.24-.575 1.92 1.21 5.38 2.07 7.68 2.07zm35.52-25.776c-2.257 0-4.37 1.392-4.37 3.695-.48 3.265 2.21 5.232 3.745 5.232.96 0 2.79-.24 3.12-.384.48.575.73 1.2.73 1.73 0 .527-.48.815-1.73.96-1.34.144-3.6-.385-4.22-.29-3.64.577-7.44 2.45-7.92 9.026.58 5.76 5.62 7.05 10.71 7.1 3.17.05 6.77-1.68 8.07-3.7.77-3.07-.43-5.76-2.88-5.71-3.22 1.29-6.29 2.69-7.58 2.93-.67.14-2.16-.58-2.4-1.01-.19-.53-.14-1.15 1.83-1.68 4.08.19 12.19-4.61 17.23-4.61 2.5 0 2.07 2.35.77 2.54-1.1-.91-3.74-.39-6.72.62 1.49 1.15 2.31 2.88 2.31 4.08-.05 6.19-6.81 8.35-12.34 8.5-4.13 0-10.99-2.11-11.47-8.21-1.15-5.28 2.5-10.42 9.27-11.38.29-.05.29-.24.05-.39-1.39-.82-3.02-2.31-2.69-5.47 1.16-3.56 2.74-5.43 7.01-5.43 4.03 0 7.15 1.87 7.73 3.55s-.57 2.4-1.49 2.21c-.86-1.44-4.17-3.94-6.72-3.94zm44.738 5.23c1.438-3.84 2.832-7.152 3.456-8.784 1.056-2.256 1.872-4.85 2.784-4.85 1.056 0 1.44.625 1.392 1.68.24 0 .624.337 0 1.97-.912 2.352-3.216 7.487-6.576 11.568-1.056 3.12-2.496 7.777-3.023 12.673-.673 6.048 1.487 8.018 5.09 6.336 3.12-1.44 6.19-5.23 6.19-5.473.192-.096.48-.144.672-.048.33.144.81.815.38 1.344-1.2 1.393-3.89 4.032-6.67 5.664-4.08 2.4-8.02.816-7.68-6.72.14-2.928 1.1-6.77 2.3-10.514-1.2 1.584-2.45 3.12-3.75 4.657.38.77.48 1.536.38 2.208-.05.34.29-.24.33.58.1 1.92-1.78 2.98-2.74 2.59-.48-.19-.58-.62-.63-1.15.24-.57.43-1.2.48-1.77-1.78 2.07-3.6 4.03-5.33 5.81-.92 1.78-2.45 2.98-3.99 3.65-3.94 1.68-4.52-2.64-3.22-5.57 2.98-6.62 7.54-8.97 9.98-8.97 1.63 0 2.88.58 3.74 1.35 2.59-3.02 4.75-5.8 6.39-8.2zm-7.826 9.89c-.384-.768-1.056-1.247-1.968-1.247-3.313 0-7.01 5.136-7.97 7.152-2.11 4.944.433 3.937 3.89.48 2.16-2.16 4.223-4.32 6.048-6.384z"/><path d="M324.655-218.683c1.296-1.776 2.496-3.6 3.456-5.28 1.01-4.608 2.36-7.873 3.03-9.697.19-.72 1.87-4.176 2.16-4.56s-.05-.722.34-1.153 2.12-1.873 2.45-1.92c1.83-.336 2.98 2.208 2.98 5.376 0 4.032-.09 6.192-1.34 6.097-.19-.912-.43-6.864-2.06-6.864-1.05 0-2.35 2.688-2.4 3.264-.04.576-.28.24-.57.72-1.68 2.88-3.07 8.545-3.84 13.73 3.12-.24 6.39-.577 9.6-.96 1.2-5.042 2.84-8.93 3.46-10.61.19-.624 1.87-3.984 2.11-4.32.29-.288-.04-.624.34-.96.34-.384 1.44-1.344 1.73-1.392 1.68-.288 3.46 1.15 3.46 2.16 0 2.16-.48 4.417-1.48 4.607-.05-.96-.62-2.11-1.58-2.11s-1.44 1.295-1.82 2.015c-.24.432-.67.192-.91.624-1.2 2.208-2.49 5.81-3.45 9.793 4.08-.528 8.02-1.056 11.38-1.536.82-.09.72-.62 1.39-.62s2.83.24 2.83 1.11c0 1.06-1 1.15-2.59 1.49-.48.1-.53-.28-1.25-.19l-12.19 1.49c-.67 3.27-1.1 6.68-1.1 9.65 0 .77-.29 1.01-.29 1.2 0 .19.24.43.24.82.05 3.17.1 6.68 1.35 10.42.43 1.3 1.63 1.88 1.63 2.4 0 .48-1.15 1.59-1.58 1.59-.43 0-.62-.33-.77-.48-1.58-1.44-2.4-1.82-4.27-3.31-.48-.38-.24-.91.29-.91.72.63 1.2.96 2.35 1.64.58-.05.53-.77.48-1.06-.77-3.12-1.25-5.81-1.25-11.57 0-3.55.43-7.05 1.11-10.17l-9.41 1.1c-.19 1.78-.34 3.41-.34 4.8 0 .87-.29 1.15-.29 1.39s.24.48.24.96c.05 3.65.48 11.24 1.107 16.37.048.58.96 1.92.96 2.5s-1.92 1.63-2.4 1.63-.624-.53-.864-.57c-3.12-.53-6.48-7.06-6.48-10.32 0-.48.1-.82.1-.96 0-.15-.195-.29-.24-.53-.15-1.2.045-6.53.43-8.4.095-.48.19-.77.48-.77s.525.43.48.72c-.24 1.83-.34 5.48-.34 6.53 0 2.5 1.826 10.8 6.34 11.76-.577-6.19-1.105-11.66-1.105-18.77 0-2.21.095-4.22.285-6.14l-2.445.24c-4.13 5.57-9.65 11.47-11.716 11.52-1.73.82-3.46-.57-3.07-2.25-.77-2.83 4.51-14.11 3.26-16.66.72-.67 1.68-.62 1.97-.29.29.34-.14.72.15.91.67.48 1.1 1.3 1.2 2.21.34.92-2.93 7.78-3.94 11.57-.48 1.78-.34 2.45 1.01 2.11 2.64-1.2 6.29-4.85 9.6-8.97H323c-1.97.2-2.592-.48-2.592-.96 0-1 .86-1.1 1.25-1.1.95.01 2.01-.04 3.065-.09zm-8.257-16.37c.048-.91 2.784-1.247 3.264-1.295.336.336.673.672.673 1.008s-.288 2.4-.912 2.496c-1.347.24-3.073-.914-3.025-2.208zm11.136 13.874c-.432.77-.96 1.59-1.536 2.4.384 0 .77-.04 1.2-.09l.336-2.3z"/><path d="M357.34-220.796c-.337 1.056-1.775 2.64-2.16 3.023-1.104 1.44-2.448 6.05-2.593 8.4-.048.865.384.913 1.584.433 2.36-.91 7.35-5.376 8.98-8.977-.09-.48.19-1.248.72-1.344.34-.05 1.06 0 1.64.14.34.09.91 1.49.77 2.4-.05.19-.53.29-.77.48-.29 1.48-1.15 7.68 0 8.21 1.87.86 11.91-6.96 14.4-10.08.48.09.48.67 0 1.24-4.46 5.42-12.53 11.04-14.49 10.89-.33-.24-.57-.05-.86-.24-2.93-1.68-2.45-5.81-1.77-8.12.1-.34 0-.43-.24-.1-2.35 3.07-6.24 7.34-8.02 8.21-1.1.52-1.53.57-1.87.33-.33-.24-.77.62-1.63.33s-1.73-1.35-1.2-3.36c0-2.69 3.32-10.71 4.47-14.55 2.02-1.11 3.31 1.92 3.07 2.64z"/><path d="M382.348-208.364c2.257 0 3.407-.576 3.647-.912.288-.384.24-.815-.384-1.344-1.77-1.536-4.6-3.264-6.96-5.81-1.53-.19-1.82-3.647-.57-4.367 3.36-2.064 8.12-5.04 11.28-5.04.34 0 .68.095.92.335.72.624 1.06 2.016 1.06 2.592s-.24.912-.67.576c-2.16-.24-7.92 2.4-9.98 3.984-.48 2.688 5.43 4.896 7.59 7.344 1.54 1.73 1.2 3.216-.09 3.84-3.98 2.016-10.94-.432-13.73-2.688-.67-.527-.09-.815.24-.575 1.92 1.21 5.38 2.07 7.68 2.07zm34.512-9.646c-2.495 2.975-10.32 10.8-17.856 11.376-4.513 1.536-5.52-3.024-5.328-5.376.385-4.8 4.128-9.793 8.594-12.673.768-.48 1.056-.097 1.296.048.24.144.384-.288.768-.288.96 0 2.545 2.688 2.642 4.32.048.863-.337 1.44-.77 1.823-.096.097.048.576-.288.96-1.68 2.064-4.752 4.656-9.408 7.2.288 2.497 2.16 2.45 5.904 1.2 4.128-1.343 9.505-4.75 13.777-9.504.39-.047 1.39.048.67.913zm-20.354 5.375c3.024-1.44 8.448-5.474 8.545-8.45 0-.48-1.39-1.295-1.77-1.295-2.21 0-6.14 4.848-6.77 9.745z"/><path d="M416.427-224.205c0-.336.77-.72 1.248-.72s1.97.768 2.208 1.296c.48 1.06-1.535 5.33-2.496 8.5-.145.48.145.53.385.19 1.73-2.06 9.313-8.4 11.617-8.4.91 0 2.68 1.92 2.68 3.32 0 1.35-1.15 2.16-2.21 1.97-.77-.14-1.15-1.97-1.78-2.06-2.93.39-8.36 5.28-11.43 8.79-.48.91-1.11 3.46-1.73 4.37-.63-.1-1.11.58-1.4.53-.29-.05-1.44-.96-1.15-1.68 1.53-3.6 4.17-10.27 4.46-15.07-.24-.05-.44-.67-.44-1.01zm23.615 15.84c2.257 0 3.408-.575 3.648-.91.288-.385.24-.816-.384-1.345-1.776-1.536-4.608-3.264-6.96-5.81-1.537-.19-1.825-3.647-.577-4.367 3.35-2.064 8.11-5.04 11.28-5.04.33 0 .67.095.91.335.72.624 1.05 2.016 1.05 2.592s-.24.912-.67.576c-2.16-.24-7.92 2.4-9.99 3.984-.48 2.688 5.42 4.896 7.58 7.344 1.53 1.73 1.2 3.216-.1 3.84-3.99 2.016-10.95-.432-13.73-2.688-.67-.527-.1-.815.24-.575 1.92 1.21 5.38 2.07 7.68 2.07zm33.552-27.41c.433 0 2.208.96 2.16 1.68-.145 1.68-1.632 4.466-2.256 6.53-.24.77-.528.48-1.057.433-1.29 2.977-3.26 10.85-4.22 15.697-.14.72.48 1.008.77.625 3.55-4.514 10.32-11.617 10.95-11.617s1.68.48 1.97.815c.53.672.19 2.017.72 2.736.43 1.152-1.92 8.593-1.2 10.417 3.55-2.01 8.98-7.29 12.24-10.89.63-.19 1.4.77.53 1.54-3.94 3.6-10.56 12.24-14.02 12.34-.52 0-1.44-1.2-1.05-2.88-1.01-1.68 1.49-9.12.63-10.85-2.4.63-6.38 5.67-8.73 8.84-.29 1.92-1.01 2.74-1.68 3.36-.43.39-.82.48-1.15.48s-.96.96-1.34.96-.81-.48-1.01-1.05c-.09-.33 0-.62.1-1.25 1.49-12.72 6.29-21.07 6.48-27.31.25-.33.77-.57 1.21-.57z"/><path d="M501.962-222.427c0 .768-.72 1.68-1.008 1.68-.912 0-1.2-1.2-1.728-1.2-1.536 0-6.48 7.297-6.48 11.52 0 .816.096 1.97.478 1.97.384 0 1.394-1.49 1.872-1.68.288-.05 3.12-4.227 4.032-6.578.048-1.776.528-2.592 1.152-2.592 1.008 0 2.304.575 2.304.863 0 .385.385.77.433.96.05.192.05 1.01.097 1.345.19 2.02 1.15 8.02 4.13 8.02 1.343 0 2.303-.43 2.64-.48.335-.05.77.44.77.91 0 .24-1.105 1.01-3.36 1.01-1.394 0-2.594-.29-3.17-1.15-1.536-.57-3.023-3.98-3.264-6.14-.048-.43-.434-.57-.77-.09-.96 1.35-2.11 3.7-3.264 4.85-1.152 1.92-2.736 2.93-4.32 2.93-1.536 0-2.545-1-2.545-3.64 0-4.37 5.05-14.3 9.61-14.3 1.25 0 2.4 1.2 2.4 1.83zm17.568-2.018c.24.048.53 1.248.434 1.68-.097.433-.145 0-.527.433-1.2 2.784-4.802 11.185-4.178 12.193 2.16-2.25 7.05-9.69 12.38-13.2.43-.28.91-.38 1.63-.52 1.82-.38 2.35 2.02 1.1 4.9-.15.34-.72.48-.53.91-.44 1.97-1.97 5.38-1.87 7.92.05 1.11.43 1.54 1.44 1.11 3.69-1.63 9.5-6.91 12.62-10.41.29.1.77.82.43 1.2-3.65 4.46-9.46 9.6-12.87 11.23-2.83 1.35-4.52.19-4.61-1.77-.05-.67.33-.43.28-.91-.53-2.01 2.21-7.25 2.83-10.9.09-.67-.39-.48-1.06-.05-5.04 3.17-8.6 9.56-11.38 14.07-.29.48-2.69.77-2.83-.33-.58-.29-.72-2.21-.43-3.5.91-4.03 3.07-10.18 5.09-13.92.52-.14 1.63-.14 2.01-.1z"/><path d="M559.802-208.17c-5.185 5.23-8.305 2.255-8.16-2.257-.24-1.824-.048-3.792.433-5.904.336-1.44-.288-1.11-.768-.48-2.018 2.64-3.984 5.23-6.24 7.58-.913 1.82-2.257 3.4-3.938 3.4-3.61 0-3.27-3.46-2.55-6.19 1.63-6.39 5.18-9.99 7.73-9.99 1.77 0 4.6.72 5.13 2.35 1.87-2.79 3.36-5.43 4.6-7.68 1.44-3.27 3.02-6.58 4.36-9.65.96-3.03 2.11-5.19 3.02-5.19 1.05 0 1.73 1.77 1.39 3.02-2.6 5.09-3.65 6.48-4.66 7.97-2.79 5.71-5.95 12.81-6.72 17.81-.77 4.89 1.44 8.11 5.95 4.32.58-.48 1.11.14.38.86zm-10.417-8.546c.77-1.152.624-1.488.146-1.92-.81-.72-2.01-1.104-3.16-1.104-1.68 0-4.08 2.93-5.52 8.257-.96 3.553-.24 4.37 3.27.864 1.97-1.96 3.75-4.08 5.28-6.09zm55.732-5.087c1.344-.624 2.496 0 2.592.624.09.68-.05 1.11-1.49 1.54-4.51 1.2-10.76 5.67-14.16 8.21-.68 2.21-1.44 4.18-2.21 5.04-.48.48-1.59.53-2.4.44-.1.15-.19.24-.34.34-1.3.53-1.97-.86-1.3-1.77.77-.96 1.87-2.11 3.26-3.41.38-1.24 2.06-7.15 2.11-9.89.05-1.48-.53-1.63-1.92-.43-3.41 2.88-12.63 18.96-15.55 29.33-.2.63-.05 1.3-.15 1.92-.24 1.25-1.35 2.07-2.26 2.26-.58.1-1.97-.57-1.54-1.77 3.6-9.6 7.29-22.46 9.94-33.22.14-.57.86-.28 1.29-.24.52 0 2.06.77 1.63 2.5-.34 1.73-5 12.72-5.48 14.07-.39 1.35.09.87.62 0 2.49-4.46 9.65-18.86 13.97-18.48.62 0 2.21 1.68 2.26 3.99 0 1.1-.48 4.03-1.25 6.91 3.59-2.83 8.01-5.76 12.33-7.92z"/><path d="M606.888-224.397c.336-1.535 2.496-1.92 3.072-.815.193.384.336.72.53 1.008 1.103.768 2.255 2.208 3.214 3.168 2.93 1.73 6.816 1.536 11.28-.048.29-.864.577-1.68.77-2.354 2.017-1.104 3.313 1.92 3.07 2.642-.335 1.056-1.15.815-1.534 1.2-1.104 1.44-3.072 7.873-3.217 10.225-.047.86.385.91 1.584.43 2.354-.91 7.346-5.38 8.977-8.98-.096-.48.193-1.25.723-1.35.336-.05 1.055 0 1.63.14.337.09.913 1.49.77 2.4-.048.19-.526.29-.77.48-.286 1.48-1.15 7.68 0 8.21 1.874.86 11.907-6.96 14.4-10.08.48.09.48.67 0 1.24-4.464 5.42-12.526 11.04-14.495 10.89-.336-.24-.576-.05-.863-.24-2.93-1.68-2.45-5.81-1.78-8.12.09-.34 0-.43-.24-.1-2.35 3.07-6.24 7.34-8.02 8.21-1.11.53-1.54.57-1.88.33s-.77.62-1.63.33c-.87-.28-1.73-1.34-1.2-3.36 0-1.87 1.58-6.28 2.97-10.08-2.59.82-4.99 1.11-7.25 1.01.24.48.28 1.01.19 1.49-.34 1.49-5.91 7.15-8.36 9.07-1.59 1.2-3.32 1.58-4.8 1.15-3.32-.96-3.07-4.51-2.64-6.57.48-2.55 2.83-5.67 2.83-10.37 0-.82 1.63-1.11 2.64-1.2zm1.297 2.977c0 .384-.096.72-.19 1.008-.528 1.296-5.714 7.394-3.94 11.905.626 1.584 2.69.19 4.274-1.057.91-.768 4.41-3.84 5.71-6.576.33-.72.33-1.536.09-2.257-2.36-.574-4.37-1.63-5.96-3.023z"/><path d="M650.857-224.205c0-.336.768-.72 1.248-.72s1.97.768 2.21 1.296c.478 1.06-1.538 5.33-2.497 8.5-.146.48.143.53.383.19 1.73-2.06 9.32-8.4 11.62-8.4.91 0 2.69 1.92 2.69 3.32 0 1.35-1.15 2.16-2.21 1.97-.76-.14-1.15-1.97-1.77-2.06-2.93.39-8.35 5.28-11.43 8.79-.48.91-1.1 3.46-1.72 4.37-.62-.1-1.1.58-1.39.53-.29-.05-1.44-.96-1.15-1.68 1.54-3.6 4.18-10.27 4.47-15.07-.24-.05-.43-.67-.43-1.01zm38.305 6.195c-2.496 2.975-10.322 10.8-17.857 11.376-4.514 1.536-5.52-3.024-5.328-5.376.385-4.8 4.13-9.793 8.594-12.673.77-.48 1.06-.097 1.3.048.24.144.39-.288.77-.288.96 0 2.55 2.688 2.65 4.32.05.863-.33 1.44-.77 1.823-.09.097.05.576-.29.96-1.68 2.064-4.75 4.656-9.4 7.2.29 2.497 2.16 2.45 5.9 1.2 4.13-1.343 9.51-4.75 13.78-9.504.39-.047 1.39.048.68.913zm-20.354 5.375c3.023-1.44 8.447-5.474 8.545-8.45 0-.48-1.393-1.295-1.775-1.295-2.21 0-6.147 4.848-6.77 9.745z"/><path d="M706.105-208.17c-5.186 5.23-8.305 2.255-8.16-2.257-.24-1.824-.047-3.792.432-5.904.336-1.44-.287-1.11-.768-.48-2.02 2.64-3.99 5.23-6.24 7.58-.92 1.82-2.26 3.4-3.94 3.4-3.6 0-3.27-3.46-2.55-6.19 1.63-6.39 5.18-9.99 7.73-9.99 1.77 0 4.6.72 5.13 2.35 1.87-2.79 3.36-5.43 4.6-7.68 1.44-3.27 3.02-6.58 4.37-9.65.96-3.03 2.11-5.19 3.02-5.19 1.06 0 1.73 1.77 1.39 3.02-2.6 5.09-3.65 6.48-4.66 7.97-2.79 5.71-5.96 12.81-6.72 17.81-.77 4.89 1.44 8.11 5.95 4.32.58-.48 1.1.14.38.86zm-10.416-8.546c.76-1.152.62-1.488.14-1.92-.82-.72-2.02-1.104-3.17-1.104-1.68 0-4.08 2.93-5.52 8.257-.96 3.553-.24 4.37 3.26.864 1.96-1.96 3.74-4.08 5.28-6.09zm30.62-7.632c.29.336-.15.72.14.91.67.48.91 1.298.81 2.45.09 2.063-2.83 7.104-3.84 10.896-.48 1.775-.24 2.88 1.1 2.544 4.32-2.017 10.65-7.153 13.92-10.753.62-.2.91.52.19 1.43-2.88 3.55-12.44 11.28-14.5 11.33-1.73.81-3.46-.58-3.07-2.26-.77-2.83 4.51-13.73 3.26-16.27.72-.68 1.68-.63 1.96-.29zm1.44-10.704c.05-.912 2.78-1.248 3.26-1.296.34.336.67.672.67 1.008s-.29 2.4-.92 2.496c-1.35.24-3.08-.914-3.03-2.208z"/><path d="M742.97-224.445c.24.048.526 1.248.433 1.68-.098.433-.146 0-.53.433-1.343 3.216-4.03 10.08-4.175 12.193 2.16-2.25 7.297-9.55 12.385-13.2.432-.28 1.057-.67 1.777-.67 1.63 0 2.063 2.31 1.773 4.71-.047.39-.48.91-.287 1.35-.432 1.97-1.537 5.04-1.44 7.59.05 1.11.626 2.16 1.73 2.16 1.682 0 3.217-.52 5.52-2.06.288.1.386.77-.048 1.06-1.633 1.15-3.217 2.45-4.56 2.55-1.25.44-2.833.63-3.218-.14-.912-.24-1.73-2.3-1.775-2.78-.527-2.01.527-5.28 1.104-8.93.24-1.58-.68-2.4-1.54-1.73-4.71 3.65-8.07 9.56-11 13.69-.34.48-2.69.77-2.84-.33-.58-.29-.72-2.21-.43-3.5.91-4.03 3.07-10.17 5.09-13.92.53-.14 1.63-.14 2.01-.09zm34.8-9.505c.524-.047 3.645-.143 6-.143.19-.624.384-1.2.478-1.68 1.824-1.152 2.496.432 2.545 1.775 4.13.24 11.328.96 14.736 1.392.43.05.48.288.33.576-.15.24-.39.816-.96.77-3.99-.337-9.55-.53-14.64-.577-.72 1.296-1.97 2.88-2.59 4.128-.91 1.73-1.92 3.94-2.59 6.44 3.6.39 12.04-.24 14.2-2.25 1.96-.14 1.82 1.35 1.2 2.02-1.54 1.63-11 3.17-15.85 1.97-.29 1.44-.39 2.98-.34 4.52.14 3.31 1.68 6.24 5.8 6.24 5.09 0 12.34-4.51 15.27-7.73.57.05.96.77.96 1.15 0 .48-.39 1.06-1.01 1.68-3.79 3.84-10.42 7.01-15.89 7.01-4.18 0-7.4-2.98-7.4-8.93 0-4.8 2.97-11.47 4.85-16.22-2.55 0-4.85.05-6.53.15-.38-.33-.72-2.11 1.39-2.25zm32.542 9.505c.238.048.527 1.248.432 1.68-.096.433-.145 0-.527.433-1.2 2.784-4.8 11.185-4.178 12.193 2.16-2.25 7.05-9.69 12.38-13.2.43-.28.91-.38 1.63-.52 1.82-.38 2.35 2.02 1.1 4.9-.15.34-.72.48-.53.91-.43 1.97-1.97 5.38-1.87 7.92.05 1.11.43 1.54 1.44 1.11 3.69-1.63 9.5-6.91 12.62-10.41.29.1.77.82.43 1.2-3.65 4.46-9.46 9.6-12.87 11.23-2.83 1.35-4.52.19-4.61-1.77-.05-.67.33-.43.29-.91-.53-2.01 2.2-7.25 2.83-10.9.09-.67-.39-.48-1.06-.05-5.04 3.17-8.6 9.56-11.38 14.07-.29.48-2.69.77-2.83-.33-.58-.29-.72-2.21-.44-3.5.91-4.03 3.07-10.18 5.09-13.92.53-.14 1.63-.14 2.02-.1z"/><path d="M828.312-189.017c2.063.48 4.512.48 6.96-2.16 5.09-5.52 7.25-18.29 7.823-27.22.098-1.534-.287-1.486-1.008-.19-1.92 3.456-2.977 6.19-6.385 9.84-.576.48-.672.05-1.152.53-2.16 1.967-5.375-.193-5.375-3.217 0-6.385 6.48-11.04 10.943-12.146.96-.72 2.354-1.728 3.17-1.584.19.048.336.096.48.192.433-.336.91-.433 1.15-.433 1.01 0 1.153 1.296 1.056 2.64-.91 12.962-2.928 25.347-8.977 32.26-2.783 3.168-6.912 3.983-9.12 2.544-.864-.58-.192.24-1.296-.2-2.11-.87-7.2-3.32-8.01-7.06.63-.29 2.07 4.46 9.75 6.19zm3.407-21.793c-.05 1.15 1.34 1.392 2.64-.192 2.06-1.536 4.17-5.04 6.14-8.785.48-.912.24-1.248-.48-1.152-.82.1-1.63.05-2.26 0-3.27 2.26-5.91 6.48-6.05 10.13zm30.48-26.884c.91.288 1 2.256-.24 2.93-1.15 2.495-2.16 6.383-3.6 6.43-2.02 4.946-3.84 11.666-4.28 16.85-.15 1.825-.19 4.082 1.92 3.554 2.97-.77 9.17-6.72 12.48-10.753.62-.192.81.48.19 1.44-2.64 3.983-9.55 10.8-12.58 11.424-4.66.96-4.52-3.45-4.13-5.13-.1-5.76 5.81-21.6 8.26-26.88.52-.24 1.58-.38 1.96.15z"/><path d="M876.838-222.427c0 .768-.72 1.68-1.008 1.68-.912 0-1.2-1.2-1.73-1.2-1.534 0-6.48 7.297-6.48 11.52 0 .816.1 1.97.48 1.97s1.394-1.49 1.872-1.68c.29-.05 3.12-4.227 4.033-6.578.047-1.776.527-2.592 1.152-2.592 1.008 0 2.305.575 2.305.863 0 .385.383.77.432.96.05.192.05 1.01.096 1.345.19 2.02 1.152 8.02 4.13 8.02 1.343 0 2.304-.43 2.64-.48.336-.05.77.44.77.91 0 .24-1.105 1.01-3.36 1.01-1.394 0-2.593-.29-3.17-1.15-1.534-.57-3.022-3.98-3.263-6.14-.05-.43-.434-.57-.77-.09-.96 1.35-2.113 3.7-3.264 4.85-1.152 1.92-2.736 2.93-4.32 2.93-1.537 0-2.545-1-2.545-3.64 0-4.37 5.04-14.3 9.602-14.3 1.247 0 2.398 1.2 2.398 1.83zm17.568-2.018c.24.048.527 1.248.434 1.68-.098.433-.145 0-.527.433-1.2 2.784-4.803 11.185-4.178 12.193 2.16-2.25 7.057-9.69 12.387-13.2.432-.28.91-.38 1.63-.52 1.825-.38 2.355 2.02 1.105 4.9-.145.34-.72.48-.527.91-.432 1.97-1.97 5.38-1.87 7.92.046 1.11.43 1.54 1.438 1.11 3.695-1.63 9.504-6.91 12.625-10.41.287.1.768.82.432 1.2-3.648 4.46-9.457 9.6-12.865 11.23-2.832 1.35-4.512.19-4.607-1.77-.05-.67.336-.43.287-.91-.527-2.01 2.21-7.25 2.832-10.9.098-.67-.383-.48-1.055-.05-5.04 3.17-8.594 9.56-11.377 14.07-.29.48-2.69.77-2.832-.33-.576-.29-.723-2.21-.434-3.5.912-4.03 3.072-10.18 5.088-13.92.526-.14 1.63-.14 2.014-.1z"/><path d="M934.68-208.17c-5.187 5.23-8.306 2.255-8.16-2.257-.24-1.824-.05-3.792.43-5.904.337-1.44-.286-1.11-.767-.48-2.018 2.64-3.984 5.23-6.24 7.58-.912 1.82-2.256 3.4-3.938 3.4-3.6 0-3.264-3.46-2.545-6.19 1.633-6.39 5.186-9.99 7.73-9.99 1.775 0 4.607.72 5.137 2.35 1.87-2.79 3.36-5.43 4.607-7.68 1.44-3.27 3.023-6.58 4.367-9.65.97-3.03 2.12-5.19 3.03-5.19 1.06 0 1.73 1.77 1.4 3.02-2.59 5.09-3.65 6.48-4.65 7.97-2.78 5.71-5.95 12.81-6.72 17.81-.77 4.89 1.44 8.11 5.95 4.32.58-.48 1.11.14.39.86zm-10.42-8.546c.77-1.152.626-1.488.147-1.92-.816-.72-2.018-1.104-3.168-1.104-1.69 0-4.09 2.93-5.53 8.257-.96 3.553-.24 4.37 3.26.864 1.97-1.96 3.74-4.08 5.28-6.09z"/></g><path d="M27.307 13.283c.102-.918.153-1.785.153-2.6 1.785-.715 2.652-.104 2.346 2.395 0 .103 0 .255-.05.357 5.812.356 11.37.97 14.124 2.65 1.122.715 1.122 2.908-.51 2.092-2.958-2.04-8.67-2.65-13.973-2.855-1.53 7.445-6.833 23.1-8.77 27.996-1.02 2.5-2.857 3.264-5.15 1.733-5.203-3.46-8.06-10.35-8.06-13.51 0-2.5 1.633-5.56 2.45-5.56 1.376 0-.51 2.09-.51 3.57 0 2.4 2.294 10.2 6.12 12.65 1.478.97 2.6 1.02 3.568-1.12 1.428-3.21 6.58-16.57 8.006-25.8-2.8 0-5.4.05-7.19.05-.96 0-.81.51-1.58.51-3.92-.1-6.17-2.04-6.17-2.75 0-.35.72-1.07 1.07-1.43 2.91 1.08 8.47 1.28 14.13 1.64zm13.413 12.34c.41 0 .766.56.97 1.327 1.99.05 5.56 1.836 6.833 2.805 1.58 1.122 2.855 2.906 2.5 4.437-.358 1.58-6.273 7.598-8.874 9.638-1.69 1.275-3.52 1.683-5.1 1.224-3.52-1.02-3.27-4.793-2.81-6.986.51-2.702 3.16-6.17 3.16-11.168 0-1.02 2.39-1.276 3.31-1.276zm.613 4.336c-1.428 2.29-5.966 8.46-4.284 12.69.66 1.68 2.85.2 4.53-1.12.97-.82 4.69-4.08 6.07-6.99.71-1.58.15-3.57-1.99-4.39-.92.05-3.01.3-4.34-.21zm18.257-1.53c1.224.3 1.326.2 1.632-.92 1.632-6.07 3.212-12.29 4.844-17.19.357-2.86.663-4.44 1.428-4.44 1.224 0 1.683 1.17 1.683 2.8 0 1.27-.714 2.85-1.377 3.82-1.53 3.52-3.212 9.38-4.487 15.45-.255 1.22-.102 1.48.663 1.73 5.558 1.83 11.22 3.52 11.73 4.9.764.35 1.325 1.07 1.325 1.73s-.76.51-.76.86c-.15 2.75-6.93 4.43-14.02 4.43-.97 0-1.12.05-1.27 1.37-.05 1.02-.1 1.93-.05 2.8 0 .61-.15 1.32-.36 1.32s-.35-.26-.56-.26c-.2 0-.3.67-.66.67s-1.12-.67-1.12-1.23c0-3.93.87-9.39 2.14-15.2-2.7-.77-5.2-1.43-6.88-1.94-1.32-.41-.3-2.6.36-2.4 1.38.41 3.42 1.02 5.76 1.633zm13.156 8.61c1.122-.82 1.02-1.58.306-1.89-2.5-.97-5.762-1.99-9.077-2.96-1.224-.36-1.53-.1-1.734 1.07l-.86 5.46c5.36.97 9.33-.21 11.37-1.69zm15.048 5.76c2.397 0 3.62-.62 3.875-.97.3-.41.25-.87-.41-1.43-1.89-1.63-4.9-3.47-7.4-6.17-1.63-.21-1.94-3.88-.61-4.64 3.57-2.2 8.62-5.36 11.98-5.36.35 0 .71.1.97.35.76.66 1.12 2.14 1.12 2.75 0 .61-.26.97-.72.61-2.3-.26-8.42 2.55-10.61 4.23-.51 2.85 5.76 5.2 8.05 7.8 1.63 1.83 1.27 3.41-.1 4.08-4.23 2.14-11.63-.46-14.59-2.86-.72-.56-.11-.87.25-.61 2.04 1.27 5.71 2.19 8.16 2.19z"/></svg>
