<svg xmlns="http://www.w3.org/2000/svg" version="1.2" baseProfile="tiny" x="0" y="0" width="1268.5" height="71.3" viewBox="-233.1 -419.3 1268.5 71.3" xml:space="preserve"><path fill="#FFFFFF" d="M-216.8-406.1l0.6-1.4c1-1 2.8 0.2 2.4 1.3l-0.4 0.8c3.7 1.1 6.3 2.8 6.3 5.7 0 3.7-7.7 6.7-10.9 8 2.1 1.3 10.6 4 10.6 9.7 0 4.3-6.2 8.7-14 8.7 -3.4 0-9.8-1.7-9.8-6.6 0-2.9 2.2-5.9 4-7.6 0.2-0.2 0.5 0.9 0.3 1.5 -1.1 2.5-1.7 4.1-1.7 6.2 0 1.7 1.3 4.2 7 4.2 5.4 0 11.9-3.1 11.9-6.9 0-3.9-6.8-6.5-11.3-7.9 -1.9 4.3-3.2 7.9-2.8 9.5 -1.5 2.4-4.4 0-2-1.9 0.9-2.7 1.9-5.3 3-7.8 -1.1-0.2-1.9-0.4-2.4-0.9 -0.9-0.9-0.2-2.4 0.7-2.4 1 0.1 2 0.1 3.2-0.1 1.4-3.3 3-6.6 4.5-10.1 -4-0.8-8.7-1.1-12-0.9 -2.3 0.2-3.1-1.5-3.4-1.9 -0.3-0.4 0.7-1.6 1-1.6C-228.3-407.6-222-407.2-216.8-406.1zM-219.9-394.4c4.8-0.9 9.7-3.2 9.7-5.8 0-1.4-2.1-2.5-5-3.3C-216.7-400.6-218.4-397.5-219.9-394.4zM-178.5-387.4c-2.7 3.2-11 11.5-19 12.1 -4.8 1.6-5.9-3.2-5.7-5.7 0.4-5.1 4.4-10.4 9.1-13.5 0.8-0.5 1.1-0.1 1.4 0.1 0.3 0.2 0.4-0.3 0.8-0.3 1 0 2.7 2.9 2.8 4.6 0.1 0.9-0.4 1.5-0.8 1.9 -0.1 0.1 0.1 0.6-0.3 1 -1.8 2.2-5 4.9-10 7.6 0.3 2.7 2.3 2.6 6.3 1.3 4.4-1.4 10.1-5 14.6-10.1C-178.8-388.4-177.8-388.3-178.5-387.4zM-200.1-381.7c3.2-1.5 9-5.8 9.1-9 0-0.5-1.5-1.4-1.9-1.4C-195.3-392.1-199.5-386.9-200.1-381.7zM-176.9-377.2c2.4 0 3.6-0.6 3.9-1 0.3-0.4 0.3-0.9-0.4-1.4 -1.9-1.6-4.9-3.5-7.4-6.2 -1.6-0.2-1.9-3.9-0.6-4.6 3.6-2.2 8.6-5.4 12-5.4 0.4 0 0.7 0.1 1 0.4 0.8 0.7 1.1 2.1 1.1 2.8s-0.3 1-0.7 0.6c-2.3-0.3-8.4 2.6-10.6 4.2 -0.5 2.9 5.8 5.2 8.1 7.8 1.6 1.8 1.3 3.4-0.1 4.1 -4.2 2.1-11.6-0.5-14.6-2.9 -0.7-0.6-0.1-0.9 0.3-0.6C-183-378.1-179.3-377.2-176.9-377.2zM-133.7-391.4c1.4-0.7 2.7 0 2.8 0.7 0.1 0.7-0.1 1.2-1.6 1.6 -4.8 1.3-11.4 6-15 8.7 -0.7 2.3-1.5 4.4-2.3 5.4 -0.5 0.5-1.7 0.6-2.5 0.5 -0.1 0.2-0.2 0.3-0.4 0.4 -1.4 0.6-2.1-0.9-1.4-1.9 0.8-1 2-2.2 3.5-3.6 0.4-1.3 2.2-7.6 2.2-10.5 0.1-1.6-0.6-1.7-2-0.5 -3.6 3.1-13.4 20.1-16.5 31.2 -0.2 0.7-0.1 1.4-0.2 2 -0.3 1.3-1.4 2.2-2.4 2.4 -0.6 0.1-2.1-0.6-1.6-1.9 3.8-10.2 7.8-23.9 10.6-35.3 0.2-0.6 0.9-0.3 1.4-0.3 0.6 0 2.2 0.8 1.7 2.7 -0.4 1.8-5.3 13.5-5.8 14.9 -0.4 1.4 0.1 0.9 0.7 0 2.7-4.7 10.3-20 14.8-19.6 0.7 0 2.3 1.8 2.4 4.2 0 1.2-0.5 4.3-1.3 7.3C-143-386-138.3-389.2-133.7-391.4zM-131.1-394.4c0.4 0 0.8 0.6 1 1.3 2 0.1 5.6 1.8 6.8 2.8 1.6 1.1 2.9 2.9 2.5 4.4 -0.4 1.6-6.3 7.6-8.9 9.6 -1.7 1.3-3.5 1.7-5.1 1.2 -3.5-1-3.3-4.8-2.8-7 0.5-2.7 3.2-6.2 3.2-11.2C-134.5-394.1-132.1-394.4-131.1-394.4zM-130.5-390c-1.4 2.3-6 8.5-4.3 12.7 0.7 1.7 2.9 0.2 4.5-1.1 1-0.8 4.7-4.1 6.1-7 0.7-1.6 0.2-3.6-2-4.4C-127.1-389.8-129.2-389.5-130.5-390zM-100.5-406c-1.5 2.8-5.6 7.7-7.5 9.2 -2.4 3.7-5.2 12.1-5.7 14.5 -0.5 2.4-0.2 3.8 0.5 3.9 3.8-3.3 8.1-10.8 16.7-16.3 1.3 0.1 2.6 1.1 2.8 1.8 0.2 0.7 0.1 1.3-0.8 1.9 -2.8 4.1-8 7.5-8 9.4 0 0.9 2.4 5.4 6.5 5.2 4.4-0.7 9.1-5.7 9.3-6.3 0.4-1.7 1.8-0.4 0.9 0.9 -2.1 3.1-7 6.9-10.8 7.3 -3.8 0.4-9.3-4.2-10.2-8.8 -2 2.6-3.4 4.9-5.1 7 -1.1 1.3-3.2 1-4.1 0.2 0-0.9-0.3-0.9-0.4-1.4 -0.4-6.6 6.2-21.1 13.2-32.4C-100.8-410.4-99.6-407.9-100.5-406zM-105.3-385c0.5 0.2 0.8 0.8 1.5 0.3 0.9-0.6 4.1-3.9 4.9-5.3 0.4-0.6 0.1-1-0.7-0.4C-102-388.4-103.9-386.6-105.3-385zM-64.4-387.4c-2.7 3.2-11 11.5-19 12.1 -4.8 1.6-5.9-3.2-5.7-5.7 0.4-5.1 4.4-10.4 9.1-13.5 0.8-0.5 1.1-0.1 1.4 0.1 0.3 0.2 0.4-0.3 0.8-0.3 1 0 2.7 2.9 2.8 4.6 0.1 0.9-0.4 1.5-0.8 1.9 -0.1 0.1 0.1 0.6-0.3 1 -1.8 2.2-5 4.9-10 7.6 0.3 2.7 2.3 2.6 6.3 1.3 4.4-1.4 10.1-5 14.6-10.1C-64.7-388.4-63.7-388.3-64.4-387.4zM-86.1-381.7c3.2-1.5 9-5.8 9.1-9 0-0.5-1.5-1.4-1.9-1.4C-81.2-392.1-85.4-386.9-86.1-381.7zM-41.7-408.3c1 0.3 1.1 2.4-0.3 3.1 -1.2 2.7-2.3 6.8-3.8 6.8 -2.1 5.3-4.1 12.4-4.5 17.9 -0.2 1.9-0.2 4.3 2 3.8 3.2-0.8 9.7-7.1 13.3-11.4 0.7-0.2 0.9 0.5 0.2 1.5 -2.8 4.2-10.1 11.5-13.4 12.1 -4.9 1-4.8-3.7-4.4-5.5 -0.1-6.1 6.2-22.9 8.8-28.6C-43.2-408.7-42.1-408.9-41.7-408.3zM-30.4-390.4c-0.4 1.1-1.9 2.8-2.3 3.2 -1.2 1.5-2.6 6.4-2.8 8.9 -0.1 0.9 0.4 1 1.7 0.5 2.5-1 7.8-5.7 9.5-9.5 -0.1-0.5 0.2-1.3 0.8-1.4 0.4-0.1 1.1 0 1.7 0.2 0.4 0.1 1 1.6 0.8 2.5 -0.1 0.2-0.6 0.3-0.8 0.5 -0.3 1.6-1.2 8.2 0 8.7 2 0.9 12.6-7.4 15.3-10.7 0.5 0.1 0.5 0.7 0 1.3 -4.7 5.8-13.3 11.7-15.4 11.6 -0.4-0.3-0.6-0.1-0.9-0.3 -3.1-1.8-2.6-6.2-1.9-8.6 0.1-0.4 0-0.5-0.3-0.1 -2.5 3.3-6.6 7.8-8.5 8.7 -1.2 0.6-1.6 0.6-2 0.4s-0.8 0.7-1.7 0.4c-0.9-0.3-1.8-1.4-1.3-3.6 0-2.9 3.5-11.4 4.7-15.5C-31.5-394.4-30.1-391.1-30.4-390.4zM11.4-394.9c0.1 0.2 0.1 1.6-0.4 1.7 -2.8 0.3-5.8 2.3-6.8 2.9 -0.4 0.3-0.1-0.2-0.7-0.1 -0.7 0.1-2.8 2.6-5 5.7 1.5 2.1 3.3 4 5.3 4.2 2.4 0.3 3.4-0.4 4.3-0.9 0.4-0.2 0.8 0.5 0.6 0.7 -0.3 0.3-0.6 0.2-0.7 0.6 -0.1 0.7-1.7 1.5-2.9 1.6 -3.7 0.2-6-1.7-8-4.1 -1.6 2.4-3.1 4.8-4 6.6 -0.2 0.9 0.2 1.4-0.1 2.7 -0.1 0.3-1 0.8-1.5 0.8 -0.4 0.4-0.6 0.5-1.2 0.5 -0.7 0.1-1.3-1.1-1.3-1.7 2.5-3.6 4.7-7.2 6.8-10.4 -1.1-1.4-2.2-2.8-3.5-4.1 -1.1-1.1-0.8-2.6-0.1-2.6 0.8 0 1.4 0.1 1.4 0.5 1.1 0.1 2.3 1.9 3.7 4 3.7-5.4 6.9-9.1 10.4-9.1 0.6 0 1 0.7 1.3 0.6S11.4-395.1 11.4-394.9zM21.6-390.4c-0.4 1.1-1.9 2.8-2.3 3.2 -1.2 1.5-2.6 6.4-2.8 8.9 -0.1 0.9 0.4 1 1.7 0.5 2.5-1 7.8-5.7 9.5-9.5 -0.1-0.5 0.2-1.3 0.8-1.4 0.4-0.1 1.1 0 1.7 0.2 0.4 0.1 1 1.6 0.8 2.5 -0.1 0.2-0.6 0.3-0.8 0.5 -0.3 1.6-1.2 8.2 0 8.7 2 0.9 12.6-7.4 15.3-10.7 0.5 0.1 0.5 0.7 0 1.3 -4.7 5.8-13.3 11.7-15.4 11.6 -0.4-0.3-0.6-0.1-0.9-0.3 -3.1-1.8-2.6-6.2-1.9-8.6 0.1-0.4 0-0.5-0.3-0.1 -2.5 3.3-6.6 7.8-8.5 8.7 -1.2 0.6-1.6 0.6-2 0.4s-0.8 0.7-1.7 0.4c-0.9-0.3-1.8-1.4-1.3-3.6 0-2.9 3.5-11.4 4.7-15.5C20.5-394.4 21.9-391.1 21.6-390.4zM45.1-394c0-0.4 0.8-0.8 1.3-0.8 0.5 0 2.1 0.8 2.3 1.4 0.5 1.1-1.6 5.7-2.7 9 -0.2 0.5 0.2 0.6 0.4 0.2 1.8-2.2 9.9-8.9 12.3-8.9 1 0 2.9 2 2.9 3.5 0 1.4-1.2 2.3-2.3 2.1 -0.8-0.2-1.2-2.1-1.9-2.2 -3.1 0.4-8.9 5.6-12.1 9.3 -0.5 1-1.2 3.7-1.8 4.6 -0.7-0.1-1.2 0.6-1.5 0.6 -0.3-0.1-1.5-1-1.2-1.8 1.6-3.8 4.4-10.9 4.7-16C45.3-393 45.1-393.6 45.1-394zM69-393.4c0.6 0.1 1.6 0.6 1.1 1.5 -1.5 2.8-4.6 7.6-5.4 12.3 -0.3 1.7 0.4 1.3 0.9 0.7 0.6-0.7 9.1-10.6 11.1-10.6 2.1 0 3.3 5.8 2.9 11.8 1-0.7 2-1.1 3-1.2 1.3 0 2.3 1 2.5 2.3 0.2 0.9-0.4 1.7-1 1.9s-1-0.3-2-0.8c-0.8 0.1-1.8 0.6-3 1.5 -1.2 6.2-4.3 15.1-7.1 17.7 -0.9 0.9-2-0.5-2.3-1.8 -1-4.6 3.1-13.1 7.4-17.7 0.5-3.6 0.4-7-0.2-9.9 -0.2-0.9-0.7-1.2-1.7-0.5 -5.8 4-8.7 12.2-11.6 12.5 -1.1 0.2-2.2-1.1-2.2-2.4 0-0.4 0.3-0.8 0.3-1.2 0.4-4.7 2.9-10.6 5.5-15.9C67.5-393.5 68.5-393.5 69-393.4zM76.4-371.3c-2.3 2.8-4.5 6.6-4.6 10.7 -0.1 1 0.2 1.1 0.7 0.3C74.2-363.6 75.5-367.4 76.4-371.3zM106.2-381.1c-0.8 4.1 0.8 5.5 4.1 4.4 4.7-1.6 10.8-6 15-8.9 0.6-0.3 0.3 0.7-0.2 1.1 -3.3 2.9-10.9 8.7-15.1 9.7 -0.5 0.2 0.2 0.3-0.2 0.4 -4.5 1.4-7.2-2.3-6.4-6.8 1-6 5.4-9.1 5.8-9.5s0-0.7 0.5-1c2.4-1.6 4.5-1.8 5.2-1 0.2 0.3 0.5-0.3 0.8-0.1 0.8 0.5 1.9 1.6 1.9 2.6 0 1-0.8 1.9-1.7 1.9 -1 0-1.8-0.3-2.1-1.4C111.3-390.2 107-385.4 106.2-381.1zM135.9-390.8c0.6-1 1.2-2 1.8-3 0.9-0.7 2.8 0.4 3.1 0.8s0.3 1.1 0.1 1.6c-0.5 0.9-1.4 2.6-1.9 2.8 -1 2.2-1.6 4.3-1.9 5.9 -0.7 4 0.3 5 3.4 3.4 3.4-1.8 9.9-6.7 12.7-10.2 1.3 0.1 1.3 1.2 0.3 2.2 -3.1 3-10.8 9.4-14.7 11.2 -1.7 0.8-5.2 0.9-4.8-4.2 0.2-2 0.9-4.3 1.5-6.2 0.1-0.4-0.1-0.5-0.3-0.2 -0.3 0.5-4.3 6.5-7 9.4 -2.5 2.8-6.5 1.7-6.1-3.1 0.8-7.9 5.6-12.6 8.5-12.6 1.4 0 3.1 0.4 4.2 1C135.4-391.7 135.8-391.3 135.9-390.8zM135-389.4h-0.3c-0.8 0-1.6-1.5-3.9-1.5 -0.6 0-1.5 0.4-2.1 1 -2.1 2.1-3.5 5.6-3.9 9.3 -0.3 2.7 0.4 2.8 1.4 2C128.3-380.1 131.9-384.6 135-389.4zM156.8-394.3c0.3 0.1 0.6 1.3 0.5 1.8s-0.2 0-0.6 0.5c-1.3 3-5.1 11.9-4.4 13 2.3-2.4 7.5-10.3 13.2-14 0.5-0.3 1-0.4 1.7-0.6 1.9-0.4 2.5 2.1 1.2 5.2 -0.2 0.4-0.8 0.5-0.6 1 -0.5 2.1-2.1 5.7-2 8.4 0.1 1.2 0.5 1.6 1.5 1.2 3.9-1.7 10.1-7.3 13.4-11.1 0.3 0.1 0.8 0.9 0.5 1.3 -3.9 4.7-10 10.2-13.7 11.9 -3 1.4-4.8 0.2-4.9-1.9 -0.1-0.7 0.4-0.5 0.3-1 -0.6-2.1 2.3-7.7 3-11.6 0.1-0.7-0.4-0.5-1.1-0.1 -5.4 3.4-9.1 10.1-12.1 14.9 -0.3 0.5-2.9 0.8-3-0.4 -0.6-0.3-0.8-2.3-0.5-3.7 1-4.3 3.3-10.8 5.4-14.8C155.2-394.3 156.4-394.3 156.8-394.3zM197.7-399c1.5-4.1 3-7.6 3.7-9.3 1.1-2.4 2-5.1 3-5.1 1.1 0 1.5 0.7 1.5 1.8 0.3 0 0.7 0.4 0 2.1 -1 2.5-3.4 8-7 12.3 -1.1 3.3-2.7 8.3-3.2 13.5 -0.7 6.4 1.6 8.5 5.4 6.7 3.3-1.5 6.6-5.6 6.6-5.8 0.2-0.1 0.5-0.2 0.7-0.1 0.4 0.2 0.9 0.9 0.4 1.4 -1.3 1.5-4.1 4.3-7.1 6 -4.3 2.5-8.5 0.9-8.2-7.1 0.2-3.1 1.2-7.2 2.4-11.2 -1.3 1.7-2.6 3.3-4 4.9 0.4 0.8 0.5 1.6 0.4 2.3 -0.1 0.4 0.3-0.3 0.4 0.6 0.1 2-1.9 3.2-2.9 2.8 -0.5-0.2-0.6-0.7-0.7-1.2 0.3-0.6 0.5-1.3 0.5-1.9 -1.9 2.2-3.8 4.3-5.7 6.2 -1 1.9-2.6 3.2-4.2 3.9 -4.2 1.8-4.8-2.8-3.4-5.9 3.2-7 8-9.5 10.6-9.5 1.7 0 3.1 0.6 4 1.4C193.7-393.5 196-396.4 197.7-399zM189.4-388.5c-0.4-0.8-1.1-1.3-2.1-1.3 -3.5 0-7.4 5.5-8.5 7.6 -2.2 5.3 0.5 4.2 4.1 0.5C185.3-384 187.4-386.3 189.4-388.5zM211.8-389.2c-1 1.6-1.3 2.7-1.3 4.1 0 4 0.9 8.1 4.6 8.1 1.7 0 4.3-1 7.1-2.5 -0.1-0.6-0.1-1.1 0-1.5 0.4-5.1 4.4-10.4 9.1-13.5 0.8-0.5 1.1-0.1 1.4 0.1s0.4-0.3 0.8-0.3c1 0 2.7 2.9 2.8 4.6 0.1 0.9-0.4 1.5-0.8 1.9 -0.1 0.1 0.1 0.6-0.3 1 -1 1.2-5.2 4.9-9.9 8 0.5 2.3 2.4 2.2 6.2 0.9 4.4-1.4 10.1-5 14.6-10.1 0.4-0.1 1.5 0.1 0.7 1 -2.7 3.2-11 11.5-19 12.1 -3 1-4.5-0.5-5.2-2.3 -3.1 1.7-6.1 2.9-8.6 2.9 -2.6 0-6.1-2-6.1-9.8 0-9.4 5.9-23.9 10.5-29.3 0.6-1.9 1.7-2.7 2.7-2.7 0.6 0 1.6 1.5 1.6 2.4 0 1-0.9 2.7-2 4C218.8-403.5 216-395.8 211.8-389.2zM211.9-395.3c-0.5 1.7-0.3 2.4 0.8 0.4 2.4-4.5 3.9-8.9 4.7-11.6 0.3-0.8 0.4-1.6 0.2-1.6 -0.2 0-1.1 1.4-1.3 1.9 -0.2 0.5-0.2 0.2-0.5 0.7C214.3-402.7 212.9-399 211.9-395.3zM225.4-383.1c-0.4 1.6-0.1 1.8 1.3 0.9 4.1-2.8 7.4-6.2 7.5-8.4 0-0.5-1.5-1.4-1.9-1.4C230.2-392.1 226.6-387.8 225.4-383.1zM248.4-377.2c2.4 0 3.6-0.6 3.9-1 0.3-0.4 0.3-0.9-0.4-1.4 -1.9-1.6-4.9-3.5-7.4-6.2 -1.6-0.2-1.9-3.9-0.6-4.6 3.6-2.2 8.6-5.4 12-5.4 0.4 0 0.7 0.1 1 0.4 0.8 0.7 1.1 2.1 1.1 2.8s-0.3 1-0.7 0.6c-2.3-0.3-8.4 2.6-10.6 4.2 -0.5 2.9 5.8 5.2 8.1 7.8 1.6 1.8 1.3 3.4-0.1 4.1 -4.2 2.1-11.6-0.5-14.6-2.9 -0.7-0.6-0.1-0.9 0.3-0.6C242.3-378.1 245.9-377.2 248.4-377.2zM286.1-404.6c-2.4 0-4.6 1.5-4.6 3.9 -0.5 3.5 2.3 5.6 4 5.6 1 0 3-0.3 3.3-0.4 0.5 0.6 0.8 1.3 0.8 1.8s-0.5 0.9-1.8 1c-1.4 0.2-3.8-0.4-4.5-0.3 -3.9 0.6-7.9 2.6-8.4 9.6 0.6 6.1 6 7.5 11.4 7.5 3.4 0.1 7.2-1.8 8.6-3.9 0.8-3.3-0.5-6.1-3.1-6.1 -3.4 1.4-6.7 2.9-8.1 3.1 -0.7 0.2-2.3-0.6-2.5-1.1 -0.2-0.6-0.2-1.2 1.9-1.8 4.3 0.2 13-4.9 18.3-4.9 2.7 0 2.2 2.5 0.8 2.7 -1.2-1-4-0.4-7.1 0.7 1.6 1.2 2.4 3.1 2.4 4.3 -0.1 6.6-7.2 8.9-13.1 9 -4.4 0-11.7-2.2-12.2-8.7 -1.2-5.6 2.7-11.1 9.8-12.1 0.3-0.1 0.3-0.3 0.1-0.4 -1.5-0.9-3.2-2.4-2.9-5.8 1.2-3.8 2.9-5.8 7.4-5.8 4.3 0 7.6 2 8.2 3.8 0.6 1.8-0.6 2.6-1.6 2.3C292.4-401.9 288.8-404.6 286.1-404.6zM333.7-399c1.5-4.1 3-7.6 3.7-9.3 1.1-2.4 2-5.1 3-5.1 1.1 0 1.5 0.7 1.5 1.8 0.3 0 0.7 0.4 0 2.1 -1 2.5-3.4 8-7 12.3 -1.1 3.3-2.7 8.3-3.2 13.5 -0.7 6.4 1.6 8.5 5.4 6.7 3.3-1.5 6.6-5.6 6.6-5.8 0.2-0.1 0.5-0.2 0.7-0.1 0.4 0.2 0.9 0.9 0.4 1.4 -1.3 1.5-4.1 4.3-7.1 6 -4.3 2.5-8.5 0.9-8.2-7.1 0.2-3.1 1.2-7.2 2.4-11.2 -1.3 1.7-2.6 3.3-4 4.9 0.4 0.8 0.5 1.6 0.4 2.3 -0.1 0.4 0.3-0.3 0.4 0.6 0.1 2-1.9 3.2-2.9 2.8 -0.5-0.2-0.6-0.7-0.7-1.2 0.3-0.6 0.5-1.3 0.5-1.9 -1.9 2.2-3.8 4.3-5.7 6.2 -1 1.9-2.6 3.2-4.2 3.9 -4.2 1.8-4.8-2.8-3.4-5.9 3.2-7 8-9.5 10.6-9.5 1.7 0 3.1 0.6 4 1.4C329.6-393.5 331.9-396.4 333.7-399zM325.3-388.5c-0.4-0.8-1.1-1.3-2.1-1.3 -3.5 0-7.4 5.5-8.5 7.6 -2.2 5.3 0.5 4.2 4.1 0.5C321.2-384 323.4-386.3 325.3-388.5zM358.9-388.1c1.4-1.9 2.7-3.8 3.7-5.6 1.1-4.9 2.5-8.4 3.2-10.3 0.2-0.8 2-4.4 2.3-4.8 0.3-0.4-0.1-0.8 0.4-1.2 0.4-0.5 2.2-2 2.6-2 1.9-0.4 3.2 2.3 3.2 5.7 0 4.3-0.1 6.6-1.4 6.5 -0.2-1-0.5-7.3-2.2-7.3 -1.1 0-2.5 2.9-2.5 3.5 -0.1 0.6-0.3 0.3-0.6 0.8 -1.8 3.1-3.3 9.1-4.1 14.6 3.3-0.3 6.8-0.6 10.2-1 1.3-5.4 3-9.5 3.7-11.3 0.2-0.7 2-4.2 2.2-4.6 0.3-0.3-0.1-0.7 0.4-1 0.4-0.4 1.5-1.4 1.8-1.5 1.8-0.3 3.7 1.2 3.7 2.3 0 2.3-0.5 4.7-1.6 4.9 -0.1-1-0.7-2.2-1.7-2.2 -1 0-1.5 1.4-1.9 2.1 -0.3 0.5-0.7 0.2-1 0.7 -1.3 2.3-2.7 6.2-3.7 10.4 4.3-0.6 8.5-1.1 12.1-1.6 0.9-0.1 0.8-0.7 1.5-0.7s3 0.3 3 1.2c0 1.1-1.1 1.2-2.8 1.6 -0.5 0.1-0.6-0.3-1.3-0.2l-13 1.6c-0.7 3.5-1.2 7.1-1.2 10.3 0 0.8-0.3 1.1-0.3 1.3s0.3 0.5 0.3 0.9c0.1 3.4 0.1 7.1 1.4 11.1 0.5 1.4 1.7 2 1.7 2.6 0 0.5-1.2 1.7-1.7 1.7s-0.7-0.4-0.8-0.5c-1.7-1.5-2.5-1.9-4.5-3.5 -0.5-0.4-0.3-1 0.3-1 0.8 0.7 1.3 1 2.5 1.7 0.6-0.1 0.6-0.8 0.5-1.1 -0.8-3.3-1.3-6.2-1.3-12.3 0-3.8 0.5-7.5 1.2-10.8l-10 1.2c-0.2 1.9-0.4 3.6-0.4 5.1 0 0.9-0.3 1.2-0.3 1.5s0.3 0.5 0.3 1c0.1 3.9 0.5 11.9 1.2 17.4 0.1 0.6 1 2 1 2.7s-2 1.7-2.5 1.7 -0.7-0.6-0.9-0.6c-3.3-0.6-6.9-7.5-6.9-11 0-0.5 0.1-0.9 0.1-1 0-0.2-0.2-0.3-0.3-0.6 -0.2-1.3 0.1-6.9 0.5-8.9 0.1-0.5 0.2-0.8 0.5-0.8 0.3 0 0.6 0.5 0.5 0.8 -0.3 1.9-0.4 5.8-0.4 6.9 0 2.7 1.9 11.5 6.7 12.5 -0.6-6.6-1.2-12.4-1.2-19.9 0-2.3 0.1-4.5 0.3-6.5l-2.6 0.3c-4.4 5.9-10.2 12.2-12.4 12.2 -1.8 0.9-3.7-0.6-3.3-2.4 -0.8-3 4.8-15 3.5-17.7 0.8-0.7 1.8-0.7 2.1-0.3 0.3 0.4-0.2 0.8 0.2 1 0.7 0.5 1.2 1.4 1.3 2.3 0.4 1-3.1 8.3-4.2 12.3 -0.5 1.9-0.4 2.6 1.1 2.2 2.8-1.3 6.7-5.1 10.2-9.5h-0.1c-2.1 0.2-2.8-0.5-2.8-1 0-1.1 0.9-1.2 1.3-1.2C356.6-388 357.7-388.1 358.9-388.1zM350.1-405.5c0.1-1 3-1.3 3.5-1.4 0.4 0.4 0.7 0.7 0.7 1.1s-0.3 2.6-1 2.7C351.9-402.9 350-404.1 350.1-405.5zM361.9-390.8c-0.5 0.8-1 1.7-1.6 2.6 0.4 0 0.8-0.1 1.3-0.1L361.9-390.8zM393.6-390.4c-0.4 1.1-1.9 2.8-2.3 3.2 -1.2 1.5-2.6 6.4-2.8 8.9 -0.1 0.9 0.4 1 1.7 0.5 2.5-1 7.8-5.7 9.5-9.5 -0.1-0.5 0.2-1.3 0.8-1.4 0.4-0.1 1.1 0 1.7 0.2 0.4 0.1 1 1.6 0.8 2.5 -0.1 0.2-0.6 0.3-0.8 0.5 -0.3 1.6-1.2 8.2 0 8.7 2 0.9 12.6-7.4 15.3-10.7 0.5 0.1 0.5 0.7 0 1.3 -4.7 5.8-13.3 11.7-15.4 11.6 -0.4-0.3-0.6-0.1-0.9-0.3 -3.1-1.8-2.6-6.2-1.9-8.6 0.1-0.4 0-0.5-0.3-0.1 -2.5 3.3-6.6 7.8-8.5 8.7 -1.2 0.6-1.6 0.6-2 0.4s-0.8 0.7-1.7 0.4c-0.9-0.3-1.8-1.4-1.3-3.6 0-2.9 3.5-11.4 4.7-15.5C392.5-394.4 393.8-391.1 393.6-390.4zM420.2-377.2c2.4 0 3.6-0.6 3.9-1 0.3-0.4 0.3-0.9-0.4-1.4 -1.9-1.6-4.9-3.5-7.4-6.2 -1.6-0.2-1.9-3.9-0.6-4.6 3.6-2.2 8.6-5.4 12-5.4 0.4 0 0.7 0.1 1 0.4 0.8 0.7 1.1 2.1 1.1 2.8s-0.3 1-0.7 0.6c-2.3-0.3-8.4 2.6-10.6 4.2 -0.5 2.9 5.8 5.2 8.1 7.8 1.6 1.8 1.3 3.4-0.1 4.1 -4.2 2.1-11.6-0.5-14.6-2.9 -0.7-0.6-0.1-0.9 0.3-0.6C414-378.1 417.7-377.2 420.2-377.2zM456.8-387.4c-2.7 3.2-11 11.5-19 12.1 -4.8 1.6-5.9-3.2-5.7-5.7 0.4-5.1 4.4-10.4 9.1-13.5 0.8-0.5 1.1-0.1 1.4 0.1 0.3 0.2 0.4-0.3 0.8-0.3 1 0 2.7 2.9 2.8 4.6 0.1 0.9-0.4 1.5-0.8 1.9 -0.1 0.1 0.1 0.6-0.3 1 -1.8 2.2-5 4.9-10 7.6 0.3 2.7 2.3 2.6 6.3 1.3 4.4-1.4 10.1-5 14.6-10.1C456.5-388.4 457.6-388.3 456.8-387.4zM435.2-381.7c3.2-1.5 9-5.8 9.1-9 0-0.5-1.5-1.4-1.9-1.4C440-392.1 435.9-386.9 435.2-381.7zM456.4-394c0-0.4 0.8-0.8 1.3-0.8 0.5 0 2.1 0.8 2.3 1.4 0.5 1.1-1.6 5.7-2.7 9 -0.2 0.5 0.2 0.6 0.4 0.2 1.8-2.2 9.9-8.9 12.3-8.9 1 0 2.9 2 2.9 3.5 0 1.4-1.2 2.3-2.3 2.1 -0.8-0.2-1.2-2.1-1.9-2.2 -3.1 0.4-8.9 5.6-12.1 9.3 -0.5 1-1.2 3.7-1.8 4.6 -0.7-0.1-1.2 0.6-1.5 0.6 -0.3-0.1-1.5-1-1.2-1.8 1.6-3.8 4.4-10.9 4.7-16C456.6-393 456.4-393.6 456.4-394zM481.5-377.2c2.4 0 3.6-0.6 3.9-1 0.3-0.4 0.3-0.9-0.4-1.4 -1.9-1.6-4.9-3.5-7.4-6.2 -1.6-0.2-1.9-3.9-0.6-4.6 3.6-2.2 8.6-5.4 12-5.4 0.4 0 0.7 0.1 1 0.4 0.8 0.7 1.1 2.1 1.1 2.8s-0.3 1-0.7 0.6c-2.3-0.3-8.4 2.6-10.6 4.2 -0.5 2.9 5.8 5.2 8.1 7.8 1.6 1.8 1.3 3.4-0.1 4.1 -4.2 2.1-11.6-0.5-14.6-2.9 -0.7-0.6-0.1-0.9 0.3-0.6C475.3-378.1 479-377.2 481.5-377.2zM517.1-406.3c0.5 0 2.3 1 2.3 1.8 -0.2 1.8-1.7 4.7-2.4 6.9 -0.3 0.8-0.6 0.5-1.1 0.5 -1.4 3.2-3.5 11.5-4.5 16.7 -0.2 0.8 0.5 1.1 0.8 0.7 3.8-4.8 11-12.3 11.6-12.3s1.8 0.5 2.1 0.9c0.6 0.7 0.2 2.1 0.8 2.9 0.5 1.2-2 9.1-1.3 11.1 3.8-2.1 9.5-7.8 13-11.6 0.7-0.2 1.5 0.8 0.6 1.6 -4.2 3.8-11.2 13-14.9 13.1 -0.6 0-1.5-1.3-1.1-3.1 -1.1-1.8 1.6-9.7 0.7-11.5 -2.5 0.7-6.8 6-9.3 9.4 -0.3 2-1.1 2.9-1.8 3.6 -0.5 0.4-0.9 0.5-1.2 0.5s-1 1-1.4 1c-0.4 0-0.9-0.5-1.1-1.1 -0.1-0.4 0-0.7 0.1-1.3 1.6-13.5 6.7-22.4 6.9-29C516.1-406 516.6-406.3 517.1-406.3zM549.2-390.8c0.6-1 1.2-2 1.8-3 0.9-0.7 2.8 0.4 3.1 0.8s0.3 1.1 0.1 1.6c-0.5 0.9-1.4 2.6-1.9 2.8 -1 2.2-1.6 4.3-1.9 5.9 -0.7 4 0.3 5 3.4 3.4 3.4-1.8 9.9-6.7 12.7-10.2 1.3 0.1 1.3 1.2 0.3 2.2 -3.1 3-10.8 9.4-14.7 11.2 -1.7 0.8-5.2 0.9-4.8-4.2 0.2-2 0.9-4.3 1.5-6.2 0.1-0.4-0.1-0.5-0.3-0.2 -0.3 0.5-4.3 6.5-7 9.4 -2.5 2.8-6.5 1.7-6.1-3.1 0.8-7.9 5.6-12.6 8.5-12.6 1.4 0 3.1 0.4 4.2 1C548.7-391.7 549.1-391.3 549.2-390.8zM548.3-389.4h-0.3c-0.8 0-1.6-1.5-3.9-1.5 -0.6 0-1.5 0.4-2.1 1 -2.1 2.1-3.5 5.6-3.9 9.3 -0.3 2.7 0.4 2.8 1.4 2C541.6-380.1 545.2-384.6 548.3-389.4zM570.1-394.3c0.3 0.1 0.6 1.3 0.5 1.8s-0.2 0-0.6 0.5c-1.3 3-5.1 11.9-4.4 13 2.3-2.4 7.5-10.3 13.2-14 0.5-0.3 1-0.4 1.7-0.6 1.9-0.4 2.5 2.1 1.2 5.2 -0.2 0.4-0.8 0.5-0.6 1 -0.5 2.1-2.1 5.7-2 8.4 0.1 1.2 0.5 1.6 1.5 1.2 3.9-1.7 10.1-7.3 13.4-11.1 0.3 0.1 0.8 0.9 0.5 1.3 -3.9 4.7-10 10.2-13.7 11.9 -3 1.4-4.8 0.2-4.9-1.9 -0.1-0.7 0.4-0.5 0.3-1 -0.6-2.1 2.3-7.7 3-11.6 0.1-0.7-0.4-0.5-1.1-0.1 -5.4 3.4-9.1 10.1-12.1 14.9 -0.3 0.5-2.9 0.8-3-0.4 -0.6-0.3-0.8-2.3-0.5-3.7 1-4.3 3.3-10.8 5.4-14.8C568.5-394.3 569.7-394.3 570.1-394.3zM611-399c1.5-4.1 3-7.6 3.7-9.3 1.1-2.4 2-5.1 3-5.1 1.1 0 1.5 0.7 1.5 1.8 0.3 0 0.7 0.4 0 2.1 -1 2.5-3.4 8-7 12.3 -1.1 3.3-2.7 8.3-3.2 13.5 -0.7 6.4 1.6 8.5 5.4 6.7 3.3-1.5 6.6-5.6 6.6-5.8 0.2-0.1 0.5-0.2 0.7-0.1 0.4 0.2 0.9 0.9 0.4 1.4 -1.3 1.5-4.1 4.3-7.1 6 -4.3 2.5-8.5 0.9-8.2-7.1 0.2-3.1 1.2-7.2 2.4-11.2 -1.3 1.7-2.6 3.3-4 4.9 0.4 0.8 0.5 1.6 0.4 2.3 -0.1 0.4 0.3-0.3 0.4 0.6 0.1 2-1.9 3.2-2.9 2.8 -0.5-0.2-0.6-0.7-0.7-1.2 0.3-0.6 0.5-1.3 0.5-1.9 -1.9 2.2-3.8 4.3-5.7 6.2 -1 1.9-2.6 3.2-4.2 3.9 -4.2 1.8-4.8-2.8-3.4-5.9 3.2-7 8-9.5 10.6-9.5 1.7 0 3.1 0.6 4 1.4C607-393.5 609.3-396.4 611-399zM602.7-388.5c-0.4-0.8-1.1-1.3-2.1-1.3 -3.5 0-7.4 5.5-8.5 7.6 -2.2 5.3 0.5 4.2 4.1 0.5C598.6-384 600.7-386.3 602.7-388.5zM666.2-391.4c1.4-0.7 2.7 0 2.8 0.7 0.1 0.7-0.1 1.2-1.6 1.6 -4.8 1.3-11.4 6-15 8.7 -0.7 2.3-1.5 4.4-2.3 5.4 -0.5 0.5-1.7 0.6-2.5 0.5 -0.1 0.2-0.2 0.3-0.4 0.4 -1.4 0.6-2.1-0.9-1.4-1.9 0.8-1 2-2.2 3.5-3.6 0.4-1.3 2.2-7.6 2.2-10.5 0.1-1.6-0.6-1.7-2-0.5 -3.6 3.1-13.4 20.1-16.5 31.2 -0.2 0.7-0.1 1.4-0.2 2 -0.3 1.3-1.4 2.2-2.4 2.4 -0.6 0.1-2.1-0.6-1.6-1.9 3.8-10.2 7.8-23.9 10.6-35.3 0.2-0.6 0.9-0.3 1.4-0.3 0.6 0 2.2 0.8 1.7 2.7 -0.4 1.8-5.3 13.5-5.8 14.9 -0.4 1.4 0.1 0.9 0.7 0 2.7-4.7 10.3-20 14.8-19.6 0.7 0 2.3 1.8 2.4 4.2 0 1.2-0.5 4.3-1.3 7.3C656.9-386 661.6-389.2 666.2-391.4zM668.1-394.2c0.4-1.6 2.7-2 3.3-0.9 0.2 0.4 0.4 0.8 0.6 1.1 1.2 0.8 2.4 2.3 3.4 3.4 3.1 1.8 7.2 1.6 12-0.1 0.3-0.9 0.6-1.8 0.8-2.5 2.1-1.2 3.5 2 3.3 2.8 -0.4 1.1-1.2 0.9-1.6 1.3 -1.2 1.5-3.3 8.4-3.4 10.9 -0.1 0.9 0.4 1 1.7 0.5 2.5-1 7.8-5.7 9.5-9.5 -0.1-0.5 0.2-1.3 0.8-1.4 0.4-0.1 1.1 0 1.7 0.2 0.4 0.1 1 1.6 0.8 2.5 -0.1 0.2-0.6 0.3-0.8 0.5 -0.3 1.6-1.2 8.2 0 8.7 2 0.9 12.6-7.4 15.3-10.7 0.5 0.1 0.5 0.7 0 1.3 -4.7 5.8-13.3 11.7-15.4 11.6 -0.4-0.3-0.6-0.1-0.9-0.3 -3.1-1.8-2.6-6.2-1.9-8.6 0.1-0.4 0-0.5-0.3-0.1 -2.5 3.3-6.6 7.8-8.5 8.7 -1.2 0.6-1.6 0.6-2 0.4 -0.4-0.3-0.8 0.7-1.7 0.4 -0.9-0.3-1.8-1.4-1.3-3.6 0-2 1.7-6.7 3.2-10.7 -2.8 0.9-5.3 1.2-7.7 1.1 0.3 0.5 0.3 1.1 0.2 1.6 -0.4 1.6-6.3 7.6-8.9 9.6 -1.7 1.3-3.5 1.7-5.1 1.2 -3.5-1-3.3-4.8-2.8-7 0.5-2.7 3-6 3-11C665.3-393.8 667-394.1 668.1-394.2zM669.5-391c0 0.4-0.1 0.8-0.2 1.1 -0.6 1.4-6.1 7.9-4.2 12.6 0.7 1.7 2.9 0.2 4.5-1.1 1-0.8 4.7-4.1 6.1-7 0.4-0.8 0.4-1.6 0.1-2.4C673.3-388.4 671.2-389.6 669.5-391zM714.8-394c0-0.4 0.8-0.8 1.3-0.8 0.5 0 2.1 0.8 2.3 1.4 0.5 1.1-1.6 5.7-2.7 9 -0.2 0.5 0.2 0.6 0.4 0.2 1.8-2.2 9.9-8.9 12.3-8.9 1 0 2.9 2 2.9 3.5 0 1.4-1.2 2.3-2.3 2.1 -0.8-0.2-1.2-2.1-1.9-2.2 -3.1 0.4-8.9 5.6-12.1 9.3 -0.5 1-1.2 3.7-1.8 4.6 -0.7-0.1-1.2 0.6-1.5 0.6 -0.3-0.1-1.5-1-1.2-1.8 1.6-3.8 4.4-10.9 4.7-16C715-393 714.8-393.6 714.8-394zM755.5-387.4c-2.7 3.2-11 11.5-19 12.1 -4.8 1.6-5.9-3.2-5.7-5.7 0.4-5.1 4.4-10.4 9.1-13.5 0.8-0.5 1.1-0.1 1.4 0.1s0.4-0.3 0.8-0.3c1 0 2.7 2.9 2.8 4.6 0.1 0.9-0.4 1.5-0.8 1.9 -0.1 0.1 0.1 0.6-0.3 1 -1.8 2.2-5 4.9-10 7.6 0.3 2.7 2.3 2.6 6.3 1.3 4.4-1.4 10.1-5 14.6-10.1C755.2-388.4 756.3-388.3 755.5-387.4zM733.9-381.7c3.2-1.5 9-5.8 9.1-9 0-0.5-1.5-1.4-1.9-1.4C738.8-392.1 734.6-386.9 733.9-381.7zM771.6-399c1.5-4.1 3-7.6 3.7-9.3 1.1-2.4 2-5.1 3-5.1 1.1 0 1.5 0.7 1.5 1.8 0.3 0 0.7 0.4 0 2.1 -1 2.5-3.4 8-7 12.3 -1.1 3.3-2.7 8.3-3.2 13.5 -0.7 6.4 1.6 8.5 5.4 6.7 3.3-1.5 6.6-5.6 6.6-5.8 0.2-0.1 0.5-0.2 0.7-0.1 0.4 0.2 0.9 0.9 0.4 1.4 -1.3 1.5-4.1 4.3-7.1 6 -4.3 2.5-8.5 0.9-8.2-7.1 0.2-3.1 1.2-7.2 2.4-11.2 -1.3 1.7-2.6 3.3-4 4.9 0.4 0.8 0.5 1.6 0.4 2.3 -0.1 0.4 0.3-0.3 0.4 0.6 0.1 2-1.9 3.2-2.9 2.8 -0.5-0.2-0.6-0.7-0.7-1.2 0.3-0.6 0.5-1.3 0.5-1.9 -1.9 2.2-3.8 4.3-5.7 6.2 -1 1.9-2.6 3.2-4.2 3.9 -4.2 1.8-4.8-2.8-3.4-5.9 3.2-7 8-9.5 10.6-9.5 1.7 0 3.1 0.6 4 1.4C767.6-393.5 769.9-396.4 771.6-399zM763.3-388.5c-0.4-0.8-1.1-1.3-2.1-1.3 -3.5 0-7.4 5.5-8.5 7.6 -2.2 5.3 0.5 4.2 4.1 0.5C759.2-384 761.4-386.3 763.3-388.5zM800.2-394.2c0.3 0.4-0.2 0.8 0.2 1 0.7 0.5 1 1.4 0.9 2.6 0.1 2.2-3 7.5-4.1 11.6 -0.5 1.9-0.3 3.1 1.2 2.7 4.6-2.1 11.3-7.6 14.8-11.4 0.7-0.2 1 0.6 0.2 1.5 -3.1 3.8-13.2 12-15.4 12 -1.8 0.9-3.7-0.6-3.3-2.4 -0.8-3 4.8-14.6 3.5-17.3C798.9-394.6 799.9-394.5 800.2-394.2zM801.7-405.5c0.1-1 3-1.3 3.5-1.4 0.4 0.4 0.7 0.7 0.7 1.1s-0.3 2.6-1 2.7C803.5-402.9 801.7-404.1 801.7-405.5zM817.9-394.3c0.3 0.1 0.6 1.3 0.5 1.8 -0.1 0.5-0.2 0-0.6 0.5 -1.3 3-5.1 11.9-4.4 13 2.3-2.4 7.5-10.3 13.2-14 0.5-0.3 1-0.4 1.7-0.6 1.9-0.4 2.5 2.1 1.2 5.2 -0.2 0.4-0.8 0.5-0.6 1 -0.5 2.1-2.1 5.7-2 8.4 0.1 1.2 0.5 1.6 1.5 1.2 3.9-1.7 10.1-7.3 13.4-11.1 0.3 0.1 0.8 0.9 0.5 1.3 -3.9 4.7-10 10.2-13.7 11.9 -3 1.4-4.8 0.2-4.9-1.9 -0.1-0.7 0.4-0.5 0.3-1 -0.6-2.1 2.3-7.7 3-11.6 0.1-0.7-0.4-0.5-1.1-0.1 -5.4 3.4-9.1 10.1-12.1 14.9 -0.3 0.5-2.9 0.8-3-0.4 -0.6-0.3-0.8-2.3-0.5-3.7 1-4.3 3.3-10.8 5.4-14.8C816.3-394.3 817.5-394.3 817.9-394.3zM855.1-404.4c0.6-0.1 3.9-0.2 6.4-0.2 0.2-0.7 0.4-1.3 0.5-1.8 1.9-1.2 2.7 0.5 2.7 1.9 4.4 0.3 12 1 15.7 1.5 0.5 0.1 0.5 0.3 0.4 0.6 -0.2 0.3-0.4 0.9-1 0.8 -4.2-0.4-10.1-0.6-15.6-0.6 -0.8 1.4-2.1 3.1-2.8 4.4 -1 1.8-2 4.2-2.8 6.8 3.8 0.4 12.8-0.3 15.1-2.4 2.1-0.2 1.9 1.4 1.3 2.1 -1.6 1.7-11.7 3.4-16.8 2.1 -0.3 1.5-0.4 3.2-0.4 4.8 0.2 3.5 1.8 6.6 6.2 6.6 5.4 0 13.1-4.8 16.2-8.2 0.6 0.1 1 0.8 1 1.2 0 0.5-0.4 1.1-1.1 1.8 -4 4.1-11.1 7.4-16.9 7.4 -4.4 0-7.9-3.2-7.9-9.5 0-5.1 3.2-12.2 5.2-17.2 -2.7 0-5.1 0.1-6.9 0.2C853.2-402.3 852.9-404.2 855.1-404.4zM889.7-394.3c0.3 0.1 0.6 1.3 0.5 1.8 -0.1 0.5-0.2 0-0.6 0.5 -1.3 3-5.1 11.9-4.4 13 2.3-2.4 7.5-10.3 13.2-14 0.5-0.3 1-0.4 1.7-0.6 1.9-0.4 2.5 2.1 1.2 5.2 -0.2 0.4-0.8 0.5-0.6 1 -0.5 2.1-2.1 5.7-2 8.4 0.1 1.2 0.5 1.6 1.5 1.2 3.9-1.7 10.1-7.3 13.4-11.1 0.3 0.1 0.8 0.9 0.5 1.3 -3.9 4.7-10 10.2-13.7 11.9 -3 1.4-4.8 0.2-4.9-1.9 -0.1-0.7 0.4-0.5 0.3-1 -0.6-2.1 2.3-7.7 3-11.6 0.1-0.7-0.4-0.5-1.1-0.1 -5.4 3.4-9.1 10.1-12.1 14.9 -0.3 0.5-2.9 0.8-3-0.4 -0.6-0.3-0.8-2.3-0.5-3.7 1-4.3 3.3-10.8 5.4-14.8C888.1-394.3 889.3-394.3 889.7-394.3zM908.8-356.6c2.2 0.5 4.8 0.5 7.4-2.3 5.4-5.9 7.7-19.4 8.3-28.9 0.1-1.6-0.3-1.6-1.1-0.2 -2 3.7-3.2 6.6-6.8 10.5 -0.6 0.5-0.7 0.1-1.2 0.6 -2.3 2.1-5.7-0.2-5.7-3.4 0-6.8 6.9-11.7 11.6-12.9 1-0.8 2.5-1.8 3.4-1.7 0.2 0.1 0.4 0.1 0.5 0.2 0.5-0.4 1-0.5 1.2-0.5 1.1 0 1.2 1.4 1.1 2.8 -1 13.8-3.1 26.9-9.5 34.3 -3 3.4-7.3 4.2-9.7 2.7 -0.9-0.6-0.2 0.3-1.4-0.2 -2.2-0.9-7.6-3.5-8.5-7.5C899.1-363.5 900.7-358.5 908.8-356.6zM912.5-379.8c-0.1 1.2 1.4 1.5 2.8-0.2 2.2-1.6 4.4-5.4 6.5-9.3 0.5-1 0.3-1.3-0.5-1.2 -0.9 0.1-1.7 0.1-2.4 0C915.4-388.1 912.6-383.6 912.5-379.8zM944.8-408.3c1 0.3 1.1 2.4-0.3 3.1 -1.2 2.7-2.3 6.8-3.8 6.8 -2.1 5.3-4.1 12.4-4.5 17.9 -0.2 1.9-0.2 4.3 2 3.8 3.2-0.8 9.7-7.1 13.3-11.4 0.7-0.2 0.9 0.5 0.2 1.5 -2.8 4.2-10.1 11.5-13.4 12.1 -4.9 1-4.8-3.7-4.4-5.5 -0.1-6.1 6.2-22.9 8.8-28.6C943.3-408.7 944.4-408.9 944.8-408.3zM962.4-390.8c0.6-1 1.2-2 1.8-3 0.9-0.7 2.8 0.4 3.1 0.8 0.4 0.4 0.3 1.1 0.1 1.6 -0.5 0.9-1.4 2.6-1.9 2.8 -1 2.2-1.6 4.3-1.9 5.9 -0.7 4 0.3 5 3.4 3.4 3.4-1.8 9.9-6.7 12.7-10.2 1.3 0.1 1.3 1.2 0.3 2.2 -3.1 3-10.8 9.4-14.7 11.2 -1.7 0.8-5.2 0.9-4.8-4.2 0.2-2 0.9-4.3 1.5-6.2 0.1-0.4-0.1-0.5-0.3-0.2 -0.3 0.5-4.3 6.5-7 9.4 -2.5 2.8-6.5 1.7-6.1-3.1 0.8-7.9 5.6-12.6 8.5-12.6 1.4 0 3.1 0.4 4.2 1C961.8-391.7 962.3-391.3 962.4-390.8zM961.5-389.4h-0.3c-0.8 0-1.6-1.5-3.9-1.5 -0.6 0-1.5 0.4-2.1 1 -2.1 2.1-3.5 5.6-3.9 9.3 -0.3 2.7 0.4 2.8 1.4 2C954.7-380.1 958.4-384.6 961.5-389.4zM983.2-394.3c0.3 0.1 0.6 1.3 0.5 1.8 -0.1 0.5-0.2 0-0.6 0.5 -1.3 3-5.1 11.9-4.4 13 2.3-2.4 7.5-10.3 13.2-14 0.5-0.3 1-0.4 1.7-0.6 1.9-0.4 2.5 2.1 1.2 5.2 -0.2 0.4-0.8 0.5-0.6 1 -0.5 2.1-2.1 5.7-2 8.4 0.1 1.2 0.5 1.6 1.5 1.2 3.9-1.7 10.1-7.3 13.4-11.1 0.3 0.1 0.8 0.9 0.5 1.3 -3.9 4.7-10 10.2-13.7 11.9 -3 1.4-4.8 0.2-4.9-1.9 -0.1-0.7 0.4-0.5 0.3-1 -0.6-2.1 2.3-7.7 3-11.6 0.1-0.7-0.4-0.5-1.1-0.1 -5.4 3.4-9.1 10.1-12.1 14.9 -0.3 0.5-2.9 0.8-3-0.4 -0.6-0.3-0.8-2.3-0.5-3.7 1-4.3 3.3-10.8 5.4-14.8C981.7-394.3 982.8-394.3 983.2-394.3zM1024.1-399c1.5-4.1 3-7.6 3.7-9.3 1.1-2.4 2-5.1 3-5.1 1.1 0 1.5 0.7 1.5 1.8 0.3 0 0.7 0.4 0 2.1 -1 2.5-3.4 8-7 12.3 -1.1 3.3-2.7 8.3-3.2 13.5 -0.7 6.4 1.6 8.5 5.4 6.7 3.3-1.5 6.6-5.6 6.6-5.8 0.2-0.1 0.5-0.2 0.7-0.1 0.4 0.2 0.9 0.9 0.4 1.4 -1.3 1.5-4.1 4.3-7.1 6 -4.3 2.5-8.5 0.9-8.2-7.1 0.2-3.1 1.2-7.2 2.4-11.2 -1.3 1.7-2.6 3.3-4 4.9 0.4 0.8 0.5 1.6 0.4 2.3 -0.1 0.4 0.3-0.3 0.4 0.6 0.1 2-1.9 3.2-2.9 2.8 -0.5-0.2-0.6-0.7-0.7-1.2 0.3-0.6 0.5-1.3 0.5-1.9 -1.9 2.2-3.8 4.3-5.7 6.2 -1 1.9-2.6 3.2-4.2 3.9 -4.2 1.8-4.8-2.8-3.4-5.9 3.2-7 8-9.5 10.6-9.5 1.7 0 3.1 0.6 4 1.4C1020.1-393.5 1022.4-396.4 1024.1-399zM1015.8-388.5c-0.4-0.8-1.1-1.3-2.1-1.3 -3.5 0-7.4 5.5-8.5 7.6 -2.2 5.3 0.5 4.2 4.1 0.5C1011.7-384 1013.9-386.3 1015.8-388.5z"/></svg>