<?xml version="1.0" encoding="utf-8"?>
<!-- Generator: Adobe Illustrator 16.0.0, SVG Export Plug-In . SVG Version: 6.00 Build 0)  -->
<svg version="1.2" baseProfile="tiny" id="Layer_1" xmlns="http://www.w3.org/2000/svg" xmlns:xlink="http://www.w3.org/1999/xlink"
	 x="0px" y="0px" width="1170.749px" height="67.104px" viewBox="0 0 1170.749 67.104" xml:space="preserve">
<g>
	<path fill="#FFFFFF" d="M15.414,12.429l0.528-1.296c0.96-0.912,2.592,0.144,2.256,1.2l-0.384,0.72
		c3.456,1.008,5.952,2.592,5.952,5.329c0,3.457-7.249,6.336-10.225,7.489c2.016,1.2,9.985,3.744,9.985,9.121
		c0,4.032-5.809,8.161-13.201,8.161c-3.216,0-9.265-1.584-9.265-6.192c0-2.688,2.064-5.521,3.792-7.153
		c0.192-0.144,0.48,0.864,0.24,1.393c-1.056,2.352-1.584,3.84-1.584,5.808c0,1.632,1.2,3.984,6.625,3.984
		c5.088,0,11.185-2.928,11.185-6.48c0-3.696-6.432-6.145-10.657-7.393c-1.824,4.032-3.024,7.44-2.592,8.929
		c-1.392,2.304-4.176,0-1.92-1.776c0.864-2.497,1.824-4.945,2.832-7.345c-1.056-0.144-1.776-0.336-2.256-0.864
		c-0.816-0.816-0.144-2.304,0.624-2.256c0.912,0.096,1.92,0.096,3.024-0.048c1.344-3.12,2.784-6.241,4.225-9.505
		c-3.745-0.72-8.161-1.056-11.329-0.864c-2.16,0.144-2.928-1.44-3.216-1.776s0.672-1.536,0.96-1.488
		C4.565,11.037,10.518,11.373,15.414,12.429z M12.438,23.422c4.512-0.864,9.168-3.024,9.168-5.473c0-1.296-1.968-2.352-4.704-3.12
		C15.462,17.566,13.878,20.542,12.438,23.422z"/>
	<path fill="#FFFFFF" d="M51.415,29.999C48.919,32.975,41.094,40.8,33.558,41.376c-4.513,1.536-5.521-3.024-5.329-5.376
		c0.384-4.8,4.128-9.793,8.593-12.673c0.768-0.48,1.056-0.096,1.296,0.048c0.24,0.144,0.384-0.288,0.768-0.288
		c0.96,0,2.544,2.688,2.641,4.32c0.048,0.864-0.336,1.44-0.768,1.824c-0.096,0.096,0.048,0.576-0.288,0.96
		c-1.68,2.064-4.752,4.656-9.409,7.201c0.288,2.496,2.16,2.448,5.904,1.2c4.128-1.344,9.505-4.752,13.777-9.505
		C51.127,29.039,52.135,29.135,51.415,29.999z M31.062,35.375c3.024-1.44,8.449-5.473,8.544-8.449c0-0.48-1.392-1.296-1.776-1.296
		C35.622,25.63,31.686,30.479,31.062,35.375z"/>
	<path fill="#FFFFFF" d="M52.949,39.647c2.256,0,3.409-0.576,3.648-0.912c0.288-0.384,0.24-0.816-0.384-1.344
		c-1.776-1.536-4.608-3.264-6.961-5.809c-1.536-0.192-1.824-3.648-0.576-4.368c3.36-2.064,8.112-5.041,11.281-5.041
		c0.336,0,0.672,0.096,0.912,0.336c0.72,0.624,1.056,2.016,1.056,2.592s-0.24,0.912-0.672,0.576c-2.16-0.24-7.92,2.4-9.985,3.984
		c-0.48,2.688,5.425,4.896,7.585,7.344c1.536,1.729,1.2,3.216-0.096,3.84c-3.984,2.016-10.945-0.432-13.729-2.688
		c-0.672-0.528-0.096-0.816,0.24-0.576C47.189,38.784,50.645,39.647,52.949,39.647z"/>
	<path fill="#FFFFFF" d="M93.607,26.207c1.344-0.624,2.496,0,2.592,0.624c0.096,0.672-0.048,1.104-1.488,1.536
		c-4.513,1.2-10.753,5.665-14.161,8.208c-0.672,2.208-1.44,4.177-2.208,5.041c-0.48,0.48-1.584,0.528-2.4,0.432
		c-0.096,0.144-0.192,0.24-0.336,0.336c-1.296,0.528-1.968-0.864-1.296-1.776c0.768-0.96,1.872-2.112,3.264-3.408
		c0.384-1.249,2.064-7.153,2.112-9.889c0.048-1.488-0.528-1.632-1.92-0.432c-3.408,2.88-12.625,18.962-15.553,29.331
		c-0.192,0.624-0.048,1.296-0.144,1.92c-0.24,1.248-1.344,2.064-2.256,2.256c-0.576,0.096-1.968-0.576-1.536-1.776
		c3.6-9.601,7.296-22.466,9.937-33.219c0.144-0.576,0.864-0.288,1.296-0.24c0.528,0,2.064,0.768,1.632,2.496
		c-0.336,1.729-4.992,12.721-5.472,14.065c-0.384,1.344,0.096,0.864,0.624,0c2.496-4.464,9.649-18.866,13.969-18.481
		c0.624,0,2.208,1.68,2.256,3.984c0,1.104-0.48,4.032-1.248,6.913C84.871,31.295,89.287,28.367,93.607,26.207z"/>
	<path fill="#FFFFFF" d="M101.429,27.215c0,0.816-1.344,1.536-3.888,1.296c-0.48,0-5.232,5.232-5.232,7.969s1.248,3.84,2.496,3.84
		c3.745,0,7.393-6.336,7.393-11.329c0-1.728-1.488-3.6-1.488-4.128c0-0.528,0.528-0.816,1.248-0.816c2.832,0,4.08,2.016,4.08,3.84
		c0,0.768-0.768,0.432-0.816,0.864c-0.672,5.04-5.329,13.441-11.185,13.441c-2.208,0-4.32-3.024-4.32-5.376
		c0-7.584,6.097-11.809,8.017-11.809C99.653,25.006,101.429,26.398,101.429,27.215z"/>
	<path fill="#FFFFFF" d="M124.805,12.478c-1.392,2.64-5.232,7.249-7.057,8.688c-2.256,3.457-4.849,11.377-5.329,13.633
		s-0.192,3.6,0.48,3.696c3.601-3.12,7.633-10.129,15.746-15.313c1.248,0.096,2.448,1.056,2.592,1.68s0.048,1.248-0.72,1.824
		c-2.592,3.888-7.489,7.057-7.489,8.881c0,0.816,2.256,5.088,6.097,4.849c4.176-0.672,8.545-5.329,8.785-5.953
		c0.384-1.632,1.68-0.336,0.864,0.864c-1.968,2.928-6.577,6.529-10.177,6.913c-3.552,0.384-8.785-3.984-9.601-8.305
		c-1.92,2.448-3.168,4.608-4.849,6.625c-1.008,1.2-2.976,0.96-3.84,0.192c0-0.864-0.288-0.864-0.336-1.296
		c-0.336-6.192,5.856-19.826,12.385-30.531C124.564,8.349,125.717,10.749,124.805,12.478z M120.292,32.303
		c0.432,0.192,0.72,0.72,1.44,0.24c0.816-0.528,3.888-3.696,4.608-4.944c0.336-0.576,0.096-0.96-0.624-0.384
		C123.413,29.087,121.685,30.767,120.292,32.303z"/>
	<path fill="#FFFFFF" d="M139.828,34.607c-0.672,0.432-0.816,0.768-0.768,1.536c0.144,2.448,1.152,3.552,2.928,3.552
		c2.256,0,5.521-2.4,7.681-6.241c0.384-0.048,0.912,0.096,0.672,0.912c-0.72,2.448-4.128,6.529-8.353,7.153
		c-3.601,0.576-5.617-2.833-5.376-6c0.384-4.801,3.264-10.609,7.92-12.193c0.864-0.288,1.056-0.096,1.296,0.048
		c1.056,0.624,3.456,1.008,3.552,2.928c0.048,0.864-0.384,1.488-0.816,1.872c-0.096,0.096-0.768,0.096-1.104,0.48
		C145.637,30.527,142.9,32.639,139.828,34.607z M139.492,32.063c-0.336,0.912-0.048,1.056,0.72,0.48c3.409-2.4,6.385-4.704,6.433-6
		c0-0.48-0.528-1.248-0.912-1.248C143.477,25.294,140.788,28.511,139.492,32.063z"/>
	<path fill="#FFFFFF" d="M178.804,10.317c0.912,0.288,1.008,2.256-0.24,2.928c-1.152,2.496-2.16,6.384-3.601,6.432
		c-2.016,4.945-3.84,11.665-4.272,16.85c-0.144,1.824-0.192,4.081,1.92,3.552c2.976-0.768,9.169-6.72,12.481-10.753
		c0.624-0.192,0.816,0.48,0.192,1.44c-2.64,3.984-9.553,10.801-12.577,11.425c-4.656,0.96-4.512-3.456-4.128-5.136
		c-0.096-5.761,5.808-21.602,8.256-26.882C177.364,9.933,178.42,9.789,178.804,10.317z"/>
	<path fill="#FFFFFF" d="M189.459,27.215c-0.336,1.056-1.776,2.64-2.16,3.024c-1.104,1.44-2.448,6.049-2.592,8.401
		c-0.048,0.864,0.384,0.912,1.584,0.432c2.352-0.912,7.345-5.376,8.977-8.977c-0.096-0.48,0.192-1.248,0.72-1.344
		c0.336-0.048,1.056,0,1.632,0.144c0.336,0.096,0.912,1.488,0.768,2.4c-0.048,0.192-0.528,0.288-0.768,0.48
		c-0.288,1.488-1.152,7.681,0,8.209c1.872,0.864,11.905-6.961,14.401-10.081c0.48,0.096,0.48,0.672,0,1.248
		c-4.464,5.424-12.529,11.041-14.498,10.897c-0.336-0.24-0.576-0.048-0.864-0.24c-2.928-1.68-2.448-5.809-1.776-8.113
		c0.096-0.336,0-0.432-0.24-0.096c-2.352,3.072-6.24,7.345-8.017,8.209c-1.104,0.528-1.536,0.576-1.872,0.336
		c-0.336-0.24-0.768,0.624-1.632,0.336c-0.864-0.288-1.729-1.344-1.2-3.36c0-2.688,3.312-10.705,4.464-14.545
		C188.403,23.47,189.699,26.495,189.459,27.215z"/>
	<path fill="#FFFFFF" d="M228.82,22.942c0.048,0.192,0.048,1.536-0.384,1.584c-2.592,0.288-5.424,2.16-6.384,2.736
		c-0.384,0.24-0.096-0.192-0.672-0.048c-0.672,0.096-2.64,2.448-4.704,5.376c1.44,1.968,3.072,3.792,4.944,3.984
		c2.256,0.24,3.168-0.384,4.08-0.864c0.336-0.192,0.769,0.432,0.528,0.672c-0.24,0.24-0.576,0.192-0.624,0.576
		c-0.048,0.672-1.632,1.44-2.736,1.488c-3.504,0.144-5.616-1.584-7.537-3.889c-1.536,2.256-2.928,4.561-3.792,6.193
		c-0.144,0.816,0.144,1.296-0.048,2.496c-0.096,0.24-0.912,0.72-1.44,0.72c-0.336,0.336-0.576,0.432-1.152,0.432
		c-0.672,0.096-1.2-1.056-1.2-1.584c2.353-3.408,4.464-6.769,6.433-9.745c-1.008-1.296-2.064-2.641-3.312-3.889
		c-1.056-1.008-0.768-2.448-0.048-2.448c0.72,0,1.296,0.096,1.344,0.48c1.008,0.096,2.16,1.776,3.457,3.744
		c3.456-5.088,6.528-8.593,9.745-8.593c0.576,0,0.912,0.672,1.248,0.528S228.771,22.75,228.82,22.942z"/>
	<path fill="#FFFFFF" d="M238.418,27.215c-0.336,1.056-1.776,2.64-2.16,3.024c-1.104,1.44-2.448,6.049-2.592,8.401
		c-0.048,0.864,0.384,0.912,1.584,0.432c2.352-0.912,7.345-5.376,8.977-8.977c-0.096-0.48,0.192-1.248,0.72-1.344
		c0.336-0.048,1.056,0,1.632,0.144c0.336,0.096,0.912,1.488,0.768,2.4c-0.048,0.192-0.528,0.288-0.768,0.48
		c-0.288,1.488-1.152,7.681,0,8.209c1.872,0.864,11.905-6.961,14.401-10.081c0.48,0.096,0.48,0.672,0,1.248
		c-4.464,5.424-12.529,11.041-14.498,10.897c-0.336-0.24-0.576-0.048-0.864-0.24c-2.928-1.68-2.448-5.809-1.776-8.113
		c0.096-0.336,0-0.432-0.24-0.096c-2.352,3.072-6.24,7.345-8.017,8.209c-1.104,0.528-1.536,0.576-1.872,0.336
		c-0.336-0.24-0.768,0.624-1.632,0.336c-0.864-0.288-1.729-1.344-1.2-3.36c0-2.688,3.312-10.705,4.464-14.545
		C237.362,23.47,238.658,26.495,238.418,27.215z"/>
	<path fill="#FFFFFF" d="M260.497,23.806c0-0.336,0.768-0.72,1.248-0.72c0.48,0,1.968,0.768,2.208,1.296
		c0.48,1.056-1.536,5.329-2.496,8.497c-0.144,0.48,0.144,0.528,0.384,0.192c1.728-2.064,9.313-8.401,11.617-8.401
		c0.912,0,2.688,1.92,2.688,3.313c0,1.344-1.152,2.16-2.208,1.968c-0.768-0.144-1.152-1.968-1.776-2.064
		c-2.928,0.384-8.353,5.28-11.425,8.785c-0.48,0.912-1.104,3.457-1.728,4.369c-0.624-0.096-1.104,0.576-1.392,0.528
		c-0.288-0.048-1.44-0.96-1.152-1.68c1.536-3.6,4.176-10.273,4.464-15.073C260.689,24.767,260.497,24.143,260.497,23.806z"/>
	<path fill="#FFFFFF" d="M283.009,24.334c0.528,0.096,1.536,0.576,1.056,1.44c-1.392,2.64-4.32,7.201-5.088,11.617
		c-0.288,1.584,0.336,1.248,0.864,0.672c0.528-0.672,8.593-9.985,10.417-9.985c1.968,0,3.121,5.473,2.688,11.089
		c0.96-0.672,1.92-1.056,2.784-1.104c1.2,0,2.208,0.96,2.352,2.208c0.144,0.864-0.336,1.632-0.912,1.824
		c-0.576,0.192-0.96-0.24-1.872-0.768c-0.72,0.048-1.728,0.576-2.832,1.44c-1.152,5.856-4.032,14.209-6.673,16.706
		c-0.816,0.816-1.92-0.432-2.16-1.68c-0.912-4.369,2.88-12.289,7.009-16.658c0.432-3.36,0.384-6.625-0.192-9.361
		c-0.192-0.816-0.624-1.152-1.584-0.48c-5.424,3.792-8.208,11.473-10.897,11.809c-1.056,0.144-2.112-1.008-2.064-2.256
		c0-0.336,0.24-0.72,0.288-1.104c0.384-4.464,2.736-9.985,5.185-14.977C281.617,24.286,282.481,24.238,283.009,24.334z
		 M289.922,45.216c-2.208,2.592-4.224,6.24-4.32,10.081c-0.048,0.912,0.192,1.056,0.624,0.24
		C287.858,52.465,289.106,48.864,289.922,45.216z"/>
	<path fill="#FFFFFF" d="M318,35.903c-0.72,3.84,0.72,5.185,3.84,4.128c4.416-1.488,10.129-5.617,14.113-8.401
		c0.528-0.24,0.288,0.624-0.144,1.008c-3.072,2.736-10.273,8.161-14.257,9.169c-0.48,0.144,0.144,0.288-0.192,0.384
		c-4.272,1.344-6.769-2.16-6.049-6.433c0.96-5.665,5.041-8.593,5.473-8.929s0-0.624,0.432-0.912
		c2.304-1.536,4.272-1.728,4.896-0.912c0.192,0.24,0.432-0.288,0.72-0.096c0.768,0.48,1.824,1.488,1.824,2.4
		c0,0.96-0.768,1.776-1.632,1.776c-0.912,0-1.729-0.288-1.968-1.296C322.801,27.407,318.769,31.871,318,35.903z"/>
	<path fill="#FFFFFF" d="M344.113,25.583c0,0.768-0.72,1.68-1.008,1.68c-0.912,0-1.2-1.2-1.728-1.2c-1.536,0-6.48,7.297-6.48,11.521
		c0,0.816,0.096,1.968,0.48,1.968c0.384,0,1.392-1.488,1.872-1.68c0.288-0.048,3.121-4.225,4.032-6.577
		c0.048-1.776,0.528-2.592,1.152-2.592c1.008,0,2.304,0.576,2.304,0.864c0,0.384,0.384,0.768,0.432,0.96s0.048,1.008,0.096,1.344
		c0.192,2.016,1.152,8.017,4.128,8.017c1.344,0,2.304-0.432,2.64-0.48c0.336-0.048,0.769,0.432,0.769,0.912
		c0,0.24-1.104,1.008-3.36,1.008c-1.392,0-2.592-0.288-3.168-1.152c-1.536-0.576-3.024-3.984-3.264-6.145
		c-0.048-0.432-0.432-0.576-0.768-0.096c-0.96,1.344-2.112,3.696-3.264,4.849c-1.152,1.92-2.736,2.928-4.321,2.928
		c-1.536,0-2.544-1.008-2.544-3.648c0-4.368,5.041-14.305,9.601-14.305C342.96,23.758,344.113,24.958,344.113,25.583z"/>
	<path fill="#FFFFFF" d="M361.68,23.566c0.24,0.048,0.528,1.248,0.432,1.68c-0.096,0.432-0.144,0-0.528,0.432
		c-1.2,2.784-4.8,11.185-4.176,12.193c2.16-2.256,7.057-9.697,12.385-13.201c0.432-0.288,0.912-0.384,1.632-0.528
		c1.824-0.384,2.353,2.016,1.104,4.896c-0.144,0.336-0.72,0.48-0.528,0.912c-0.432,1.968-1.968,5.376-1.872,7.921
		c0.048,1.104,0.432,1.536,1.44,1.104c3.696-1.632,9.505-6.913,12.625-10.417c0.288,0.096,0.768,0.816,0.432,1.2
		c-3.648,4.464-9.457,9.601-12.865,11.233c-2.832,1.344-4.512,0.192-4.608-1.776c-0.048-0.672,0.336-0.432,0.288-0.912
		c-0.528-2.016,2.208-7.249,2.833-10.897c0.096-0.672-0.384-0.48-1.056-0.048c-5.041,3.168-8.593,9.553-11.377,14.065
		c-0.288,0.48-2.688,0.768-2.833-0.336c-0.576-0.288-0.72-2.208-0.432-3.504c0.912-4.032,3.072-10.177,5.089-13.921
		C360.192,23.519,361.296,23.519,361.68,23.566z"/>
	<path fill="#FFFFFF" d="M400.177,19.102c1.44-3.84,2.833-7.153,3.457-8.785c1.056-2.256,1.872-4.849,2.784-4.849
		c1.056,0,1.44,0.624,1.392,1.68c0.24,0,0.624,0.336,0,1.968c-0.912,2.352-3.216,7.488-6.577,11.569
		c-1.056,3.12-2.496,7.777-3.024,12.673c-0.672,6.048,1.729,7.681,5.232,5.808c3.84-2.064,11.473-13.153,13.489-17.425
		c0.192-0.096,0.48-0.144,0.672-0.048c0.336,0.144,0.768,0.768,0.384,1.344c-3.216,4.945-8.977,14.498-13.441,17.426
		c-4.321,2.928-8.737,2.208-8.353-6c0.144-2.928,1.104-6.769,2.304-10.513c-1.2,1.584-2.448,3.121-3.744,4.657
		c0.384,0.768,0.48,1.536,0.384,2.208c-0.048,0.336,0.288-0.24,0.336,0.576c0.096,1.92-1.776,2.976-2.736,2.592
		c-0.48-0.192-0.576-0.624-0.624-1.152c0.24-0.576,0.432-1.2,0.48-1.776c-1.776,2.064-3.601,4.032-5.329,5.808
		c-0.912,1.776-2.448,2.977-3.984,3.648c-3.936,1.68-4.512-2.64-3.216-5.568c2.977-6.625,7.537-8.977,9.985-8.977
		c1.632,0,2.88,0.576,3.745,1.344C396.385,24.286,398.545,21.502,400.177,19.102z M392.353,28.991
		c-0.384-0.768-1.056-1.248-1.968-1.248c-3.312,0-7.008,5.136-7.968,7.153c-2.112,4.944,0.432,3.936,3.888,0.48
		C388.464,33.215,390.528,31.055,392.353,28.991z"/>
	<path fill="#FFFFFF" d="M417.167,28.319c-0.96,1.536-1.248,2.496-1.248,3.888c0,3.744,0.864,7.584,4.32,7.584
		c1.584,0,4.081-0.912,6.672-2.352c-0.048-0.528-0.048-1.008,0-1.44c0.384-4.8,4.128-9.793,8.593-12.673
		c0.768-0.48,1.056-0.096,1.296,0.048c0.24,0.144,0.384-0.288,0.768-0.288c0.96,0,2.544,2.688,2.64,4.32
		c0.048,0.864-0.336,1.44-0.768,1.824c-0.096,0.096,0.048,0.576-0.288,0.96c-0.96,1.152-4.896,4.656-9.361,7.537
		c0.432,2.16,2.304,2.064,5.856,0.864c4.128-1.344,9.505-4.752,13.777-9.505c0.384-0.048,1.392,0.048,0.672,0.912
		c-2.496,2.976-10.321,10.801-17.857,11.377c-2.832,0.96-4.272-0.48-4.896-2.208c-2.88,1.584-5.76,2.736-8.064,2.736
		c-2.448,0-5.712-1.92-5.712-9.265c0-8.881,5.568-22.514,9.889-27.554c0.528-1.824,1.584-2.497,2.496-2.497
		c0.576,0,1.536,1.392,1.536,2.304s-0.864,2.496-1.92,3.792C423.792,14.83,421.104,22.078,417.167,28.319z M417.312,22.606
		c-0.432,1.584-0.24,2.256,0.768,0.384c2.304-4.272,3.648-8.353,4.417-10.897c0.24-0.72,0.384-1.536,0.144-1.536
		c-0.192,0-1.008,1.344-1.249,1.776c-0.192,0.432-0.192,0.144-0.48,0.672C419.52,15.646,418.271,19.054,417.312,22.606z
		 M429.984,34.031c-0.384,1.536-0.048,1.68,1.2,0.816c3.84-2.64,7.009-5.809,7.104-7.92c0-0.48-1.392-1.296-1.776-1.296
		C434.497,25.63,431.089,29.663,429.984,34.031z"/>
	<path fill="#FFFFFF" d="M451.63,39.647c2.256,0,3.409-0.576,3.648-0.912c0.288-0.384,0.24-0.816-0.384-1.344
		c-1.776-1.536-4.608-3.264-6.961-5.809c-1.536-0.192-1.824-3.648-0.576-4.368c3.36-2.064,8.112-5.041,11.281-5.041
		c0.336,0,0.672,0.096,0.912,0.336c0.72,0.624,1.056,2.016,1.056,2.592s-0.24,0.912-0.672,0.576c-2.16-0.24-7.92,2.4-9.985,3.984
		c-0.48,2.688,5.425,4.896,7.585,7.344c1.536,1.729,1.2,3.216-0.096,3.84c-3.984,2.016-10.945-0.432-13.729-2.688
		c-0.672-0.528-0.096-0.816,0.24-0.576C445.87,38.784,449.326,39.647,451.63,39.647z"/>
	<path fill="#FFFFFF" d="M487.15,13.87c-2.256,0-4.368,1.392-4.368,3.696c-0.479,3.264,2.208,5.232,3.744,5.232
		c0.96,0,2.784-0.24,3.12-0.384c0.48,0.576,0.721,1.2,0.721,1.729c0,0.528-0.48,0.816-1.729,0.96
		c-1.344,0.144-3.601-0.384-4.225-0.288c-3.648,0.576-7.44,2.448-7.92,9.025c0.575,5.76,5.616,7.057,10.704,7.104
		c3.169,0.048,6.769-1.68,8.065-3.696c0.768-3.072-0.433-5.761-2.881-5.712c-3.216,1.296-6.288,2.688-7.584,2.928
		c-0.673,0.144-2.16-0.576-2.4-1.008c-0.192-0.528-0.145-1.152,1.824-1.68c4.08,0.192,12.192-4.608,17.233-4.608
		c2.496,0,2.064,2.353,0.768,2.544c-1.104-0.912-3.744-0.384-6.721,0.624c1.488,1.152,2.305,2.88,2.305,4.08
		c-0.048,6.193-6.816,8.353-12.337,8.497c-4.129,0-10.993-2.112-11.474-8.209c-1.151-5.28,2.497-10.417,9.266-11.377
		c0.288-0.048,0.288-0.24,0.048-0.384c-1.393-0.816-3.024-2.304-2.688-5.473c1.152-3.552,2.736-5.424,7.009-5.424
		c4.032,0,7.152,1.872,7.729,3.552s-0.576,2.4-1.488,2.208C493.007,16.366,489.695,13.87,487.15,13.87z"/>
	<path fill="#FFFFFF" d="M531.888,19.102c1.439-3.84,2.832-7.153,3.456-8.785c1.056-2.256,1.872-4.849,2.784-4.849
		c1.056,0,1.44,0.624,1.392,1.68c0.24,0,0.624,0.336,0,1.968c-0.912,2.352-3.216,7.488-6.576,11.569
		c-1.056,3.12-2.496,7.777-3.024,12.673c-0.672,6.048,1.488,8.017,5.089,6.336c3.12-1.44,6.192-5.232,6.192-5.473
		c0.192-0.096,0.479-0.144,0.672-0.048c0.336,0.144,0.816,0.816,0.384,1.344c-1.2,1.392-3.888,4.032-6.672,5.664
		c-4.081,2.4-8.018,0.816-7.681-6.72c0.144-2.928,1.104-6.769,2.304-10.513c-1.2,1.584-2.448,3.121-3.744,4.657
		c0.384,0.768,0.479,1.536,0.384,2.208c-0.048,0.336,0.288-0.24,0.336,0.576c0.097,1.92-1.776,2.976-2.736,2.592
		c-0.479-0.192-0.576-0.624-0.624-1.152c0.24-0.576,0.433-1.2,0.48-1.776c-1.776,2.064-3.601,4.032-5.328,5.808
		c-0.912,1.776-2.448,2.977-3.984,3.648c-3.937,1.68-4.513-2.64-3.217-5.568c2.977-6.625,7.537-8.977,9.985-8.977
		c1.632,0,2.88,0.576,3.744,1.344C528.095,24.286,530.255,21.502,531.888,19.102z M524.063,28.991
		c-0.384-0.768-1.056-1.248-1.968-1.248c-3.313,0-7.009,5.136-7.969,7.153c-2.112,4.944,0.432,3.936,3.888,0.48
		C520.174,33.215,522.238,31.055,524.063,28.991z"/>
	<path fill="#FFFFFF" d="M555.599,29.327c1.296-1.776,2.496-3.6,3.456-5.28c1.008-4.608,2.353-7.873,3.024-9.697
		c0.191-0.72,1.872-4.176,2.16-4.561c0.288-0.384-0.048-0.72,0.336-1.152c0.384-0.432,2.112-1.873,2.448-1.92
		C568.848,6.381,570,8.925,570,12.093c0,4.032-0.097,6.192-1.345,6.097c-0.192-0.912-0.432-6.865-2.064-6.865
		c-1.056,0-2.352,2.688-2.399,3.264c-0.049,0.576-0.288,0.24-0.576,0.72c-1.681,2.88-3.072,8.545-3.841,13.729
		c3.12-0.24,6.385-0.576,9.601-0.96c1.2-5.041,2.833-8.929,3.457-10.609c0.191-0.624,1.872-3.984,2.112-4.32
		c0.288-0.288-0.049-0.624,0.336-0.96c0.336-0.384,1.439-1.344,1.728-1.392c1.681-0.288,3.457,1.152,3.457,2.16
		c0,2.16-0.48,4.417-1.488,4.608c-0.048-0.96-0.624-2.112-1.584-2.112c-0.961,0-1.44,1.296-1.824,2.016
		c-0.24,0.432-0.673,0.192-0.912,0.624c-1.2,2.208-2.496,5.809-3.457,9.793c4.081-0.528,8.018-1.056,11.377-1.536
		c0.816-0.096,0.721-0.624,1.393-0.624s2.832,0.24,2.832,1.104c0,1.056-1.008,1.152-2.592,1.488
		c-0.48,0.096-0.528-0.288-1.248-0.192l-12.193,1.488c-0.672,3.264-1.104,6.673-1.104,9.649c0,0.768-0.288,1.008-0.288,1.2
		s0.24,0.432,0.24,0.816c0.048,3.168,0.097,6.673,1.345,10.417c0.432,1.296,1.632,1.872,1.632,2.4c0,0.48-1.152,1.584-1.584,1.584
		c-0.433,0-0.624-0.336-0.769-0.48c-1.584-1.44-2.4-1.824-4.272-3.313c-0.479-0.384-0.239-0.912,0.288-0.912
		c0.721,0.624,1.2,0.96,2.353,1.632c0.576-0.048,0.528-0.768,0.48-1.056c-0.769-3.12-1.249-5.809-1.249-11.569
		c0-3.552,0.433-7.057,1.104-10.177l-9.409,1.104c-0.191,1.776-0.336,3.408-0.336,4.8c0,0.864-0.288,1.152-0.288,1.392
		s0.24,0.48,0.24,0.96c0.048,3.648,0.48,11.233,1.104,16.37c0.048,0.576,0.96,1.92,0.96,2.496s-1.92,1.632-2.4,1.632
		c-0.479,0-0.624-0.528-0.864-0.576c-3.12-0.528-6.48-7.057-6.48-10.321c0-0.48,0.097-0.816,0.097-0.96
		c0-0.144-0.192-0.288-0.24-0.528c-0.145-1.2,0.048-6.529,0.432-8.401c0.096-0.48,0.192-0.768,0.48-0.768s0.527,0.432,0.479,0.72
		c-0.24,1.824-0.336,5.473-0.336,6.528c0,2.497,1.824,10.801,6.337,11.761c-0.576-6.192-1.104-11.665-1.104-18.77
		c0-2.208,0.097-4.225,0.288-6.145l-2.448,0.24c-4.128,5.569-9.648,11.473-11.713,11.521c-1.729,0.816-3.456-0.576-3.072-2.256
		c-0.768-2.833,4.513-14.113,3.265-16.658c0.72-0.672,1.68-0.624,1.968-0.288c0.288,0.336-0.144,0.72,0.145,0.912
		c0.672,0.48,1.104,1.296,1.199,2.208c0.337,0.912-2.928,7.776-3.936,11.569c-0.48,1.776-0.336,2.448,1.008,2.112
		c2.64-1.2,6.288-4.849,9.601-8.977h-0.048c-1.968,0.192-2.592-0.48-2.592-0.96c0-1.008,0.863-1.104,1.248-1.104
		C553.486,29.423,554.542,29.375,555.599,29.327z M547.342,12.958c0.048-0.912,2.784-1.248,3.264-1.296
		c0.336,0.336,0.673,0.672,0.673,1.008s-0.288,2.4-0.912,2.496C549.021,15.406,547.294,14.253,547.342,12.958z M558.479,26.831
		c-0.432,0.768-0.96,1.584-1.536,2.4c0.384,0,0.769-0.048,1.2-0.096L558.479,26.831z"/>
	<path fill="#FFFFFF" d="M588.284,27.215c-0.336,1.056-1.775,2.64-2.16,3.024c-1.104,1.44-2.448,6.049-2.592,8.401
		c-0.048,0.864,0.384,0.912,1.584,0.432c2.353-0.912,7.345-5.376,8.977-8.977c-0.096-0.48,0.192-1.248,0.721-1.344
		c0.336-0.048,1.056,0,1.632,0.144c0.336,0.096,0.912,1.488,0.768,2.4c-0.048,0.192-0.527,0.288-0.768,0.48
		c-0.288,1.488-1.152,7.681,0,8.209c1.872,0.864,11.905-6.961,14.401-10.081c0.479,0.096,0.479,0.672,0,1.248
		c-4.465,5.424-12.529,11.041-14.497,10.897c-0.336-0.24-0.576-0.048-0.864-0.24c-2.929-1.68-2.448-5.809-1.776-8.113
		c0.096-0.336,0-0.432-0.24-0.096c-2.352,3.072-6.24,7.345-8.017,8.209c-1.104,0.528-1.536,0.576-1.872,0.336
		c-0.336-0.24-0.768,0.624-1.632,0.336s-1.729-1.344-1.2-3.36c0-2.688,3.313-10.705,4.464-14.545
		C587.229,23.47,588.524,26.495,588.284,27.215z"/>
	<path fill="#FFFFFF" d="M613.292,39.647c2.257,0,3.408-0.576,3.648-0.912c0.288-0.384,0.24-0.816-0.384-1.344
		c-1.776-1.536-4.608-3.264-6.961-5.809c-1.536-0.192-1.824-3.648-0.576-4.368c3.36-2.064,8.113-5.041,11.281-5.041
		c0.336,0,0.672,0.096,0.912,0.336c0.72,0.624,1.056,2.016,1.056,2.592s-0.239,0.912-0.672,0.576c-2.16-0.24-7.921,2.4-9.984,3.984
		c-0.48,2.688,5.424,4.896,7.584,7.344c1.536,1.729,1.2,3.216-0.096,3.84c-3.984,2.016-10.945-0.432-13.729-2.688
		c-0.672-0.528-0.096-0.816,0.24-0.576C607.531,38.784,610.988,39.647,613.292,39.647z"/>
	<path fill="#FFFFFF" d="M647.805,29.999c-2.496,2.976-10.321,10.801-17.857,11.377c-4.513,1.536-5.521-3.024-5.328-5.376
		c0.384-4.8,4.128-9.793,8.593-12.673c0.768-0.48,1.056-0.096,1.296,0.048s0.384-0.288,0.768-0.288c0.96,0,2.545,2.688,2.641,4.32
		c0.048,0.864-0.336,1.44-0.769,1.824c-0.096,0.096,0.048,0.576-0.288,0.96c-1.68,2.064-4.752,4.656-9.408,7.201
		c0.288,2.496,2.16,2.448,5.904,1.2c4.128-1.344,9.505-4.752,13.777-9.505C647.517,29.039,648.524,29.135,647.805,29.999z
		 M627.451,35.375c3.024-1.44,8.448-5.473,8.545-8.449c0-0.48-1.393-1.296-1.776-1.296C632.012,25.63,628.075,30.479,627.451,35.375
		z"/>
	<path fill="#FFFFFF" d="M647.372,23.806c0-0.336,0.768-0.72,1.248-0.72c0.479,0,1.968,0.768,2.208,1.296
		c0.479,1.056-1.536,5.329-2.496,8.497c-0.145,0.48,0.144,0.528,0.384,0.192c1.729-2.064,9.313-8.401,11.617-8.401
		c0.912,0,2.688,1.92,2.688,3.313c0,1.344-1.152,2.16-2.209,1.968c-0.768-0.144-1.151-1.968-1.775-2.064
		c-2.929,0.384-8.354,5.28-11.426,8.785c-0.479,0.912-1.104,3.457-1.728,4.369c-0.624-0.096-1.104,0.576-1.393,0.528
		s-1.439-0.96-1.151-1.68c1.536-3.6,4.176-10.273,4.464-15.073C647.563,24.767,647.372,24.143,647.372,23.806z"/>
	<path fill="#FFFFFF" d="M670.987,39.647c2.257,0,3.408-0.576,3.648-0.912c0.288-0.384,0.24-0.816-0.384-1.344
		c-1.776-1.536-4.608-3.264-6.961-5.809c-1.536-0.192-1.824-3.648-0.576-4.368c3.36-2.064,8.113-5.041,11.281-5.041
		c0.336,0,0.672,0.096,0.912,0.336c0.72,0.624,1.056,2.016,1.056,2.592s-0.239,0.912-0.672,0.576c-2.16-0.24-7.921,2.4-9.984,3.984
		c-0.48,2.688,5.424,4.896,7.584,7.344c1.536,1.729,1.2,3.216-0.096,3.84c-3.984,2.016-10.945-0.432-13.729-2.688
		c-0.672-0.528-0.096-0.816,0.24-0.576C665.227,38.784,668.684,39.647,670.987,39.647z"/>
	<path fill="#FFFFFF" d="M704.539,12.237c0.432,0,2.208,0.96,2.16,1.68c-0.145,1.68-1.632,4.464-2.256,6.529
		c-0.24,0.768-0.528,0.48-1.057,0.432c-1.296,2.977-3.264,10.849-4.225,15.697c-0.144,0.72,0.48,1.008,0.769,0.625
		c3.552-4.513,10.32-11.617,10.944-11.617c0.625,0,1.681,0.48,1.969,0.816c0.528,0.672,0.192,2.016,0.72,2.736
		c0.433,1.152-1.92,8.593-1.2,10.417c3.553-2.016,8.978-7.297,12.241-10.897c0.624-0.192,1.393,0.768,0.528,1.536
		c-3.937,3.6-10.561,12.241-14.018,12.337c-0.527,0-1.439-1.2-1.056-2.88c-1.008-1.68,1.488-9.121,0.624-10.849
		c-2.4,0.624-6.385,5.665-8.737,8.833c-0.288,1.92-1.008,2.736-1.68,3.36c-0.432,0.384-0.816,0.48-1.152,0.48s-0.96,0.96-1.344,0.96
		s-0.816-0.48-1.008-1.056c-0.097-0.336,0-0.624,0.096-1.248c1.488-12.721,6.288-21.074,6.48-27.314
		C703.579,12.478,704.106,12.237,704.539,12.237z"/>
	<path fill="#FFFFFF" d="M732.907,25.583c0,0.768-0.72,1.68-1.008,1.68c-0.912,0-1.2-1.2-1.728-1.2
		c-1.536,0-6.481,7.297-6.481,11.521c0,0.816,0.097,1.968,0.48,1.968s1.393-1.488,1.872-1.68c0.288-0.048,3.12-4.225,4.032-6.577
		c0.048-1.776,0.528-2.592,1.152-2.592c1.008,0,2.304,0.576,2.304,0.864c0,0.384,0.385,0.768,0.433,0.96s0.048,1.008,0.096,1.344
		c0.192,2.016,1.152,8.017,4.129,8.017c1.344,0,2.304-0.432,2.64-0.48s0.769,0.432,0.769,0.912c0,0.24-1.104,1.008-3.36,1.008
		c-1.393,0-2.593-0.288-3.168-1.152c-1.537-0.576-3.024-3.984-3.265-6.145c-0.048-0.432-0.433-0.576-0.769-0.096
		c-0.96,1.344-2.111,3.696-3.264,4.849c-1.152,1.92-2.736,2.928-4.32,2.928c-1.536,0-2.545-1.008-2.545-3.648
		c0-4.368,5.041-14.305,9.602-14.305C731.756,23.758,732.907,24.958,732.907,25.583z"/>
	<path fill="#FFFFFF" d="M750.475,23.566c0.24,0.048,0.528,1.248,0.433,1.68c-0.097,0.432-0.145,0-0.528,0.432
		c-1.2,2.784-4.801,11.185-4.177,12.193c2.161-2.256,7.057-9.697,12.386-13.201c0.432-0.288,0.912-0.384,1.632-0.528
		c1.824-0.384,2.353,2.016,1.104,4.896c-0.145,0.336-0.721,0.48-0.528,0.912c-0.432,1.968-1.968,5.376-1.872,7.921
		c0.048,1.104,0.432,1.536,1.44,1.104c3.696-1.632,9.505-6.913,12.625-10.417c0.288,0.096,0.768,0.816,0.432,1.2
		c-3.648,4.464-9.457,9.601-12.865,11.233c-2.832,1.344-4.513,0.192-4.608-1.776c-0.048-0.672,0.336-0.432,0.288-0.912
		c-0.528-2.016,2.208-7.249,2.832-10.897c0.097-0.672-0.384-0.48-1.056-0.048c-5.041,3.168-8.593,9.553-11.377,14.065
		c-0.288,0.48-2.688,0.768-2.832-0.336c-0.576-0.288-0.721-2.208-0.433-3.504c0.912-4.032,3.072-10.177,5.089-13.921
		C748.987,23.519,750.091,23.519,750.475,23.566z"/>
	<path fill="#FFFFFF" d="M790.747,39.84c-5.185,5.232-8.305,2.256-8.16-2.256c-0.24-1.824-0.048-3.792,0.432-5.904
		c0.336-1.44-0.288-1.104-0.768-0.48c-2.017,2.64-3.984,5.232-6.241,7.584c-0.912,1.824-2.256,3.408-3.936,3.408
		c-3.601,0-3.265-3.456-2.545-6.192c1.633-6.385,5.185-9.985,7.729-9.985c1.776,0,4.608,0.72,5.137,2.352
		c1.872-2.784,3.36-5.424,4.608-7.681c1.44-3.264,3.024-6.577,4.368-9.649c0.961-3.024,2.112-5.185,3.024-5.185
		c1.057,0,1.729,1.776,1.393,3.024c-2.593,5.088-3.648,6.48-4.656,7.969c-2.784,5.712-5.953,12.817-6.721,17.81
		c-0.769,4.896,1.439,8.113,5.952,4.32C790.939,38.496,791.468,39.12,790.747,39.84z M780.33,31.295
		c0.769-1.152,0.624-1.488,0.145-1.92c-0.816-0.72-2.017-1.104-3.168-1.104c-1.681,0-4.081,2.929-5.521,8.257
		c-0.96,3.552-0.24,4.369,3.264,0.864C777.019,35.423,778.794,33.311,780.33,31.295z"/>
	<path fill="#FFFFFF" d="M836.061,26.207c1.344-0.624,2.496,0,2.592,0.624c0.097,0.672-0.048,1.104-1.488,1.536
		c-4.512,1.2-10.753,5.665-14.161,8.208c-0.672,2.208-1.439,4.177-2.208,5.041c-0.479,0.48-1.584,0.528-2.4,0.432
		c-0.096,0.144-0.191,0.24-0.336,0.336c-1.296,0.528-1.968-0.864-1.296-1.776c0.768-0.96,1.872-2.112,3.265-3.408
		c0.384-1.249,2.063-7.153,2.111-9.889c0.049-1.488-0.527-1.632-1.92-0.432c-3.408,2.88-12.625,18.962-15.553,29.331
		c-0.192,0.624-0.049,1.296-0.145,1.92c-0.24,1.248-1.344,2.064-2.256,2.256c-0.576,0.096-1.969-0.576-1.536-1.776
		c3.601-9.601,7.297-22.466,9.937-33.219c0.145-0.576,0.864-0.288,1.296-0.24c0.528,0,2.064,0.768,1.633,2.496
		c-0.336,1.729-4.993,12.721-5.473,14.065c-0.384,1.344,0.096,0.864,0.624,0c2.496-4.464,9.648-18.866,13.969-18.481
		c0.624,0,2.209,1.68,2.257,3.984c0,1.104-0.48,4.032-1.248,6.913C827.323,31.295,831.74,28.367,836.061,26.207z"/>
	<path fill="#FFFFFF" d="M837.834,23.614c0.336-1.536,2.496-1.92,3.072-0.816c0.192,0.384,0.336,0.72,0.528,1.008
		c1.104,0.768,2.256,2.208,3.216,3.168c2.929,1.728,6.816,1.536,11.281-0.048c0.288-0.864,0.576-1.68,0.768-2.353
		c2.017-1.104,3.313,1.92,3.072,2.641c-0.336,1.056-1.151,0.816-1.536,1.2c-1.104,1.44-3.072,7.873-3.216,10.225
		c-0.048,0.864,0.384,0.912,1.584,0.432c2.353-0.912,7.345-5.376,8.977-8.977c-0.096-0.48,0.192-1.248,0.721-1.344
		c0.336-0.048,1.056,0,1.632,0.144c0.336,0.096,0.912,1.488,0.768,2.4c-0.048,0.192-0.527,0.288-0.768,0.48
		c-0.288,1.488-1.152,7.681,0,8.209c1.872,0.864,11.905-6.961,14.401-10.081c0.479,0.096,0.479,0.672,0,1.248
		c-4.465,5.424-12.529,11.041-14.497,10.897c-0.336-0.24-0.576-0.048-0.864-0.24c-2.929-1.68-2.448-5.809-1.776-8.113
		c0.096-0.336,0-0.432-0.24-0.096c-2.352,3.072-6.24,7.345-8.017,8.209c-1.104,0.528-1.536,0.576-1.872,0.336
		c-0.336-0.24-0.768,0.624-1.632,0.336s-1.729-1.344-1.2-3.36c0-1.872,1.584-6.289,2.977-10.081
		c-2.593,0.816-4.993,1.104-7.249,1.008c0.24,0.48,0.288,1.008,0.192,1.488c-0.337,1.488-5.905,7.152-8.354,9.073
		c-1.584,1.2-3.312,1.584-4.8,1.152c-3.313-0.96-3.072-4.512-2.641-6.577c0.48-2.544,2.832-5.664,2.832-10.369
		C835.193,23.999,836.826,23.71,837.834,23.614z M839.13,26.591c0,0.384-0.096,0.72-0.191,1.008
		c-0.528,1.296-5.713,7.393-3.937,11.905c0.624,1.584,2.688,0.192,4.272-1.056c0.912-0.768,4.416-3.84,5.712-6.577
		c0.336-0.72,0.336-1.536,0.097-2.256C842.73,29.039,840.714,27.983,839.13,26.591z"/>
	<path fill="#FFFFFF" d="M881.802,23.806c0-0.336,0.768-0.72,1.248-0.72c0.479,0,1.968,0.768,2.208,1.296
		c0.479,1.056-1.536,5.329-2.496,8.497c-0.145,0.48,0.144,0.528,0.384,0.192c1.729-2.064,9.313-8.401,11.617-8.401
		c0.912,0,2.688,1.92,2.688,3.313c0,1.344-1.152,2.16-2.209,1.968c-0.768-0.144-1.151-1.968-1.775-2.064
		c-2.929,0.384-8.354,5.28-11.426,8.785c-0.479,0.912-1.104,3.457-1.728,4.369c-0.624-0.096-1.104,0.576-1.393,0.528
		s-1.439-0.96-1.151-1.68c1.536-3.6,4.176-10.273,4.464-15.073C881.993,24.767,881.802,24.143,881.802,23.806z"/>
	<path fill="#FFFFFF" d="M920.106,29.999c-2.496,2.976-10.321,10.801-17.857,11.377c-4.513,1.536-5.521-3.024-5.328-5.376
		c0.384-4.8,4.128-9.793,8.593-12.673c0.768-0.48,1.056-0.096,1.296,0.048s0.384-0.288,0.768-0.288c0.96,0,2.545,2.688,2.641,4.32
		c0.048,0.864-0.336,1.44-0.769,1.824c-0.096,0.096,0.049,0.576-0.288,0.96c-1.68,2.064-4.752,4.656-9.408,7.201
		c0.288,2.496,2.16,2.448,5.904,1.2c4.128-1.344,9.505-4.752,13.777-9.505C919.818,29.039,920.826,29.135,920.106,29.999z
		 M899.753,35.375c3.024-1.44,8.448-5.473,8.545-8.449c0-0.48-1.393-1.296-1.776-1.296C904.313,25.63,900.377,30.479,899.753,35.375
		z"/>
	<path fill="#FFFFFF" d="M937.05,39.84c-5.185,5.232-8.305,2.256-8.16-2.256c-0.24-1.824-0.048-3.792,0.432-5.904
		c0.336-1.44-0.288-1.104-0.768-0.48c-2.017,2.64-3.984,5.232-6.241,7.584c-0.912,1.824-2.256,3.408-3.936,3.408
		c-3.601,0-3.265-3.456-2.545-6.192c1.633-6.385,5.185-9.985,7.729-9.985c1.776,0,4.608,0.72,5.137,2.352
		c1.872-2.784,3.36-5.424,4.608-7.681c1.44-3.264,3.024-6.577,4.368-9.649c0.961-3.024,2.112-5.185,3.024-5.185
		c1.057,0,1.729,1.776,1.393,3.024c-2.593,5.088-3.648,6.48-4.656,7.969c-2.784,5.712-5.953,12.817-6.721,17.81
		c-0.769,4.896,1.439,8.113,5.952,4.32C937.242,38.496,937.771,39.12,937.05,39.84z M926.633,31.295
		c0.769-1.152,0.624-1.488,0.145-1.92c-0.816-0.72-2.017-1.104-3.168-1.104c-1.681,0-4.081,2.929-5.521,8.257
		c-0.96,3.552-0.24,4.369,3.264,0.864C923.321,35.423,925.097,33.311,926.633,31.295z"/>
	<path fill="#FFFFFF" d="M957.257,23.662c0.288,0.336-0.144,0.72,0.145,0.912c0.672,0.48,0.911,1.296,0.815,2.448
		c0.096,2.064-2.832,7.105-3.84,10.897c-0.48,1.776-0.24,2.88,1.104,2.544c4.32-2.016,10.657-7.153,13.922-10.753
		c0.624-0.192,0.912,0.528,0.191,1.44c-2.88,3.552-12.433,11.281-14.497,11.329c-1.729,0.816-3.456-0.576-3.072-2.256
		c-0.768-2.832,4.513-13.729,3.265-16.273C956.009,23.278,956.969,23.326,957.257,23.662z M958.697,12.958
		c0.048-0.912,2.784-1.248,3.264-1.296c0.336,0.336,0.673,0.672,0.673,1.008s-0.288,2.4-0.912,2.496
		C960.377,15.406,958.649,14.253,958.697,12.958z"/>
	<path fill="#FFFFFF" d="M973.913,23.566c0.24,0.048,0.528,1.248,0.433,1.68c-0.097,0.432-0.145,0-0.528,0.432
		c-1.344,3.216-4.032,10.081-4.177,12.193c2.16-2.256,7.297-9.553,12.386-13.201c0.432-0.288,1.056-0.672,1.776-0.672
		c1.632,0,2.063,2.304,1.775,4.704c-0.048,0.384-0.479,0.912-0.288,1.344c-0.432,1.968-1.536,5.041-1.439,7.584
		c0.048,1.104,0.624,2.16,1.728,2.16c1.681,0,3.217-0.528,5.521-2.064c0.288,0.096,0.385,0.768-0.048,1.056
		c-1.632,1.152-3.216,2.448-4.561,2.544c-1.248,0.432-2.832,0.625-3.216-0.144c-0.912-0.24-1.729-2.304-1.776-2.784
		c-0.528-2.016,0.528-5.28,1.104-8.929c0.239-1.584-0.673-2.4-1.536-1.728c-4.705,3.648-8.065,9.553-10.993,13.681
		c-0.336,0.48-2.688,0.768-2.832-0.336c-0.576-0.288-0.721-2.208-0.433-3.504c0.912-4.032,3.072-10.177,5.089-13.921
		C972.426,23.519,973.529,23.519,973.913,23.566z"/>
	<path fill="#FFFFFF" d="M1008.713,14.062c0.527-0.048,3.648-0.144,6-0.144c0.192-0.624,0.385-1.2,0.48-1.68
		c1.824-1.152,2.496,0.432,2.544,1.776c4.129,0.24,11.329,0.96,14.737,1.392c0.433,0.048,0.48,0.288,0.336,0.576
		c-0.144,0.24-0.384,0.816-0.96,0.768c-3.984-0.336-9.553-0.528-14.642-0.576c-0.72,1.296-1.968,2.88-2.592,4.128
		c-0.912,1.728-1.92,3.936-2.592,6.432c3.6,0.384,12.049-0.24,14.209-2.256c1.968-0.144,1.824,1.344,1.2,2.016
		c-1.536,1.632-10.993,3.168-15.842,1.968c-0.288,1.44-0.384,2.976-0.336,4.512c0.145,3.313,1.681,6.241,5.809,6.241
		c5.089,0,12.337-4.513,15.266-7.729c0.576,0.048,0.96,0.768,0.96,1.152c0,0.48-0.384,1.056-1.008,1.68
		c-3.793,3.84-10.417,7.008-15.89,7.008c-4.177,0-7.393-2.976-7.393-8.929c0-4.8,2.976-11.473,4.849-16.225
		c-2.545,0-4.849,0.048-6.529,0.144C1006.937,15.981,1006.601,14.206,1008.713,14.062z"/>
	<path fill="#FFFFFF" d="M1041.256,23.566c0.24,0.048,0.528,1.248,0.433,1.68c-0.097,0.432-0.145,0-0.528,0.432
		c-1.2,2.784-4.801,11.185-4.177,12.193c2.161-2.256,7.057-9.697,12.386-13.201c0.432-0.288,0.912-0.384,1.632-0.528
		c1.824-0.384,2.353,2.016,1.104,4.896c-0.145,0.336-0.721,0.48-0.528,0.912c-0.432,1.968-1.968,5.376-1.872,7.921
		c0.048,1.104,0.432,1.536,1.44,1.104c3.696-1.632,9.505-6.913,12.625-10.417c0.288,0.096,0.768,0.816,0.432,1.2
		c-3.648,4.464-9.457,9.601-12.865,11.233c-2.832,1.344-4.513,0.192-4.608-1.776c-0.048-0.672,0.336-0.432,0.288-0.912
		c-0.528-2.016,2.208-7.249,2.832-10.897c0.097-0.672-0.384-0.48-1.056-0.048c-5.041,3.168-8.593,9.553-11.377,14.065
		c-0.288,0.48-2.688,0.768-2.832-0.336c-0.576-0.288-0.721-2.208-0.433-3.504c0.912-4.032,3.072-10.177,5.089-13.921
		C1039.769,23.519,1040.872,23.519,1041.256,23.566z"/>
	<path fill="#FFFFFF" d="M1059.256,58.993c2.064,0.48,4.513,0.48,6.961-2.16c5.088-5.521,7.248-18.29,7.824-27.218
		c0.096-1.536-0.288-1.488-1.008-0.192c-1.921,3.456-2.977,6.192-6.385,9.841c-0.576,0.48-0.672,0.048-1.152,0.528
		c-2.16,1.968-5.376-0.192-5.376-3.216c0-6.384,6.48-11.041,10.944-12.145c0.96-0.72,2.353-1.728,3.169-1.584
		c0.191,0.048,0.336,0.096,0.479,0.192c0.433-0.336,0.912-0.432,1.152-0.432c1.008,0,1.152,1.296,1.056,2.64
		c-0.912,12.961-2.928,25.346-8.977,32.259c-2.784,3.168-6.912,3.984-9.121,2.544c-0.863-0.576-0.191,0.24-1.296-0.192
		c-2.112-0.864-7.2-3.313-8.017-7.057C1050.135,52.513,1051.575,57.265,1059.256,58.993z M1062.664,37.2
		c-0.048,1.152,1.344,1.392,2.641-0.192c2.063-1.536,4.176-5.041,6.145-8.785c0.479-0.912,0.239-1.248-0.48-1.152
		c-0.816,0.096-1.632,0.048-2.256,0C1065.448,29.327,1062.808,33.551,1062.664,37.2z"/>
	<path fill="#FFFFFF" d="M1093.144,10.317c0.912,0.288,1.008,2.256-0.24,2.928c-1.151,2.496-2.16,6.384-3.6,6.432
		c-2.017,4.945-3.841,11.665-4.272,16.85c-0.145,1.824-0.192,4.081,1.92,3.552c2.977-0.768,9.169-6.72,12.481-10.753
		c0.624-0.192,0.815,0.48,0.191,1.44c-2.64,3.984-9.553,10.801-12.577,11.425c-4.656,0.96-4.512-3.456-4.128-5.136
		c-0.097-5.761,5.809-21.602,8.257-26.882C1091.703,9.933,1092.76,9.789,1093.144,10.317z"/>
	<path fill="#FFFFFF" d="M1107.783,25.583c0,0.768-0.72,1.68-1.008,1.68c-0.912,0-1.2-1.2-1.728-1.2
		c-1.536,0-6.481,7.297-6.481,11.521c0,0.816,0.097,1.968,0.48,1.968s1.393-1.488,1.872-1.68c0.288-0.048,3.12-4.225,4.032-6.577
		c0.048-1.776,0.528-2.592,1.152-2.592c1.008,0,2.305,0.576,2.305,0.864c0,0.384,0.384,0.768,0.432,0.96s0.048,1.008,0.096,1.344
		c0.192,2.016,1.152,8.017,4.129,8.017c1.344,0,2.304-0.432,2.64-0.48s0.769,0.432,0.769,0.912c0,0.24-1.104,1.008-3.36,1.008
		c-1.393,0-2.593-0.288-3.169-1.152c-1.535-0.576-3.023-3.984-3.264-6.145c-0.048-0.432-0.433-0.576-0.769-0.096
		c-0.96,1.344-2.112,3.696-3.264,4.849c-1.152,1.92-2.736,2.928-4.32,2.928c-1.536,0-2.545-1.008-2.545-3.648
		c0-4.368,5.041-14.305,9.602-14.305C1106.632,23.758,1107.783,24.958,1107.783,25.583z"/>
	<path fill="#FFFFFF" d="M1125.351,23.566c0.24,0.048,0.528,1.248,0.433,1.68c-0.097,0.432-0.145,0-0.528,0.432
		c-1.2,2.784-4.801,11.185-4.177,12.193c2.16-2.256,7.057-9.697,12.386-13.201c0.432-0.288,0.912-0.384,1.632-0.528
		c1.824-0.384,2.353,2.016,1.104,4.896c-0.145,0.336-0.721,0.48-0.528,0.912c-0.432,1.968-1.968,5.376-1.872,7.921
		c0.048,1.104,0.432,1.536,1.44,1.104c3.696-1.632,9.504-6.913,12.625-10.417c0.288,0.096,0.768,0.816,0.432,1.2
		c-3.648,4.464-9.457,9.601-12.865,11.233c-2.832,1.344-4.512,0.192-4.608-1.776c-0.048-0.672,0.336-0.432,0.288-0.912
		c-0.528-2.016,2.208-7.249,2.832-10.897c0.097-0.672-0.384-0.48-1.056-0.048c-5.04,3.168-8.593,9.553-11.377,14.065
		c-0.288,0.48-2.688,0.768-2.832-0.336c-0.576-0.288-0.721-2.208-0.433-3.504c0.912-4.032,3.072-10.177,5.089-13.921
		C1123.863,23.519,1124.967,23.519,1125.351,23.566z"/>
	<path fill="#FFFFFF" d="M1165.624,39.84c-5.185,5.232-8.305,2.256-8.16-2.256c-0.24-1.824-0.048-3.792,0.432-5.904
		c0.336-1.44-0.288-1.104-0.768-0.48c-2.017,2.64-3.984,5.232-6.241,7.584c-0.912,1.824-2.256,3.408-3.936,3.408
		c-3.601,0-3.265-3.456-2.545-6.192c1.633-6.385,5.185-9.985,7.729-9.985c1.776,0,4.608,0.72,5.137,2.352
		c1.872-2.784,3.36-5.424,4.608-7.681c1.44-3.264,3.024-6.577,4.368-9.649c0.961-3.024,2.112-5.185,3.024-5.185
		c1.057,0,1.729,1.776,1.393,3.024c-2.593,5.088-3.648,6.48-4.656,7.969c-2.784,5.712-5.953,12.817-6.721,17.81
		c-0.769,4.896,1.439,8.113,5.952,4.32C1165.816,38.496,1166.345,39.12,1165.624,39.84z M1155.207,31.295
		c0.769-1.152,0.624-1.488,0.145-1.92c-0.816-0.72-2.017-1.104-3.168-1.104c-1.681,0-4.081,2.929-5.521,8.257
		c-0.96,3.552-0.24,4.369,3.264,0.864C1151.896,35.423,1153.671,33.311,1155.207,31.295z"/>
</g>
</svg>
